<svg width="382" height="545" viewBox="0 0 382 545" fill="none" xmlns="http://www.w3.org/2000/svg">
<ellipse cx="184.991" cy="219.324" rx="111" ry="192" transform="rotate(-5.37666 184.991 219.324)" fill="#B3EAEA"/>
<path d="M182.865 20.6488C251.003 47.3817 371.345 140.716 307.608 300.19C352.957 216.405 391.496 43.1988 182.865 20.6488Z" fill="#B3EAEA" stroke="#B3EAEA" stroke-width="5" stroke-linecap="round"/>
<path d="M148.084 29.9489C86.4309 68.8973 -13.8717 182.998 78.14 327.813C18.1992 253.938 -51.7292 90.9402 148.084 29.9489Z" fill="#B3EAEA" stroke="#B3EAEA" stroke-width="5" stroke-linecap="round"/>
<path d="M165.499 18.7678C138.862 93.2582 108.654 272.812 200.919 395.105C235.372 325.403 276.524 152.553 165.499 18.7678Z" fill="#FFA592" stroke="#DF7963" stroke-width="5" stroke-linecap="round"/>
<path d="M167.801 16.5424C238.631 73.6567 348.887 228.808 223.273 392.499L203.361 394.373" stroke="#DF7963" stroke-width="5" stroke-linecap="round"/>
<path d="M166.448 18.1763C108.172 89.1157 29.5352 264.59 181.194 398.97L202.102 397.002" stroke="#DF7963" stroke-width="5" stroke-linecap="round"/>
<path d="M181.194 398.97C31.222 248.36 109.871 82.2597 167.941 18.0357C-40.98 154.613 64.43 326.927 143.25 396.012L181.194 398.97Z" fill="#FFA592" stroke="#DF7963" stroke-width="5" stroke-linecap="round"/>
<path d="M224.034 389.916C346.463 226.525 240.193 76.0207 171.754 21.1924C388.813 120.49 321.377 300.066 260.526 377.442L224.034 389.916Z" fill="#FFA592" stroke="#DF7963" stroke-width="5" stroke-linecap="round"/>
<path d="M166.448 18.1763C82.6671 68.9167 -39.4834 215.34 142.161 395.111C40.2758 299.738 -97.5056 90.8291 166.448 18.1763Z" stroke="#DF7963" stroke-width="5" stroke-linecap="round"/>
<path d="M167.754 16.0446C259.327 50.2812 406.339 171.372 261.806 381.841C343.893 269.153 440.004 38.2316 167.754 16.0446Z" stroke="#DF7963" stroke-width="5" stroke-linecap="round"/>
<path d="M142.799 396.557C163.88 401.771 217.783 405.671 264.743 379.556C242.791 389.992 187.669 408.003 142.799 396.557Z" stroke="#FB4A4A" stroke-width="5" stroke-linecap="round"/>
<path d="M177.446 444.522L142.442 398.097C194.405 408.072 245.326 390.256 264.292 380.1L249.627 437.728L177.446 444.522Z" fill="#F27160" stroke="#E86042" stroke-width="5" stroke-linecap="round"/>
<path d="M191.619 445.699L193.821 469.095" stroke="#725D3F" stroke-width="5" stroke-linecap="round"/>
<path d="M231.039 442.993L233.287 466.888" stroke="#725D3F" stroke-width="5" stroke-linecap="round"/>
<rect x="170.115" y="466.807" width="85" height="13" transform="rotate(-5.37666 170.115 466.807)" fill="#725D3F"/>
<rect x="179.076" y="465.963" width="67" height="66" transform="rotate(-5.37666 179.076 465.963)" fill="#725D3F"/>
</svg>
