<svg width="796" height="290" viewBox="0 0 796 290" fill="none" xmlns="http://www.w3.org/2000/svg">
<circle cx="37.5" cy="239.781" r="37.5" fill="#FFE978"/>
<path d="M2.99999 226.281C14.2 207.081 19.3333 186.947 20.5 179.281C32 172.281 55 162.481 55 179.281C55 196.081 66 217.614 71.5 226.281C44 234.281 -8.20001 245.481 2.99999 226.281Z" fill="#FFE978" stroke="#FFEA7A"/>
<path d="M33 222.007V179.507H42V222.007C59.2 242.407 46.1667 238.173 37.5 233.507C14.7 242.707 25 229.673 33 222.007Z" stroke="#FFFADD" stroke-width="2"/>
<line x1="37.2599" y1="150.022" x2="37.2599" y2="0.000564575" stroke="black" stroke-width="3"/>
<ellipse cx="38" cy="154.007" rx="10" ry="7" fill="black"/>
<rect x="19.5" y="154.507" width="37" height="25" rx="2.5" fill="#D9D9D9" stroke="#7B7B7B"/>
<line x1="19" y1="160.507" x2="57" y2="160.507" stroke="#7B7B7B"/>
<line x1="19" y1="176.507" x2="57" y2="176.507" stroke="#7B7B7B"/>
<line x1="19" y1="172.507" x2="57" y2="172.507" stroke="#7B7B7B"/>
<line x1="19" y1="168.507" x2="57" y2="168.507" stroke="#7B7B7B"/>
<line x1="19" y1="164.507" x2="57" y2="164.507" stroke="#7B7B7B"/>
<path d="M39.5781 216.804L53.4209 247.004H45.999L42.3125 238.923H30.8379L26.9561 247.004H22.0244L36.4531 216.804H39.5781ZM32.1807 236.165H41.0918L36.7217 226.619L32.1807 236.165Z" fill="black"/>
<circle cx="234.5" cy="217.781" r="37.5" fill="#FFE978"/>
<path d="M200 204.281C211.2 185.081 216.333 164.947 217.5 157.281C229 150.281 252 140.481 252 157.281C252 174.081 263 195.614 268.5 204.281C241 212.281 188.8 223.481 200 204.281Z" fill="#FFE978" stroke="#FFEA7A"/>
<path d="M230 200.007V157.507H239V200.007C256.2 220.407 243.167 216.173 234.5 211.507C211.7 220.707 222 207.673 230 200.007Z" stroke="#FFFADD" stroke-width="2"/>
<line x1="234.25" y1="128.023" x2="234.25" stroke="black" stroke-width="3"/>
<ellipse cx="235" cy="132.007" rx="10" ry="7" fill="black"/>
<rect x="216.5" y="132.507" width="37" height="25" rx="2.5" fill="#D9D9D9" stroke="#7B7B7B"/>
<line x1="216" y1="138.507" x2="254" y2="138.507" stroke="#7B7B7B"/>
<line x1="216" y1="154.507" x2="254" y2="154.507" stroke="#7B7B7B"/>
<line x1="216" y1="150.507" x2="254" y2="150.507" stroke="#7B7B7B"/>
<line x1="216" y1="146.507" x2="254" y2="146.507" stroke="#7B7B7B"/>
<line x1="216" y1="142.507" x2="254" y2="142.507" stroke="#7B7B7B"/>
<path d="M235.97 225.664C234.391 225.664 232.869 225.485 231.404 225.126C229.956 224.785 228.605 224.288 227.352 223.637C226.098 222.986 224.959 222.197 223.934 221.269C222.924 220.341 222.054 219.3 221.321 218.144C220.605 216.972 220.052 215.711 219.661 214.36C219.271 212.993 219.075 211.544 219.075 210.014C219.075 208.517 219.271 207.109 219.661 205.791C220.052 204.456 220.605 203.227 221.321 202.104C222.054 200.965 222.924 199.947 223.934 199.052C224.959 198.157 226.098 197.392 227.352 196.757C228.605 196.123 229.956 195.642 231.404 195.317C232.853 194.975 234.375 194.804 235.97 194.804C238.346 194.804 240.56 195.179 242.61 195.927C244.677 196.676 246.468 197.726 247.981 199.077C249.495 200.411 250.683 202.014 251.546 203.886C252.425 205.742 252.864 207.776 252.864 209.99C252.864 212.333 252.425 214.474 251.546 216.411C250.683 218.331 249.495 219.983 247.981 221.367C246.468 222.734 244.677 223.792 242.61 224.541C240.56 225.289 238.346 225.664 235.97 225.664ZM235.97 223.149C237.402 223.149 238.663 222.823 239.754 222.172C240.861 221.505 241.788 220.594 242.537 219.438C243.286 218.266 243.847 216.883 244.222 215.288C244.612 213.676 244.808 211.918 244.808 210.014C244.808 208.159 244.612 206.458 244.222 204.912C243.847 203.349 243.286 202.006 242.537 200.883C241.788 199.76 240.861 198.889 239.754 198.271C238.663 197.636 237.402 197.319 235.97 197.319C234.521 197.319 233.243 197.636 232.137 198.271C231.03 198.889 230.102 199.76 229.354 200.883C228.605 202.006 228.043 203.349 227.669 204.912C227.295 206.458 227.107 208.159 227.107 210.014C227.107 211.918 227.295 213.676 227.669 215.288C228.043 216.883 228.605 218.266 229.354 219.438C230.102 220.594 231.03 221.505 232.137 222.172C233.243 222.823 234.521 223.149 235.97 223.149Z" fill="black"/>
<circle cx="758.5" cy="205.781" r="37.5" fill="#FFE978"/>
<path d="M724 192.281C735.2 173.081 740.333 152.947 741.5 145.281C753 138.281 776 128.481 776 145.281C776 162.081 787 183.614 792.5 192.281C765 200.281 712.8 211.481 724 192.281Z" fill="#FFE978" stroke="#FFEA7A"/>
<path d="M754 188.007V145.507H763V188.007C780.2 208.407 767.167 204.173 758.5 199.507C735.7 208.707 746 195.673 754 188.007Z" stroke="#FFFADD" stroke-width="2"/>
<line x1="759" y1="116.038" x2="757.5" y2="0.0237857" stroke="black" stroke-width="3"/>
<ellipse cx="759" cy="120.007" rx="10" ry="7" fill="black"/>
<rect x="740.5" y="120.507" width="37" height="25" rx="2.5" fill="#D9D9D9" stroke="#7B7B7B"/>
<line x1="740" y1="126.507" x2="778" y2="126.507" stroke="#7B7B7B"/>
<line x1="740" y1="142.507" x2="778" y2="142.507" stroke="#7B7B7B"/>
<line x1="740" y1="138.507" x2="778" y2="138.507" stroke="#7B7B7B"/>
<line x1="740" y1="134.507" x2="778" y2="134.507" stroke="#7B7B7B"/>
<line x1="740" y1="130.507" x2="778" y2="130.507" stroke="#7B7B7B"/>
<path d="M769.684 183.463V185.954H754.864V195.719H767.169V198.258H754.864V209.977H769.684V213.004H747.638V183.463H769.684Z" fill="black"/>
<circle cx="663.5" cy="231.781" r="37.5" fill="#FFE978"/>
<path d="M629 218.281C640.2 199.081 645.333 178.947 646.5 171.281C658 164.281 681 154.481 681 171.281C681 188.081 692 209.614 697.5 218.281C670 226.281 617.8 237.481 629 218.281Z" fill="#FFE978" stroke="#FFEA7A"/>
<path d="M659 214.007V171.507H668V214.007C685.2 234.407 672.167 230.173 663.5 225.507C640.7 234.707 651 221.673 659 214.007Z" stroke="#FFFADD" stroke-width="2"/>
<line x1="664" y1="142.045" x2="661.5" y2="0.0307963" stroke="black" stroke-width="3"/>
<ellipse cx="664" cy="146.007" rx="10" ry="7" fill="black"/>
<rect x="645.5" y="146.507" width="37" height="25" rx="2.5" fill="#D9D9D9" stroke="#7B7B7B"/>
<line x1="645" y1="152.507" x2="683" y2="152.507" stroke="#7B7B7B"/>
<line x1="645" y1="168.507" x2="683" y2="168.507" stroke="#7B7B7B"/>
<line x1="645" y1="164.507" x2="683" y2="164.507" stroke="#7B7B7B"/>
<line x1="645" y1="160.507" x2="683" y2="160.507" stroke="#7B7B7B"/>
<line x1="645" y1="156.507" x2="683" y2="156.507" stroke="#7B7B7B"/>
<path d="M647.638 209.463H654.693L664.898 229.654L674.981 209.463H681.891V239.004H674.64V219.742L664.996 239.004H662.188L652.228 219.522V239.004H647.638V209.463Z" fill="black"/>
<circle cx="557.5" cy="239.781" r="37.5" fill="#FFE978"/>
<path d="M523 226.281C534.2 207.081 539.333 186.947 540.5 179.281C552 172.281 575 162.481 575 179.281C575 196.081 586 217.614 591.5 226.281C564 234.281 511.8 245.481 523 226.281Z" fill="#FFE978" stroke="#FFEA7A"/>
<path d="M553 222.007V179.507H562V222.007C579.2 242.407 566.167 238.173 557.5 233.507C534.7 242.707 545 229.673 553 222.007Z" stroke="#FFFADD" stroke-width="2"/>
<line x1="557.25" y1="150.022" x2="557.25" y2="0.00062561" stroke="black" stroke-width="3"/>
<ellipse cx="558" cy="154.007" rx="10" ry="7" fill="black"/>
<rect x="539.5" y="154.507" width="37" height="25" rx="2.5" fill="#D9D9D9" stroke="#7B7B7B"/>
<line x1="539" y1="160.507" x2="577" y2="160.507" stroke="#7B7B7B"/>
<line x1="539" y1="176.507" x2="577" y2="176.507" stroke="#7B7B7B"/>
<line x1="539" y1="172.507" x2="577" y2="172.507" stroke="#7B7B7B"/>
<line x1="539" y1="168.507" x2="577" y2="168.507" stroke="#7B7B7B"/>
<line x1="539" y1="164.507" x2="577" y2="164.507" stroke="#7B7B7B"/>
<circle cx="445.5" cy="194.781" r="37.5" fill="#FFE978"/>
<path d="M411 181.281C422.2 162.081 427.333 141.947 428.5 134.281C440 127.281 463 117.481 463 134.281C463 151.081 474 172.614 479.5 181.281C452 189.281 399.8 200.481 411 181.281Z" fill="#FFE978" stroke="#FFEA7A"/>
<path d="M441 177.007V134.507H450V177.007C467.2 197.407 454.167 193.173 445.5 188.507C422.7 197.707 433 184.673 441 177.007Z" stroke="#FFFADD" stroke-width="2"/>
<line x1="446" y1="105.019" x2="446" y2="0.00439453" stroke="black" stroke-width="3"/>
<ellipse cx="446" cy="109.007" rx="10" ry="7" fill="black"/>
<rect x="427.5" y="109.507" width="37" height="25" rx="2.5" fill="#D9D9D9" stroke="#7B7B7B"/>
<line x1="427" y1="115.507" x2="465" y2="115.507" stroke="#7B7B7B"/>
<line x1="427" y1="131.507" x2="465" y2="131.507" stroke="#7B7B7B"/>
<line x1="427" y1="127.507" x2="465" y2="127.507" stroke="#7B7B7B"/>
<line x1="427" y1="123.507" x2="465" y2="123.507" stroke="#7B7B7B"/>
<line x1="427" y1="119.507" x2="465" y2="119.507" stroke="#7B7B7B"/>
<path d="M457.248 172.463V174.954H447.019V202.004H439.792V174.954H429.562V172.463H457.248Z" fill="black"/>
<circle cx="341.5" cy="237.781" r="37.5" fill="#FFE978"/>
<path d="M307 224.281C318.2 205.081 323.333 184.947 324.5 177.281C336 170.281 359 160.481 359 177.281C359 194.081 370 215.614 375.5 224.281C348 232.281 295.8 243.481 307 224.281Z" fill="#FFE978" stroke="#FFEA7A"/>
<path d="M337 220.007V177.507H346V220.007C363.2 240.407 350.167 236.173 341.5 231.507C318.7 240.707 329 227.673 337 220.007Z" stroke="#FFFADD" stroke-width="2"/>
<line x1="342" y1="148.034" x2="340.5" y2="0.0195925" stroke="black" stroke-width="3"/>
<ellipse cx="342" cy="152.007" rx="10" ry="7" fill="black"/>
<rect x="323.5" y="152.507" width="37" height="25" rx="2.5" fill="#D9D9D9" stroke="#7B7B7B"/>
<line x1="323" y1="158.507" x2="361" y2="158.507" stroke="#7B7B7B"/>
<line x1="323" y1="174.507" x2="361" y2="174.507" stroke="#7B7B7B"/>
<line x1="323" y1="170.507" x2="361" y2="170.507" stroke="#7B7B7B"/>
<line x1="323" y1="166.507" x2="361" y2="166.507" stroke="#7B7B7B"/>
<line x1="323" y1="162.507" x2="361" y2="162.507" stroke="#7B7B7B"/>
<path d="M327.638 215.463H334.889V234.433C334.889 235.589 335.06 236.671 335.401 237.68C335.759 238.673 336.264 239.552 336.915 240.317C337.582 241.066 338.38 241.66 339.308 242.099C340.252 242.522 341.31 242.734 342.481 242.734C343.653 242.734 344.703 242.522 345.631 242.099C346.575 241.66 347.372 241.066 348.023 240.317C348.691 239.552 349.195 238.673 349.537 237.68C349.895 236.671 350.074 235.589 350.074 234.433V215.463H354.64V234.433C354.64 235.963 354.379 237.412 353.858 238.779C353.338 240.13 352.524 241.318 351.417 242.343C350.31 243.369 348.894 244.182 347.169 244.785C345.444 245.371 343.368 245.664 340.943 245.664C338.762 245.664 336.842 245.371 335.182 244.785C333.538 244.182 332.154 243.369 331.031 242.343C329.908 241.318 329.062 240.122 328.492 238.754C327.923 237.387 327.638 235.931 327.638 234.384V215.463Z" fill="black"/>
<circle cx="135.5" cy="194.781" r="37.5" fill="#FFE978"/>
<path d="M101 181.281C112.2 162.081 117.333 141.947 118.5 134.281C130 127.281 153 117.481 153 134.281C153 151.081 164 172.614 169.5 181.281C142 189.281 89.8 200.481 101 181.281Z" fill="#FFE978" stroke="#FFEA7A"/>
<path d="M131 177.007V134.507H140V177.007C157.2 197.407 144.167 193.173 135.5 188.507C112.7 197.707 123 184.673 131 177.007Z" stroke="#FFFADD" stroke-width="2"/>
<line x1="136" y1="105.019" x2="136" y2="0.00439453" stroke="black" stroke-width="3"/>
<ellipse cx="136" cy="109.007" rx="10" ry="7" fill="black"/>
<rect x="117.5" y="109.507" width="37" height="25" rx="2.5" fill="#D9D9D9" stroke="#7B7B7B"/>
<line x1="117" y1="115.507" x2="155" y2="115.507" stroke="#7B7B7B"/>
<line x1="117" y1="131.507" x2="155" y2="131.507" stroke="#7B7B7B"/>
<line x1="117" y1="127.507" x2="155" y2="127.507" stroke="#7B7B7B"/>
<line x1="117" y1="123.507" x2="155" y2="123.507" stroke="#7B7B7B"/>
<line x1="117" y1="119.507" x2="155" y2="119.507" stroke="#7B7B7B"/>
<path d="M123.638 172.463H136.309C138.018 172.463 139.58 172.642 140.996 173C142.412 173.359 143.625 173.871 144.634 174.539C145.659 175.19 146.457 175.979 147.026 176.907C147.596 177.834 147.881 178.868 147.881 180.007C147.881 180.707 147.799 181.358 147.637 181.96C147.49 182.546 147.238 183.1 146.88 183.621C146.538 184.141 146.074 184.646 145.488 185.134C144.919 185.606 144.211 186.086 143.364 186.575C144.227 186.851 145.024 187.226 145.757 187.698C146.489 188.153 147.116 188.691 147.637 189.309C148.174 189.928 148.589 190.611 148.882 191.36C149.191 192.092 149.346 192.882 149.346 193.728C149.346 194.884 149.077 195.966 148.54 196.975C148.019 197.984 147.271 198.863 146.294 199.612C145.317 200.344 144.137 200.93 142.754 201.37C141.387 201.793 139.865 202.004 138.188 202.004H123.638V172.463ZM130.864 185.256H135.674C136.439 185.256 137.122 185.134 137.725 184.89C138.327 184.646 138.831 184.312 139.238 183.889C139.661 183.466 139.979 182.961 140.19 182.375C140.418 181.773 140.532 181.122 140.532 180.422C140.532 179.657 140.394 178.958 140.117 178.323C139.84 177.672 139.417 177.118 138.848 176.663C138.294 176.207 137.578 175.857 136.699 175.613C135.82 175.352 134.787 175.222 133.599 175.222H130.864V185.256ZM130.864 198.977H134.868C136.04 198.977 137.057 198.855 137.92 198.611C138.783 198.35 139.491 197.992 140.044 197.537C140.614 197.081 141.029 196.552 141.289 195.95C141.566 195.331 141.704 194.656 141.704 193.923C141.704 193.093 141.582 192.328 141.338 191.628C141.094 190.912 140.687 190.294 140.117 189.773C139.564 189.252 138.831 188.845 137.92 188.552C137.025 188.259 135.926 188.113 134.624 188.113H130.864V198.977Z" fill="black"/>
</svg>
