<svg width="2445" height="243" viewBox="0 0 2445 243" fill="none" xmlns="http://www.w3.org/2000/svg">
<rect x="1225" y="70" width="3" height="9" fill="#323232"/>
<rect x="1351" y="15" width="41" height="220" fill="#323232"/>
<rect x="1372" y="148" width="39" height="82" fill="#323232"/>
<rect x="1061" y="115" width="33" height="125" fill="#323232"/>
<rect x="1103" y="161" width="86" height="79" fill="#323232"/>
<rect x="1118" y="144" width="54" height="34" fill="#323232"/>
<rect x="1193" y="93" width="72" height="147" fill="#323232"/>
<path d="M1131 137L1143.19 116L1158 137H1131Z" fill="#323232" stroke="#323232" stroke-width="15"/>
<path d="M1366 23L1371.42 14L1378 23H1366Z" fill="#323232" stroke="#323232" stroke-width="15"/>
<rect x="1204" y="83" width="47" height="19" fill="#323232"/>
<rect x="1215" y="76" width="24" height="17" fill="#323232"/>
<rect x="583" y="64" width="3" height="9" fill="#323232"/>
<rect x="461" y="155" width="86" height="79" fill="#323232"/>
<rect x="476" y="138" width="54" height="34" fill="#323232"/>
<rect x="551" y="87" width="72" height="147" fill="#323232"/>
<path d="M489 131L501.194 110L516 131H489Z" fill="#323232" stroke="#323232" stroke-width="15"/>
<rect x="562" y="77" width="47" height="19" fill="#323232"/>
<rect x="573" y="70" width="24" height="17" fill="#323232"/>
<rect width="2445" height="32" transform="matrix(1 0 0 -1 0 243)" fill="#323232"/>
<rect x="1270" y="167" width="58" height="73" fill="#323232"/>
<path d="M1288.89 129L1282 167H1316L1308.25 129H1288.89Z" fill="#323232" stroke="#323232" stroke-width="15"/>
<rect x="1295" y="75" width="7" height="54" fill="#323232"/>
<rect x="289" y="14" width="41" height="208" fill="#323232"/>
<rect x="351.266" y="176.016" width="39" height="82" transform="rotate(89.322 351.266 176.016)" fill="#323232"/>
<rect x="208" y="154" width="58" height="73" fill="#323232"/>
<path d="M226.886 116L220 154H254L246.253 116H226.886Z" fill="#323232" stroke="#323232" stroke-width="15"/>
<rect x="233" y="62" width="7" height="54" fill="#323232"/>
<rect x="2252" y="56" width="3" height="9" fill="#323232"/>
<rect x="2378" y="38" width="41" height="183" fill="#323232"/>
<rect x="2399" y="134" width="39" height="82" fill="#323232"/>
<rect x="2220" y="79" width="72" height="147" fill="#323232"/>
<rect x="2231" y="69" width="47" height="19" fill="#323232"/>
<rect x="2242" y="62" width="24" height="17" fill="#323232"/>
<rect x="2297" y="153" width="58" height="73" fill="#323232"/>
<path d="M2315.89 115L2309 153H2343L2335.25 115H2315.89Z" fill="#323232" stroke="#323232" stroke-width="15"/>
<rect x="2322" y="61" width="7" height="54" fill="#323232"/>
<rect x="1087" y="204" width="43" height="17" fill="#323232"/>
<rect x="1172" y="178" width="56" height="53" fill="#323232"/>
<rect x="1251" y="213" width="44" height="8" fill="#323232"/>
<rect x="1411" y="178" width="106" height="53" fill="#323232"/>
<rect x="1420" y="139" width="88" height="55" fill="#323232"/>
<path d="M1466 163C1483.67 163 1498 152.031 1498 138.5C1498 124.969 1483.67 114 1466 114C1448.33 114 1434 124.969 1434 138.5C1434 152.031 1448.33 163 1466 163Z" fill="#323232"/>
<ellipse cx="1464" cy="135.5" rx="32" ry="25.5" fill="#323232"/>
<rect x="1316" y="194" width="40" height="32" fill="#323232"/>
<rect x="1464" y="93" width="3" height="24" fill="#323232"/>
<rect x="1527" y="117" width="57" height="114" fill="#323232"/>
<rect x="1517" y="205" width="26" height="21" fill="#323232"/>
<path d="M1535 101.531V116.406L1577 118V101.531L1557.44 84L1535 101.531Z" fill="#323232" stroke="#323232" stroke-width="15"/>
<rect x="1584" y="121" width="15" height="105" fill="#323232"/>
<rect x="1603" y="151" width="86" height="70" fill="#323232"/>
<rect x="1627" y="147" width="3" height="4" fill="#323232"/>
<rect x="1659" y="147" width="3" height="4" fill="#323232"/>
<rect x="1700" y="166" width="16" height="65" fill="#323232"/>
<rect x="1700" y="129" width="16" height="102" fill="#323232"/>
<rect x="1745" y="129" width="16" height="102" fill="#323232"/>
<rect x="1716" y="38" width="31" height="190" fill="#323232"/>
<rect x="1768" y="166" width="46" height="59" fill="#323232"/>
<path d="M1768 121V167H1814L1768 121Z" fill="#323232"/>
<rect x="1820" y="129" width="62" height="97" fill="#323232"/>
<rect x="1825" y="124" width="53" height="21" fill="#323232"/>
<rect x="1828" y="119" width="47" height="5" fill="#323232"/>
<rect x="1831" y="114" width="41" height="5" fill="#323232"/>
<rect x="1835" y="110" width="34" height="4" fill="#323232"/>
<rect x="1689" y="186" width="35" height="35" fill="#323232"/>
<rect x="1814" y="210" width="21" height="11" fill="#323232"/>
<rect x="1592" y="185" width="35" height="43" fill="#323232"/>
<rect x="1627" y="110" width="35" height="43" fill="#323232"/>
<rect x="2060" y="165" width="88" height="55" fill="#323232"/>
<path d="M2106 189C2123.67 189 2138 178.031 2138 164.5C2138 150.969 2123.67 140 2106 140C2088.33 140 2074 150.969 2074 164.5C2074 178.031 2088.33 189 2106 189Z" fill="#323232"/>
<ellipse cx="2104" cy="161.5" rx="32" ry="25.5" fill="#323232"/>
<rect x="2104" y="119" width="3" height="24" fill="#323232"/>
<rect x="366" y="171" width="88" height="55" fill="#323232"/>
<path d="M412 195C429.673 195 444 184.031 444 170.5C444 156.969 429.673 146 412 146C394.327 146 380 156.969 380 170.5C380 184.031 394.327 195 412 195Z" fill="#323232"/>
<ellipse cx="410" cy="167.5" rx="32" ry="25.5" fill="#323232"/>
<rect x="410" y="125" width="3" height="24" fill="#323232"/>
<path d="M2167 202.531V217.406L2209 219V202.531L2189.44 185L2167 202.531Z" fill="#323232" stroke="#323232" stroke-width="15"/>
<rect x="1910" y="110" width="15" height="105" fill="#323232"/>
<rect x="1721" y="23" width="21" height="15" fill="#323232"/>
<rect x="1849" y="85" width="8" height="32" fill="#323232"/>
<rect x="1889" y="179" width="59" height="39" fill="#323232"/>
<rect x="632" y="161" width="16" height="65" fill="#323232"/>
<rect x="632" y="124" width="16" height="102" fill="#323232"/>
<rect x="677" y="124" width="16" height="102" fill="#323232"/>
<rect x="648" y="75" width="31" height="148" fill="#323232"/>
<rect x="700" y="161" width="46" height="59" fill="#323232"/>
<path d="M700 162H746V116L700 162Z" fill="#323232"/>
<rect x="148" y="156" width="46" height="59" fill="#323232"/>
<path d="M148 157H194V111L148 157Z" fill="#323232"/>
<rect x="752" y="124" width="62" height="97" fill="#323232"/>
<rect x="757" y="119" width="53" height="21" fill="#323232"/>
<rect x="760" y="114" width="47" height="5" fill="#323232"/>
<rect x="763" y="109" width="41" height="5" fill="#323232"/>
<rect x="767" y="105" width="34" height="4" fill="#323232"/>
<rect x="842" y="105" width="15" height="105" fill="#323232"/>
<rect x="781" y="80" width="8" height="32" fill="#323232"/>
<rect x="821" y="174" width="59" height="39" fill="#323232"/>
<rect x="1959" y="167" width="85" height="59" fill="#323232"/>
<path d="M2002 135L2021.92 168H1982.08L2002 135Z" fill="#323232"/>
<rect x="962" y="148" width="86" height="70" fill="#323232"/>
<rect x="892" y="178" width="65" height="40" fill="#323232"/>
<path d="M924.5 165L948.316 187.5H900.684L924.5 165Z" fill="#323232"/>
<rect x="21" y="110" width="15" height="105" fill="#323232"/>
<rect y="179" width="59" height="39" fill="#323232"/>
<rect x="71" y="183" width="65" height="40" fill="#323232"/>
<path d="M103.5 170L127.316 192.5H79.6843L103.5 170Z" fill="#323232"/>
<rect x="2051" y="198" width="51" height="29" fill="#323232"/>
<rect x="1037" y="207" width="66" height="23" fill="#323232"/>
<rect x="952" y="199" width="42" height="30" fill="#323232"/>
<rect x="836" y="204" width="38" height="22" fill="#323232"/>
<rect x="2123" y="207" width="19" height="18" fill="#323232"/>
</svg>
