<svg width="160" height="128" viewBox="0 0 160 128" fill="none" xmlns="http://www.w3.org/2000/svg">
<path d="M111.017 65.747C110.854 63.6064 111.801 58.4361 116.895 54.8795C117.875 55.3735 119.246 56.3614 116.895 56.3614C113.956 56.3614 113.466 62.7831 112.486 65.747C111.703 68.1181 111.18 66.7349 111.017 65.747Z" fill="#FF6D6D" stroke="#FF6D6D"/>
<path d="M121.424 110.594C115.129 97.0313 117.752 79.422 119.851 72.3126C126.321 68.8491 140.416 64.0002 145.033 72.3126C149.65 80.6251 148.356 101.297 147.132 110.594C157.205 114.094 152.378 122.99 148.706 127H121.424C109.673 119.563 116.528 112.964 121.424 110.594Z" fill="#C48E67"/>
<path d="M158.295 83.5301C154.493 112.993 136.295 124.786 127.671 127H140.871C162.413 106.231 161.463 89.3664 158.295 83.5301Z" fill="#B78561"/>
<path d="M125.001 65.626C123.614 65.626 121.341 72.293 120.378 75.6265C128.661 75.0015 144.65 73.2514 142.338 71.2513C140.027 69.2512 145.228 62.9176 148.117 60.0007C150.429 60.0007 151.777 50.0002 152.163 45C149.851 47.5001 144.65 51.8753 142.338 49.3752C136.559 43.7499 134.826 46.2501 133.092 46.2501C131.705 46.2501 128.276 50.4169 126.735 52.5004L120.956 49.3752C114.946 46.3751 116.911 53.9588 118.645 58.1256L123.268 61.8758C124.424 63.1259 126.388 65.626 125.001 65.626Z" fill="#C48E67" stroke="#C48E67"/>
<path d="M121.825 71.9812V73.9643" stroke="#C48E67" stroke-linecap="round"/>
<path d="M120.296 74.2398C120.296 73.801 120.405 73.4137 120.405 73.0003C120.405 72.7189 120.417 72.115 120.651 71.9261C120.759 71.8385 120.815 71.5632 120.884 71.4304C120.967 71.273 121.079 71.1188 121.17 70.9591C121.333 70.6704 121.547 70.2003 121.798 69.9981C122.074 69.7752 122.212 69.363 122.468 69.1045C122.727 68.8442 123.072 68.4439 123.257 68.1252C123.444 67.8049 123.724 67.4527 123.998 67.1765C124.189 66.9838 124.389 66.7763 124.635 66.6409C124.772 66.5655 125.096 66.4854 125.157 66.3624" stroke="#C48E67" stroke-linecap="round"/>
<path d="M123.136 61.1843C123.324 61.2054 123.508 61.5614 123.655 61.6801C123.865 61.8496 124.071 62.1316 124.201 62.3687C124.323 62.5893 124.474 62.8031 124.502 63.0572C124.524 63.2643 124.596 63.5871 124.678 63.7734C124.844 64.1508 124.864 64.9819 124.772 65.3984C124.713 65.6658 124.476 65.931 124.447 66.1972C124.425 66.3959 124.256 66.6957 124.144 66.8612C123.874 67.2566 123.65 67.5322 123.245 67.7947" stroke="#C48E67" stroke-linecap="round"/>
<ellipse cx="118.364" cy="49.9398" rx="2.44915" ry="1.9759" fill="black"/>
<path d="M130.22 53.1481L133.318 51.5426V52.0504C133.318 52.0973 133.306 52.1377 133.283 52.1715C133.262 52.2028 133.226 52.2327 133.173 52.2614L131.377 53.1715C131.322 53.2002 131.265 53.2249 131.205 53.2458C131.145 53.2666 131.082 53.2848 131.017 53.3004C131.082 53.3135 131.145 53.3304 131.205 53.3512C131.265 53.3721 131.322 53.3968 131.377 53.4254L133.173 54.3317C133.226 54.3577 133.262 54.389 133.283 54.4254C133.306 54.4593 133.318 54.4971 133.318 54.5387V55.0504L130.22 53.445V53.1481Z" fill="black"/>
<path d="M147.754 57.0487C148.146 55.7057 146.285 52.7584 145.305 51.4527C147.264 52.3481 150.04 48.8412 151.183 46.9759C149.224 58.7275 147.264 58.7275 147.754 57.0487Z" fill="#FF6D6D" stroke="#FF6D6D"/>
<path d="M27.0533 1.04159C40.0123 -0.434233 47.084 37.7323 49 57H25.4857L23.3955 49.6209C27.75 38.1422 35.5185 13.9551 31.7562 9.03564C27.9939 4.11622 26.0082 6.98589 25.4857 9.03564C20.7828 1.04159 15.0349 25.6387 13.4673 31.788C12.2132 36.7074 15.7316 42.4467 17.6476 44.7014L21.3054 57H3.53899C1.62301 49.6209 -1.05937 32.1569 3.53899 21.3342C9.28693 7.80579 10.8546 2.88638 27.0533 1.04159Z" fill="black" stroke="black"/>
<path d="M11.4567 35.7466C8.78008 17.0899 18.5202 7.8753 23.7248 5.60009C27.1373 3.32488 32.2101 8.0649 34.3199 10.7193C42.796 36.6567 37.8516 41.6243 34.3199 40.8659C15.5833 41.776 11.2709 37.8323 11.4567 35.7466Z" fill="#DDB39B" stroke="#DDB39B"/>
<circle cx="13.5" cy="27.5" r="2.5" fill="#DDB39B"/>
<path d="M71.3932 117.852C70.8507 119.302 66.4966 105.267 64.3874 98.0678L69.8391 84.1573C71.0613 88.637 73.9997 98.4003 75.976 101.616C77.9523 104.832 80.3296 113.44 81.2713 117.341C78.2046 116.907 71.9356 116.402 71.3932 117.852Z" fill="black" stroke="#141281"/>
<ellipse rx="9.22375" ry="17.5558" transform="matrix(0.993078 0.117461 -0.104905 0.994482 59 84.6896)" fill="#000F5E"/>
<path d="M32.5783 123.807C15.8651 123.287 9.22892 78.0448 8 55.489C11.441 40.9144 24.1807 44.6448 30.1205 48.3318L39.3374 94.5279L56.5422 110.144C55.5181 114.915 49.2916 124.328 32.5783 123.807Z" fill="#8FC15D"/>
<ellipse cx="28.8916" cy="63.2968" rx="6.14458" ry="14.3143" fill="#8FC15D"/>
<path d="M16.6024 103.29L38.554 95.5803C41.6029 91.3749 53.1885 80.1605 59.8959 73.1515C66.6033 66.1426 70.8717 68.9462 75.1401 69.647C78.5548 70.2078 90.7908 102.589 96.4819 118.71H87.9452C82.0914 116.467 74.1238 96.7484 70.8717 87.1695C63.0667 102.309 57.4568 109.832 55.6275 111.701C31.2368 143.101 19.448 119.177 16.6024 103.29Z" fill="#001581" stroke="#141281"/>
<path d="M66.988 126.982H95.253C92.7406 121.402 85.6429 111.135 77.3518 114.706C71.731 117.127 69.8341 116.949 69.4889 116.12L69.8145 114.706C69.511 115.185 69.3249 115.726 69.4889 116.12L66.988 126.982Z" fill="white" stroke="black"/>
<path d="M81.7349 126.982H110C107.488 121.402 100.39 111.135 92.0988 114.706C86.4779 117.127 84.5811 116.949 84.2359 116.12L84.5614 114.706C84.258 115.185 84.0718 115.726 84.2359 116.12L81.7349 126.982Z" fill="white" stroke="black"/>
<path d="M14 127H35C33.1333 121.854 27.86 112.387 21.7 115.68C17.5239 117.912 16.1146 117.749 15.8581 116.984L16.1 115.68C15.8746 116.122 15.7362 116.621 15.8581 116.984L14 127Z" fill="#DDB39B" stroke="#DDB39B"/>
<path d="M11.5 77V55.5H25L28 77C20 81 13.6667 78.6667 11.5 77Z" fill="#7CA751"/>
<path d="M15.5 118.5V75.5H24.5V118.5C19.7 128.1 16.5 122.5 15.5 118.5Z" fill="#DDB39B"/>
<path d="M15 46.5959V40.2383L24.9061 36C25.7316 38.4724 26.8873 44.0529 24.9061 46.5959C22.9249 49.1389 17.4765 47.6555 15 46.5959Z" fill="#DDB39B"/>
<path d="M21.863 51.3758C16.7157 50.8799 13.0458 30.9186 11.8543 21C8.27975 26.9925 1.55962 41.9531 3.2754 53.8554C5.42012 68.7334 28.2972 51.9957 21.863 51.3758Z" fill="black" stroke="black"/>
<ellipse cx="13.5" cy="25" rx="4.5" ry="5" fill="#DDB39B"/>
<path d="M35 8C35 8.28185 35.0862 8.51985 35.1622 8.76269C35.2039 8.896 35.2789 9.24721 35.3378 9.33333C35.3905 9.41035 35.3983 9.57614 35.4264 9.67901C35.4464 9.75193 35.5087 9.90563 35.5135 9.97531C35.5215 10.0924 35.6514 10.4962 35.6967 10.5789C35.7025 10.5894 35.6541 10.3981 35.6351 10.3704C35.6035 10.3242 35.5335 10.2432 35.5135 10.1975C35.4469 10.0455 35.5116 10.3211 35.515 10.3429C35.5236 10.3977 35.583 10.5312 35.6081 10.5679C35.7047 10.7091 35.7192 10.9884 35.7898 11.1495C35.887 11.3716 36 11.7082 36 12" stroke="black" stroke-linecap="round"/>
<path d="M34 8C34.0181 8.14843 34.2787 8.337 34.3646 8.47009C34.4471 8.59795 34.5242 8.71839 34.599 8.8547C34.691 9.02255 34.7617 9.19889 34.8542 9.36752C34.9123 9.47359 34.9214 9.65905 34.9948 9.74264C35.1561 9.92651 35.2808 10.2537 35.3698 10.4881C35.46 10.7256 35.5611 10.9588 35.651 11.1956C35.6919 11.3032 35.7364 11.4126 35.8073 11.5066C35.8932 11.6205 35.9973 11.7256 36.0937 11.8319C36.4362 12.2096 36.7175 12.583 37 13" stroke="black" stroke-linecap="round"/>
<path d="M34 9C34.0118 9.08375 34.1505 9.12719 34.2034 9.2C34.2799 9.30537 34.3719 9.40999 34.4576 9.51111C34.5523 9.62287 34.6778 9.7242 34.7514 9.84C34.8791 10.0409 35.0266 10.2445 35.1582 10.44C35.2756 10.6144 35.4209 10.7778 35.5367 10.96C35.5984 11.057 35.7648 11.175 35.7797 11.28C35.7902 11.3545 35.8894 11.401 35.9435 11.4578C36.3903 11.9264 36.6819 12.4744 37 13" stroke="black" stroke-linecap="round"/>
<path d="M34 9C34.2549 9.24666 34.4569 9.55883 34.724 9.78853C34.8597 9.90527 34.9035 10.1459 35.0547 10.25C35.1313 10.3027 35.1388 10.4411 35.2083 10.5009C35.3168 10.5942 35.3689 10.735 35.4531 10.8459C35.6358 11.0862 35.7409 11.3763 35.9219 11.621C36.47 12.3619 36.7045 13.1571 37 14" stroke="black" stroke-linecap="round"/>
<path d="M5.75653 54.3057C5.70669 54.3119 5.59141 54.7417 5.59141 54.8128C5.59141 54.8863 5.56221 54.9737 5.54555 55.0487C5.52737 55.1305 5.5659 55.2265 5.54292 55.3069C5.5217 55.3812 5.32011 55.2993 5.4027 55.4026C5.45119 55.4632 5.48174 55.5278 5.53113 55.5913C5.61932 55.7047 5.71519 55.8109 5.80371 55.9215C6.00199 56.1694 6.34424 56.3932 6.62932 56.5283C6.82039 56.6188 6.99839 56.7072 7.20069 56.7773C7.38286 56.8403 7.57535 56.8949 7.76682 56.9188C7.99356 56.9471 8.21416 56.9712 8.44303 56.9712C8.51231 56.9712 8.63166 57.0029 8.65795 56.924" stroke="black" stroke-linecap="round"/>
<path d="M45.8824 54.8149C45.8902 54.8847 45.9704 54.9333 45.9704 55.0054C45.9704 55.0484 46.008 55.1104 46.0197 55.1514C46.0337 55.2004 46.134 55.3718 46.0757 55.4185C46.0519 55.4375 45.9752 55.4499 45.9459 55.4499C45.902 55.4499 45.8628 55.4885 45.8189 55.4982C45.6546 55.5348 45.4966 55.5574 45.3251 55.5574C45.0797 55.5574 44.8428 55.5557 44.6005 55.5205C44.4604 55.5002 44.3224 55.4669 44.1821 55.4494C44.0483 55.4327 43.9077 55.4028 43.7777 55.3664C43.6677 55.3356 43.552 55.3109 43.4401 55.286C43.3888 55.2746 43.3342 55.2785 43.2838 55.2589C43.2205 55.2343 43.1591 55.2022 43.0961 55.1764C43.0264 55.1479 42.9663 55.0973 42.898 55.0646C42.8285 55.0314 42.758 55.0034 42.6879 54.9713C42.6149 54.9377 42.5302 54.9209 42.4535 54.8974C42.3719 54.8725 42.2907 54.809 42.2092 54.7954" stroke="black" stroke-linecap="round"/>
<path d="M44.1109 54.8954C44.042 54.904 43.9523 54.9433 43.8822 54.9614C43.8015 54.9824 43.7152 54.9701 43.6354 54.9878C43.5798 55.0002 43.5061 55.0143 43.4496 55.0143C43.4131 55.0143 43.3786 55.044 43.3456 55.044C43.3081 55.044 43.2711 55.0717 43.2341 55.0737C43.1948 55.0759 43.1547 55.0737 43.1153 55.0737C43.0611 55.0737 42.9561 55.0739 42.9006 55.058C42.7726 55.0214 42.6198 54.9845 42.4796 54.9845C42.3741 54.9845 42.2634 54.9494 42.156 54.9408C41.6993 54.9043 41.2402 54.9183 40.7823 54.8954" stroke="black" stroke-linecap="round"/>
<path d="M44.4972 55.4601C44.2621 55.4601 44.0208 55.443 43.7922 55.4014C43.6672 55.3787 43.5327 55.3263 43.405 55.3263C43.3146 55.3263 43.2052 55.272 43.1153 55.252C42.883 55.2004 42.6505 55.1315 42.4202 55.0704C42.0703 54.9776 41.7262 54.8585 41.3676 54.7996C41.1208 54.7591 40.8735 54.7226 40.6271 54.6799C40.4702 54.6527 40.2872 54.6404 40.1433 54.5685" stroke="black" stroke-linecap="round"/>
</svg>
