<svg width="1452" height="253" viewBox="0 0 1452 253" fill="none" xmlns="http://www.w3.org/2000/svg">
<path d="M1152.28 96.6523C1150.68 97.4523 1156.28 106.652 1159.28 111.152C1163.95 109.152 1171.38 104.152 1163.78 100.152C1154.28 95.1523 1154.28 95.6523 1152.28 96.6523Z" fill="#518DA7"/>
<rect x="1452" y="251.691" width="1452" height="13.0882" transform="rotate(180 1452 251.691)" fill="#0D962B"/>
<path d="M1435.18 173.162C1449.45 181.015 1451.66 217.007 1450.98 234.022C1447.41 246.892 1441.19 264.91 1444.86 234.022C1448.53 203.134 1439.93 180.578 1435.18 173.162Z" fill="#0D962B"/>
<path d="M1377.97 173.162C1392.24 181.015 1394.45 217.007 1393.77 234.022C1390.2 246.892 1383.98 264.91 1387.65 234.022C1391.32 203.134 1382.72 180.578 1377.97 173.162Z" fill="#0D962B"/>
<path d="M1452 186.25C1432.79 192.318 1429.82 220.13 1430.73 233.277C1435.53 243.222 1443.9 257.145 1438.97 233.277C1434.03 209.41 1445.6 191.981 1452 186.25Z" fill="#0D962B"/>
<path d="M1347.99 187.559C1326.96 193.627 1323.7 221.439 1324.7 234.586C1329.96 244.531 1339.13 258.454 1333.72 234.586C1328.31 210.719 1340.98 193.29 1347.99 187.559Z" fill="#0D962B"/>
<path d="M1318.42 184.941C1327.57 191.009 1328.99 218.821 1328.55 231.968C1326.26 241.913 1322.28 255.836 1324.63 231.968C1326.98 208.101 1321.47 190.672 1318.42 184.941Z" fill="#0D962B"/>
<path d="M1407.13 164C1418.11 172.311 1419.81 210.401 1419.29 228.407C1416.54 242.027 1411.76 261.095 1414.58 228.407C1417.41 195.719 1410.79 171.849 1407.13 164Z" fill="#0D962B"/>
<path d="M1314.35 183.632C1306.11 190.36 1304.84 221.195 1305.23 235.771C1307.29 246.797 1310.88 262.233 1308.76 235.771C1306.64 209.309 1311.6 189.986 1314.35 183.632Z" fill="#0D962B"/>
<path d="M1363.29 187.559C1387.07 193.627 1390.75 221.439 1389.62 234.586C1383.67 244.531 1373.31 258.454 1379.43 234.586C1385.54 210.719 1371.22 193.29 1363.29 187.559Z" fill="#0D962B"/>
<path d="M1401.02 182.323C1424.8 188.392 1428.48 216.203 1427.35 229.351C1421.4 239.296 1411.04 253.218 1417.16 229.351C1423.27 205.483 1408.94 188.054 1401.02 182.323Z" fill="#0D962B"/>
<path d="M1434.16 239.257C1427.63 211.51 1431.44 195.848 1434.16 191.485C1423.55 191.485 1419.88 223.333 1419.37 239.257H1434.16Z" fill="#0D962B"/>
<path d="M1313.33 239.912C1318.73 211.785 1315.58 195.908 1313.33 191.485C1322.1 191.485 1325.14 223.77 1325.56 239.912H1313.33Z" fill="#0D962B"/>
<path d="M1412.23 241.221C1407.28 213.093 1410.17 197.217 1412.23 192.794C1404.19 192.794 1401.4 225.078 1401.02 241.221H1412.23Z" fill="#0D962B"/>
<path d="M1343.92 241.221C1338.97 207.012 1341.85 187.702 1343.92 182.323C1335.87 182.323 1333.09 221.588 1332.7 241.221H1343.92Z" fill="#0D962B"/>
<path d="M1360.23 241.221C1363.38 213.093 1361.54 197.217 1360.23 192.794C1365.35 192.794 1367.12 225.078 1367.37 241.221H1360.23Z" fill="#0D962B"/>
<path d="M1341.88 241.221C1346.83 213.093 1343.94 197.217 1341.88 192.794C1349.92 192.794 1352.71 225.078 1353.09 241.221H1341.88Z" fill="#0D962B"/>
<path d="M1352.07 241.221C1355.22 222.216 1353.39 211.488 1352.07 208.5C1357.19 208.5 1358.96 230.314 1359.21 241.221H1352.07Z" fill="#0D962B"/>
<path d="M1308.23 242.529C1311.38 223.525 1309.54 212.797 1308.23 209.809C1313.35 209.809 1315.12 231.623 1315.37 242.529H1308.23Z" fill="#0D962B"/>
<path d="M1377.56 239.912C1372.61 208.744 1375.5 191.151 1377.56 186.25C1369.52 186.25 1366.74 222.025 1366.35 239.912H1377.56Z" fill="#0D962B"/>
<path d="M1391.84 241.221C1394.99 207.012 1393.15 187.702 1391.84 182.323C1396.96 182.323 1398.73 221.588 1398.98 241.221H1391.84Z" fill="#0D962B"/>
<path d="M1249.49 173.162C1263.76 181.015 1265.97 217.007 1265.29 234.022C1261.72 246.892 1255.5 264.91 1259.18 234.022C1262.85 203.134 1254.25 180.578 1249.49 173.162Z" fill="#0D962B"/>
<path d="M1318.42 184.941C1297.39 191.009 1294.13 218.821 1295.13 231.968C1300.39 241.913 1309.56 255.836 1304.15 231.968C1298.74 208.101 1311.41 190.672 1318.42 184.941Z" fill="#0D962B"/>
<path d="M1252.15 186.25C1231.11 192.318 1227.85 220.13 1228.85 233.277C1234.11 243.222 1243.28 257.145 1237.87 233.277C1232.46 209.41 1245.13 191.981 1252.15 186.25Z" fill="#0D962B"/>
<path d="M1178.73 183.632C1187.88 189.7 1189.29 217.512 1188.86 230.66C1186.57 240.604 1182.59 254.527 1184.94 230.66C1187.29 206.792 1181.78 189.363 1178.73 183.632Z" fill="#0D962B"/>
<path d="M1266.42 188.868C1277.4 195.2 1279.1 224.221 1278.57 237.94C1275.83 248.317 1271.05 262.845 1273.87 237.94C1276.69 213.034 1270.08 194.848 1266.42 188.868Z" fill="#0D962B"/>
<path d="M1176.69 183.632C1168.46 190.36 1167.18 221.195 1167.58 235.771C1169.63 246.797 1173.22 262.233 1171.1 235.771C1168.99 209.309 1173.95 189.986 1176.69 183.632Z" fill="#0D962B"/>
<path d="M1224.62 186.25C1248.4 192.318 1252.08 220.13 1250.95 233.277C1245 243.222 1234.64 257.145 1240.75 233.277C1246.87 209.41 1232.54 191.981 1224.62 186.25Z" fill="#0D962B"/>
<path d="M1262.34 188.868C1286.13 194.936 1289.81 222.748 1288.67 235.895C1282.73 245.84 1272.37 259.763 1278.48 235.895C1284.6 212.027 1270.27 194.599 1262.34 188.868Z" fill="#0D962B"/>
<path d="M1300.07 241.875C1293.54 214.128 1297.35 198.466 1300.07 194.103C1289.47 194.103 1285.79 225.951 1285.29 241.875H1300.07Z" fill="#0D962B"/>
<path d="M160.597 173.162C174.872 181.015 177.081 217.007 176.402 234.022C172.833 246.892 166.613 264.91 170.284 234.022C173.954 203.134 165.355 180.578 160.597 173.162Z" fill="#0D962B"/>
<path d="M103.388 173.162C117.663 181.015 119.872 217.007 119.192 234.022C115.624 246.892 109.404 264.91 113.074 234.022C116.745 203.134 108.146 180.578 103.388 173.162Z" fill="#0D962B"/>
<path d="M179.461 186.25C158.422 192.318 155.166 220.13 156.168 233.277C161.427 243.222 170.594 257.145 165.184 233.277C159.774 209.41 172.448 191.981 179.461 186.25Z" fill="#0D962B"/>
<path d="M73.4159 187.559C52.3771 193.627 49.1211 221.439 50.1229 234.586C55.3826 244.531 64.5495 258.454 59.1396 234.586C53.7296 210.719 66.4029 193.29 73.4159 187.559Z" fill="#0D962B"/>
<path d="M43.8456 184.941C52.9929 191.009 54.4086 218.821 53.973 231.968C51.6861 241.913 47.7005 255.836 50.0527 231.968C52.4049 208.101 46.8947 190.672 43.8456 184.941Z" fill="#0D962B"/>
<path d="M132.556 164C143.533 172.311 145.232 210.401 144.709 228.407C141.965 242.027 137.182 261.095 140.005 228.407C142.827 195.719 136.215 171.849 132.556 164Z" fill="#0D962B"/>
<path d="M39.7669 183.632C31.5344 190.36 30.2603 221.195 30.6523 235.771C32.7105 246.797 36.2975 262.233 34.1805 235.771C32.0636 209.309 37.0227 189.986 39.7669 183.632Z" fill="#0D962B"/>
<path d="M88.7107 187.559C112.494 193.627 116.174 221.439 115.042 234.586C109.096 244.531 98.7335 258.454 104.849 234.586C110.965 210.719 96.6383 193.29 88.7107 187.559Z" fill="#0D962B"/>
<path d="M126.438 182.323C150.221 188.392 153.902 216.203 152.769 229.351C146.824 239.296 136.461 253.218 142.577 229.351C148.692 205.483 134.366 188.054 126.438 182.323Z" fill="#0D962B"/>
<path d="M159.577 239.257C153.051 211.51 156.858 195.848 159.577 191.485C148.973 191.485 145.302 223.333 144.792 239.257H159.577Z" fill="#0D962B"/>
<path d="M38.7471 239.912C44.1478 211.785 40.9974 195.908 38.7471 191.485C47.5232 191.485 50.5611 223.77 50.983 239.912H38.7471Z" fill="#0D962B"/>
<path d="M137.655 241.221C132.704 213.093 135.592 197.217 137.655 192.794C129.61 192.794 126.825 225.078 126.438 241.221H137.655Z" fill="#0D962B"/>
<path d="M69.337 241.221C64.3864 207.012 67.2743 187.702 69.337 182.323C61.2922 182.323 58.5075 221.588 58.1207 241.221H69.337Z" fill="#0D962B"/>
<path d="M85.6517 241.221C88.8021 213.093 86.9644 197.217 85.6517 192.794C90.7711 192.794 92.5432 225.078 92.7894 241.221H85.6517Z" fill="#0D962B"/>
<path d="M67.2977 241.221C72.2484 213.093 69.3605 197.217 67.2977 192.794C75.3425 192.794 78.1273 225.078 78.514 241.221H67.2977Z" fill="#0D962B"/>
<path d="M102.986 239.912C98.0352 208.744 100.923 191.151 102.986 186.25C94.9411 186.25 92.1563 222.025 91.7695 239.912H102.986Z" fill="#0D962B"/>
<path d="M117.261 241.221C120.412 207.012 118.574 187.702 117.261 182.323C122.381 182.323 124.153 221.588 124.399 241.221H117.261Z" fill="#0D962B"/>
<path d="M43.8457 184.941C22.8069 191.009 19.5509 218.821 20.5528 231.968C25.8124 241.913 34.9793 255.836 29.5694 231.968C24.1594 208.101 36.8328 190.672 43.8457 184.941Z" fill="#0D962B"/>
<path d="M-1.23978e-05 188.868C12.8062 194.936 14.7881 222.748 14.1783 235.895C10.9767 245.84 5.39689 259.763 8.68992 235.895C11.9829 212.027 4.26872 194.599 -1.23978e-05 188.868Z" fill="#0D962B"/>
<path d="M25.4916 241.875C18.9657 214.128 22.7725 198.466 25.4916 194.103C14.8871 194.103 11.2163 225.951 10.7065 241.875H25.4916Z" fill="#0D962B"/>
<path d="M1171.59 238.603C1176.99 210.476 1173.84 194.599 1171.59 190.177C1180.37 190.177 1183.41 222.461 1183.83 238.603H1171.59Z" fill="#0D962B"/>
<path d="M1273.56 239.912C1268.61 211.785 1271.5 195.908 1273.56 191.485C1265.51 191.485 1262.73 223.77 1262.34 239.912H1273.56Z" fill="#0D962B"/>
<path d="M1198.1 239.912C1193.15 205.703 1196.04 186.393 1198.1 181.015C1190.06 181.015 1187.27 220.279 1186.89 239.912H1198.1Z" fill="#0D962B"/>
<path d="M1214.42 239.912C1217.57 211.785 1215.73 195.908 1214.42 191.485C1219.54 191.485 1221.31 223.77 1221.56 239.912H1214.42Z" fill="#0D962B"/>
<path d="M1196.06 239.912C1201.02 211.785 1198.13 195.908 1196.06 191.485C1204.11 191.485 1206.89 223.77 1207.28 239.912H1196.06Z" fill="#0D962B"/>
<path d="M1206.26 239.912C1209.41 220.907 1207.57 210.179 1206.26 207.191C1211.38 207.191 1213.15 229.005 1213.4 239.912H1206.26Z" fill="#0D962B"/>
<path d="M1162.42 241.221C1165.57 222.216 1163.73 211.488 1162.42 208.5C1167.54 208.5 1169.31 230.314 1169.55 241.221H1162.42Z" fill="#0D962B"/>
<path d="M1253.17 239.912C1256.32 220.907 1254.48 210.179 1253.17 207.191C1258.29 207.191 1260.06 229.005 1260.3 239.912H1253.17Z" fill="#0D962B"/>
<path d="M1231.75 238.603C1226.8 207.435 1229.69 189.842 1231.75 184.941C1223.71 184.941 1220.92 220.716 1220.54 238.603H1231.75Z" fill="#0D962B"/>
<path d="M1246.03 239.912C1249.18 205.703 1247.34 186.393 1246.03 181.015C1251.15 181.015 1252.92 220.279 1253.17 239.912H1246.03Z" fill="#0D962B"/>
<path d="M469.045 183.632C460.812 190.36 459.538 221.195 459.93 235.771C461.989 246.797 465.576 262.233 463.459 235.771C461.342 209.309 466.301 189.986 469.045 183.632Z" fill="#0D962B"/>
<path d="M468.025 239.912C473.426 211.785 470.276 195.908 468.025 191.485C476.801 191.485 479.839 223.77 480.261 239.912H468.025Z" fill="#0D962B"/>
<path d="M404.188 173.162C418.464 181.015 420.673 217.007 419.993 234.022C416.424 246.892 410.204 264.91 413.875 234.022C417.546 203.134 408.947 180.578 404.188 173.162Z" fill="#0D962B"/>
<path d="M473.124 184.941C452.085 191.009 448.829 218.821 449.831 231.968C455.09 241.913 464.257 255.836 458.847 231.968C453.437 208.101 466.111 190.672 473.124 184.941Z" fill="#0D962B"/>
<path d="M406.846 186.25C385.807 192.318 382.551 220.13 383.553 233.277C388.812 243.222 397.979 257.145 392.569 233.277C387.159 209.41 399.833 191.981 406.846 186.25Z" fill="#0D962B"/>
<path d="M333.43 183.632C342.577 189.7 343.993 217.512 343.557 230.66C341.27 240.604 337.285 254.527 339.637 230.66C341.989 206.792 336.479 189.363 333.43 183.632Z" fill="#0D962B"/>
<path d="M421.121 188.868C432.098 195.2 433.796 224.221 433.274 237.94C430.529 248.317 425.747 262.845 428.569 237.94C431.392 213.034 424.78 194.848 421.121 188.868Z" fill="#0D962B"/>
<path d="M379.315 186.25C403.098 192.318 406.778 220.13 405.646 233.277C399.7 243.222 389.337 257.145 395.453 233.277C401.569 209.41 387.242 191.981 379.315 186.25Z" fill="#0D962B"/>
<path d="M417.042 188.868C440.825 194.936 444.506 222.748 443.373 235.895C437.427 245.84 427.065 259.763 433.18 235.895C439.296 212.027 424.97 194.599 417.042 188.868Z" fill="#0D962B"/>
<path d="M454.77 241.875C448.244 214.128 452.05 198.466 454.77 194.103C444.165 194.103 440.494 225.951 439.984 241.875H454.77Z" fill="#0D962B"/>
<path d="M428.258 239.912C423.308 211.785 426.196 195.908 428.258 191.485C420.214 191.485 417.429 223.77 417.042 239.912H428.258Z" fill="#0D962B"/>
<path d="M352.803 239.912C347.853 205.703 350.741 186.393 352.803 181.015C344.759 181.015 341.974 220.279 341.587 239.912H352.803Z" fill="#0D962B"/>
<path d="M369.118 239.912C372.268 211.785 370.431 195.908 369.118 191.485C374.237 191.485 376.01 223.77 376.256 239.912H369.118Z" fill="#0D962B"/>
<path d="M350.764 239.912C355.715 211.785 352.827 195.908 350.764 191.485C358.809 191.485 361.594 223.77 361.98 239.912H350.764Z" fill="#0D962B"/>
<path d="M386.452 238.603C381.502 207.435 384.39 189.842 386.452 184.941C378.407 184.941 375.623 220.716 375.236 238.603H386.452Z" fill="#0D962B"/>
<path d="M400.728 239.912C403.878 205.703 402.04 186.393 400.728 181.015C405.847 181.015 407.619 220.279 407.865 239.912H400.728Z" fill="#0D962B"/>
<path d="M1117.95 171.853C1132.23 179.706 1134.44 215.698 1133.76 232.713C1130.19 245.583 1123.97 263.601 1127.64 232.713C1131.31 201.825 1122.71 179.27 1117.95 171.853Z" fill="#0D962B"/>
<path d="M1120.61 184.941C1099.57 191.009 1096.31 218.821 1097.32 231.968C1102.58 241.913 1111.74 255.836 1106.33 231.968C1100.92 208.101 1113.6 190.672 1120.61 184.941Z" fill="#0D962B"/>
<path d="M1134.88 187.559C1145.86 193.891 1147.56 222.912 1147.04 236.631C1144.29 247.008 1139.51 261.536 1142.33 236.631C1145.16 211.725 1138.54 193.539 1134.88 187.559Z" fill="#0D962B"/>
<path d="M1093.08 184.941C1116.86 191.009 1120.54 218.821 1119.41 231.968C1113.46 241.913 1103.1 255.836 1109.22 231.968C1115.33 208.101 1101.01 190.672 1093.08 184.941Z" fill="#0D962B"/>
<path d="M1130.81 187.559C1154.59 193.627 1158.27 221.439 1157.14 234.586C1151.19 244.531 1140.83 258.454 1146.94 234.586C1153.06 210.719 1138.73 193.29 1130.81 187.559Z" fill="#0D962B"/>
<path d="M1168.53 240.566C1162.01 212.819 1165.81 197.157 1168.53 192.794C1157.93 192.794 1154.26 224.642 1153.75 240.566H1168.53Z" fill="#0D962B"/>
<path d="M1065.55 184.941C1074.7 191.009 1076.11 218.821 1075.68 231.968C1073.39 241.913 1069.4 255.836 1071.75 231.968C1074.11 208.101 1068.6 190.672 1065.55 184.941Z" fill="#0D962B"/>
<path d="M1063.51 184.941C1055.28 191.669 1054 222.504 1054.39 237.08C1056.45 248.106 1060.04 263.542 1057.92 237.08C1055.81 210.618 1060.76 191.295 1063.51 184.941Z" fill="#0D962B"/>
<path d="M1058.41 239.912C1063.81 211.785 1060.66 195.908 1058.41 191.485C1067.19 191.485 1070.22 223.77 1070.65 239.912H1058.41Z" fill="#0D962B"/>
<path d="M997.23 242.529C1002.63 218.203 999.481 204.472 997.23 200.647C1006.01 200.647 1009.04 228.569 1009.47 242.529H997.23Z" fill="#0D962B"/>
<path d="M1084.92 241.221C1079.97 207.012 1082.86 187.702 1084.92 182.323C1076.88 182.323 1074.09 221.588 1073.71 241.221H1084.92Z" fill="#0D962B"/>
<path d="M1082.88 241.221C1087.83 213.093 1084.94 197.217 1082.88 192.794C1090.93 192.794 1093.71 225.078 1094.1 241.221H1082.88Z" fill="#0D962B"/>
<path d="M1093.08 241.221C1096.23 222.216 1094.39 211.488 1093.08 208.5C1098.2 208.5 1099.97 230.314 1100.22 241.221H1093.08Z" fill="#0D962B"/>
<path d="M1049.23 242.529C1052.38 223.525 1050.55 212.797 1049.23 209.809C1054.35 209.809 1056.12 231.623 1056.37 242.529H1049.23Z" fill="#0D962B"/>
<path d="M1041.08 242.529C1044.23 214.402 1042.39 198.525 1041.08 194.103C1046.2 194.103 1047.97 226.387 1048.21 242.529H1041.08Z" fill="#0D962B"/>
<path d="M1018.64 243.838C1021.79 212.67 1019.96 195.077 1018.64 190.177C1023.76 190.177 1025.53 225.951 1025.78 243.838H1018.64Z" fill="#0D962B"/>
<path d="M1142.02 238.603C1137.07 210.476 1139.96 194.599 1142.02 190.177C1133.98 190.177 1131.19 222.461 1130.81 238.603H1142.02Z" fill="#0D962B"/>
<path d="M1082.88 238.603C1086.03 210.476 1084.19 194.599 1082.88 190.177C1088 190.177 1089.77 222.461 1090.02 238.603H1082.88Z" fill="#0D962B"/>
<path d="M1100.22 237.294C1095.27 206.126 1098.15 188.533 1100.22 183.632C1092.17 183.632 1089.39 219.407 1089 237.294H1100.22Z" fill="#0D962B"/>
<path d="M1114.49 238.603C1117.64 204.394 1115.8 185.085 1114.49 179.706C1119.61 179.706 1121.38 218.971 1121.63 238.603H1114.49Z" fill="#0D962B"/>
<path d="M969.19 173.162C983.465 181.015 985.674 217.007 984.994 234.022C981.426 246.892 975.206 264.91 978.876 234.022C982.547 203.134 973.948 180.578 969.19 173.162Z" fill="#0D962B"/>
<path d="M911.98 173.162C926.256 181.015 928.465 217.007 927.785 234.022C924.216 246.892 917.996 264.91 921.667 234.022C925.338 203.134 916.739 180.578 911.98 173.162Z" fill="#0D962B"/>
<path d="M988.053 186.25C967.015 192.318 963.759 220.13 964.761 233.277C970.02 243.222 979.187 257.145 973.777 233.277C968.367 209.41 981.041 191.981 988.053 186.25Z" fill="#0D962B"/>
<path d="M1033.94 191.485C1012.9 197.553 1009.64 225.365 1010.65 238.513C1015.91 248.458 1025.07 262.38 1019.66 238.513C1014.25 214.645 1026.93 197.216 1033.94 191.485Z" fill="#0D962B"/>
<path d="M882.008 187.559C860.97 193.627 857.714 221.439 858.715 234.586C863.975 244.531 873.142 258.454 867.732 234.586C862.322 210.719 874.995 193.29 882.008 187.559Z" fill="#0D962B"/>
<path d="M852.438 184.941C861.585 191.009 863.001 218.821 862.565 231.968C860.279 241.913 856.293 255.836 858.645 231.968C860.997 208.101 855.487 190.672 852.438 184.941Z" fill="#0D962B"/>
<path d="M941.149 164C952.126 172.311 953.824 210.401 953.302 228.407C950.557 242.027 945.775 261.095 948.597 228.407C951.42 195.719 944.808 171.849 941.149 164Z" fill="#0D962B"/>
<path d="M848.359 183.632C840.127 190.36 838.853 221.195 839.245 235.771C841.303 246.797 844.89 262.233 842.773 235.771C840.656 209.309 845.615 189.986 848.359 183.632Z" fill="#0D962B"/>
<path d="M897.303 187.559C921.086 193.627 924.767 221.439 923.635 234.586C917.689 244.531 907.326 258.454 913.442 234.586C919.557 210.719 905.231 193.29 897.303 187.559Z" fill="#0D962B"/>
<path d="M935.031 182.323C958.814 188.392 962.495 216.203 961.362 229.351C955.416 239.296 945.054 253.218 951.169 229.351C957.285 205.483 942.959 188.054 935.031 182.323Z" fill="#0D962B"/>
<path d="M968.17 239.257C961.644 211.51 965.451 195.848 968.17 191.485C957.565 191.485 953.895 223.333 953.385 239.257H968.17Z" fill="#0D962B"/>
<path d="M847.34 239.912C852.741 211.785 849.59 195.908 847.34 191.485C856.116 191.485 859.154 223.77 859.576 239.912H847.34Z" fill="#0D962B"/>
<path d="M946.247 241.221C941.296 213.093 944.184 197.217 946.247 192.794C938.202 192.794 935.418 225.078 935.031 241.221H946.247Z" fill="#0D962B"/>
<path d="M877.93 241.221C872.979 207.012 875.867 187.702 877.93 182.323C869.885 182.323 867.1 221.588 866.713 241.221H877.93Z" fill="#0D962B"/>
<path d="M894.244 241.221C897.395 213.093 895.557 197.217 894.244 192.794C899.364 192.794 901.136 225.078 901.382 241.221H894.244Z" fill="#0D962B"/>
<path d="M875.89 241.221C880.841 213.093 877.953 197.217 875.89 192.794C883.935 192.794 886.72 225.078 887.107 241.221H875.89Z" fill="#0D962B"/>
<path d="M886.087 241.221C889.238 222.216 887.4 211.488 886.087 208.5C891.207 208.5 892.979 230.314 893.225 241.221H886.087Z" fill="#0D962B"/>
<path d="M911.579 239.912C906.628 208.744 909.516 191.151 911.579 186.25C903.534 186.25 900.749 222.025 900.362 239.912H911.579Z" fill="#0D962B"/>
<path d="M925.854 241.221C929.004 207.012 927.167 187.702 925.854 182.323C930.973 182.323 932.745 221.588 932.992 241.221H925.854Z" fill="#0D962B"/>
<path d="M783.503 173.162C797.778 181.015 799.987 217.007 799.308 234.022C795.739 246.892 789.519 264.91 793.19 234.022C796.86 203.134 788.261 180.578 783.503 173.162Z" fill="#0D962B"/>
<path d="M852.438 184.941C831.4 191.009 828.144 218.821 829.145 231.968C834.405 241.913 843.572 255.836 838.162 231.968C832.752 208.101 845.425 190.672 852.438 184.941Z" fill="#0D962B"/>
<path d="M786.16 186.25C765.121 192.318 761.865 220.13 762.867 233.277C768.127 243.222 777.294 257.145 771.884 233.277C766.474 209.41 779.147 191.981 786.16 186.25Z" fill="#0D962B"/>
<path d="M712.744 183.632C721.892 189.7 723.307 217.512 722.872 230.66C720.585 240.604 716.599 254.527 718.951 230.66C721.304 206.792 715.793 189.363 712.744 183.632Z" fill="#0D962B"/>
<path d="M800.435 188.868C811.412 195.2 813.111 224.221 812.588 237.94C809.844 248.317 805.061 262.845 807.884 237.94C810.707 213.034 804.094 194.848 800.435 188.868Z" fill="#0D962B"/>
<path d="M710.705 183.632C702.472 190.36 701.198 221.195 701.59 235.771C703.648 246.797 707.236 262.233 705.119 235.771C703.002 209.309 707.961 189.986 710.705 183.632Z" fill="#0D962B"/>
<path d="M758.629 186.25C782.412 192.318 786.093 220.13 784.96 233.277C779.015 243.222 768.652 257.145 774.768 233.277C780.883 209.41 766.557 191.981 758.629 186.25Z" fill="#0D962B"/>
<path d="M796.357 188.868C820.14 194.936 823.82 222.748 822.688 235.895C816.742 245.84 806.38 259.763 812.495 235.895C818.611 212.027 804.284 194.599 796.357 188.868Z" fill="#0D962B"/>
<path d="M834.084 241.875C827.559 214.128 831.365 198.466 834.084 194.103C823.48 194.103 819.809 225.951 819.299 241.875H834.084Z" fill="#0D962B"/>
<path d="M705.607 238.603C711.008 210.476 707.857 194.599 705.607 190.177C714.383 190.177 717.421 222.461 717.843 238.603H705.607Z" fill="#0D962B"/>
<path d="M807.573 239.912C802.622 211.785 805.51 195.908 807.573 191.485C799.528 191.485 796.743 223.77 796.357 239.912H807.573Z" fill="#0D962B"/>
<path d="M732.118 239.912C727.167 205.703 730.055 186.393 732.118 181.015C724.073 181.015 721.289 220.279 720.902 239.912H732.118Z" fill="#0D962B"/>
<path d="M748.432 239.912C751.583 211.785 749.745 195.908 748.432 191.485C753.552 191.485 755.324 223.77 755.57 239.912H748.432Z" fill="#0D962B"/>
<path d="M730.079 239.912C735.029 211.785 732.141 195.908 730.079 191.485C738.123 191.485 740.908 223.77 741.295 239.912H730.079Z" fill="#0D962B"/>
<path d="M740.275 239.912C743.426 220.907 741.588 210.179 740.275 207.191C745.395 207.191 747.167 229.005 747.413 239.912H740.275Z" fill="#0D962B"/>
<path d="M696.43 241.221C699.58 222.216 697.742 211.488 696.43 208.5C701.549 208.5 703.321 230.314 703.567 241.221H696.43Z" fill="#0D962B"/>
<path d="M787.18 239.912C790.33 220.907 788.492 210.179 787.18 207.191C792.299 207.191 794.071 229.005 794.317 239.912H787.18Z" fill="#0D962B"/>
<path d="M765.767 238.603C760.816 207.435 763.704 189.842 765.767 184.941C757.722 184.941 754.937 220.716 754.551 238.603H765.767Z" fill="#0D962B"/>
<path d="M780.042 239.912C783.193 205.703 781.355 186.393 780.042 181.015C785.162 181.015 786.934 220.279 787.18 239.912H780.042Z" fill="#0D962B"/>
<path d="M651.966 171.853C666.242 179.706 668.451 215.698 667.771 232.713C664.202 245.583 657.982 263.601 661.653 232.713C665.324 201.825 656.725 179.27 651.966 171.853Z" fill="#0D962B"/>
<path d="M654.624 184.941C633.585 191.009 630.329 218.821 631.331 231.968C636.59 241.913 645.757 255.836 640.347 231.968C634.937 208.101 647.611 190.672 654.624 184.941Z" fill="#0D962B"/>
<path d="M668.899 187.559C679.876 193.891 681.575 222.912 681.052 236.631C678.308 247.008 673.525 261.536 676.348 236.631C679.17 211.725 672.558 193.539 668.899 187.559Z" fill="#0D962B"/>
<path d="M627.093 184.941C650.876 191.009 654.556 218.821 653.424 231.968C647.478 241.913 637.115 255.836 643.231 231.968C649.347 208.101 635.02 190.672 627.093 184.941Z" fill="#0D962B"/>
<path d="M664.82 187.559C688.603 193.627 692.284 221.439 691.151 234.586C685.206 244.531 674.843 258.454 680.959 234.586C687.074 210.719 672.748 193.29 664.82 187.559Z" fill="#0D962B"/>
<path d="M702.548 240.566C696.022 212.819 699.829 197.157 702.548 192.794C691.943 192.794 688.272 224.642 687.763 240.566H702.548Z" fill="#0D962B"/>
<path d="M599.562 184.941C608.709 191.009 610.125 218.821 609.689 231.968C607.402 241.913 603.417 255.836 605.769 231.968C608.121 208.101 602.611 190.672 599.562 184.941Z" fill="#0D962B"/>
<path d="M597.522 184.941C589.29 191.669 588.016 222.504 588.408 237.08C590.466 248.106 594.053 263.542 591.936 237.08C589.819 210.618 594.778 191.295 597.522 184.941Z" fill="#0D962B"/>
<path d="M592.424 239.912C597.825 211.785 594.674 195.908 592.424 191.485C601.2 191.485 604.238 223.77 604.66 239.912H592.424Z" fill="#0D962B"/>
<path d="M618.935 241.221C613.985 207.012 616.873 187.702 618.935 182.323C610.891 182.323 608.106 221.588 607.719 241.221H618.935Z" fill="#0D962B"/>
<path d="M616.896 241.221C621.847 213.093 618.959 197.217 616.896 192.794C624.941 192.794 627.726 225.078 628.112 241.221H616.896Z" fill="#0D962B"/>
<path d="M627.093 241.221C630.243 222.216 628.406 211.488 627.093 208.5C632.212 208.5 633.984 230.314 634.23 241.221H627.093Z" fill="#0D962B"/>
<path d="M575.09 242.529C578.24 214.402 576.403 198.525 575.09 194.103C580.209 194.103 581.981 226.387 582.228 242.529H575.09Z" fill="#0D962B"/>
<path d="M676.036 238.603C671.086 210.476 673.974 194.599 676.036 190.177C667.992 190.177 665.207 222.461 664.82 238.603H676.036Z" fill="#0D962B"/>
<path d="M616.896 238.603C620.047 210.476 618.209 194.599 616.896 190.177C622.016 190.177 623.788 222.461 624.034 238.603H616.896Z" fill="#0D962B"/>
<path d="M634.23 237.294C629.28 206.126 632.168 188.533 634.23 183.632C626.186 183.632 623.401 219.407 623.014 237.294H634.23Z" fill="#0D962B"/>
<path d="M648.506 238.603C651.656 204.394 649.818 185.085 648.506 179.706C653.625 179.706 655.397 218.971 655.643 238.603H648.506Z" fill="#0D962B"/>
<path d="M1028.84 205.228C1037 235.593 1032.24 240.566 1028.84 239.257L1019.66 245.801C1014.9 243.62 1008.24 239.257 1019.66 239.257C1031.08 239.257 1030.54 216.571 1028.84 205.228Z" fill="#0D962B"/>
<path d="M548.579 184.941C557.726 191.009 559.142 218.821 558.706 231.968C556.419 241.913 552.434 255.836 554.786 231.968C557.138 208.101 551.628 190.672 548.579 184.941Z" fill="#0D962B"/>
<path d="M546.539 184.941C538.307 191.669 537.033 222.504 537.425 237.08C539.483 248.106 543.07 263.542 540.953 237.08C538.836 210.618 543.795 191.295 546.539 184.941Z" fill="#0D962B"/>
<path d="M541.441 239.912C546.842 211.785 543.691 195.908 541.441 191.485C550.217 191.485 553.255 223.77 553.677 239.912H541.441Z" fill="#0D962B"/>
<path d="M480.261 242.529C485.662 218.203 482.511 204.472 480.261 200.647C489.037 200.647 492.075 228.569 492.497 242.529H480.261Z" fill="#0D962B"/>
<path d="M567.952 241.221C563.002 207.012 565.89 187.702 567.952 182.323C559.907 182.323 557.123 221.588 556.736 241.221H567.952Z" fill="#0D962B"/>
<path d="M565.913 241.221C570.864 213.093 567.976 197.217 565.913 192.794C573.958 192.794 576.742 225.078 577.129 241.221H565.913Z" fill="#0D962B"/>
<path d="M532.264 242.529C535.415 223.525 533.577 212.797 532.264 209.809C537.384 209.809 539.156 231.623 539.402 242.529H532.264Z" fill="#0D962B"/>
<path d="M524.107 242.529C527.257 214.402 525.419 198.525 524.107 194.103C529.226 194.103 530.998 226.387 531.244 242.529H524.107Z" fill="#0D962B"/>
<path d="M501.674 243.838C504.824 212.67 502.987 195.077 501.674 190.177C506.793 190.177 508.566 225.951 508.812 243.838H501.674Z" fill="#0D962B"/>
<path d="M565.913 238.603C569.063 210.476 567.226 194.599 565.913 190.177C571.032 190.177 572.804 222.461 573.051 238.603H565.913Z" fill="#0D962B"/>
<path d="M516.969 191.485C495.93 197.553 492.674 225.365 493.676 238.513C498.936 248.458 508.103 262.38 502.693 238.513C497.283 214.645 509.956 197.216 516.969 191.485Z" fill="#0D962B"/>
<path d="M511.871 205.228C520.028 235.593 515.27 240.566 511.871 239.257L502.694 245.801C497.935 243.62 491.274 239.257 502.694 239.257C514.114 239.257 513.57 216.571 511.871 205.228Z" fill="#0D962B"/>
<path d="M991.086 205.716C978.897 233.107 981.727 239.14 984.666 238.733L990.699 247.411C994.879 246.502 1000.98 243.959 991.933 241.061C982.889 238.163 987.6 216.291 991.086 205.716Z" fill="#0D962B"/>
<path d="M994.695 205.872C995.404 237.395 990.71 241.017 988.274 238.888L979.796 242.916C976.452 239.596 972.016 233.679 981.031 236.567C990.045 239.455 993.896 217.307 994.695 205.872Z" fill="#0D962B"/>
<path d="M301.82 242.529C307.221 218.203 304.07 204.472 301.82 200.647C310.596 200.647 313.634 228.569 314.056 242.529H301.82Z" fill="#0D962B"/>
<path d="M273.779 173.162C288.055 181.015 290.264 217.007 289.584 234.022C286.015 246.892 279.795 264.91 283.466 234.022C287.137 203.134 278.538 180.578 273.779 173.162Z" fill="#0D962B"/>
<path d="M216.57 173.162C230.845 181.015 233.055 217.007 232.375 234.022C228.806 246.892 222.586 264.91 226.257 234.022C229.928 203.134 221.329 180.578 216.57 173.162Z" fill="#0D962B"/>
<path d="M292.643 186.25C271.605 192.318 268.349 220.13 269.35 233.277C274.61 243.222 283.777 257.145 278.367 233.277C272.957 209.41 285.63 191.981 292.643 186.25Z" fill="#0D962B"/>
<path d="M338.528 191.485C317.489 197.553 314.233 225.365 315.235 238.513C320.495 248.458 329.662 262.38 324.252 238.513C318.842 214.645 331.515 197.216 338.528 191.485Z" fill="#0D962B"/>
<path d="M186.598 187.559C165.559 193.627 162.303 221.439 163.305 234.586C168.565 244.531 177.732 258.454 172.322 234.586C166.912 210.719 179.585 193.29 186.598 187.559Z" fill="#0D962B"/>
<path d="M245.739 164C256.716 172.311 258.414 210.401 257.892 228.407C255.147 242.027 250.365 261.095 253.187 228.407C256.01 195.719 249.398 171.849 245.739 164Z" fill="#0D962B"/>
<path d="M201.893 187.559C225.676 193.627 229.357 221.439 228.224 234.586C222.279 244.531 211.916 258.454 218.032 234.586C224.147 210.719 209.821 193.29 201.893 187.559Z" fill="#0D962B"/>
<path d="M239.621 182.323C263.404 188.392 267.084 216.203 265.952 229.351C260.006 239.296 249.644 253.218 255.759 229.351C261.875 205.483 247.548 188.054 239.621 182.323Z" fill="#0D962B"/>
<path d="M272.76 239.257C266.234 211.51 270.041 195.848 272.76 191.485C262.155 191.485 258.485 223.333 257.975 239.257H272.76Z" fill="#0D962B"/>
<path d="M250.837 241.221C245.886 213.093 248.774 197.217 250.837 192.794C242.792 192.794 240.008 225.078 239.621 241.221H250.837Z" fill="#0D962B"/>
<path d="M182.52 241.221C177.569 207.012 180.457 187.702 182.52 182.323C174.475 182.323 171.69 221.588 171.303 241.221H182.52Z" fill="#0D962B"/>
<path d="M198.834 241.221C201.985 213.093 200.147 197.217 198.834 192.794C203.954 192.794 205.726 225.078 205.972 241.221H198.834Z" fill="#0D962B"/>
<path d="M180.48 241.221C185.431 213.093 182.543 197.217 180.48 192.794C188.525 192.794 191.31 225.078 191.697 241.221H180.48Z" fill="#0D962B"/>
<path d="M190.677 241.221C193.827 222.216 191.99 211.488 190.677 208.5C195.796 208.5 197.569 230.314 197.815 241.221H190.677Z" fill="#0D962B"/>
<path d="M216.169 239.912C211.218 208.744 214.106 191.151 216.169 186.25C208.124 186.25 205.339 222.025 204.952 239.912H216.169Z" fill="#0D962B"/>
<path d="M230.444 241.221C233.594 207.012 231.756 187.702 230.444 182.323C235.563 182.323 237.335 221.588 237.581 241.221H230.444Z" fill="#0D962B"/>
<path d="M333.43 205.228C341.587 235.593 336.829 240.566 333.43 239.257L324.253 245.801C319.495 243.62 312.833 239.257 324.253 239.257C335.673 239.257 335.129 216.571 333.43 205.228Z" fill="#0D962B"/>
<path d="M295.676 205.716C283.487 233.107 286.317 239.14 289.256 238.733L295.289 247.411C299.469 246.502 305.568 243.959 296.523 241.061C287.479 238.163 292.19 216.291 295.676 205.716Z" fill="#0D962B"/>
<path d="M299.285 205.872C299.994 237.395 295.3 241.017 292.864 238.888L284.386 242.916C281.042 239.596 276.606 233.679 285.621 236.567C294.635 239.455 298.486 217.307 299.285 205.872Z" fill="#0D962B"/>
<rect width="1452" height="13.0882" transform="matrix(1 0 0 -1 0 253)" fill="#006316"/>
<path d="M16.8244 174.471C2.54916 182.324 0.339889 218.316 1.01966 235.331C4.58848 248.201 10.8084 266.219 7.13764 235.331C3.46685 204.443 12.066 181.887 16.8244 174.471Z" fill="#006316"/>
<path d="M74.0337 174.471C59.7584 182.324 57.5491 218.316 58.2289 235.331C61.7977 248.201 68.0177 266.219 64.3469 235.331C60.6761 204.443 69.2752 181.887 74.0337 174.471Z" fill="#006316"/>
<path d="M-1.90735e-05 187.559C19.2093 193.627 22.1822 221.439 21.2674 234.586C16.4651 244.531 8.09534 258.454 13.0349 234.586C17.9744 210.719 6.40309 193.29 -1.90735e-05 187.559Z" fill="#006316"/>
<path d="M104.006 188.868C125.044 194.936 128.3 222.748 127.299 235.895C122.039 245.84 112.872 259.763 118.282 235.895C123.692 212.027 111.019 194.599 104.006 188.868Z" fill="#006316"/>
<path d="M133.576 186.25C124.429 192.318 123.013 220.13 123.448 233.277C125.735 243.222 129.721 257.145 127.369 233.277C125.017 209.41 130.527 191.981 133.576 186.25Z" fill="#006316"/>
<path d="M44.8652 165.309C33.8884 173.619 32.1896 211.71 32.7123 229.716C35.4565 243.336 40.2392 262.404 37.4167 229.716C34.5941 197.028 41.2063 173.158 44.8652 165.309Z" fill="#006316"/>
<path d="M137.655 184.941C145.887 191.669 147.161 222.504 146.769 237.08C144.711 248.106 141.124 263.542 143.241 237.08C145.358 210.618 140.399 191.295 137.655 184.941Z" fill="#006316"/>
<path d="M88.7107 188.868C64.9277 194.936 61.247 222.748 62.3796 235.895C68.3253 245.84 78.6879 259.763 72.5723 235.895C66.4566 212.027 80.783 194.599 88.7107 188.868Z" fill="#006316"/>
<path d="M50.9832 183.632C27.2002 189.7 23.5195 217.512 24.652 230.66C30.5978 240.604 40.9603 254.527 34.8447 230.66C28.7291 206.792 43.0555 189.363 50.9832 183.632Z" fill="#006316"/>
<path d="M17.8441 240.566C24.37 212.819 20.5632 197.157 17.8441 192.794C28.4486 192.794 32.1194 224.642 32.6292 240.566H17.8441Z" fill="#006316"/>
<path d="M138.674 241.221C133.273 213.093 136.424 197.217 138.674 192.794C129.898 192.794 126.86 225.078 126.438 241.221H138.674Z" fill="#006316"/>
<path d="M39.7668 242.529C44.7175 214.402 41.8296 198.525 39.7668 194.103C47.8116 194.103 50.5964 226.387 50.9831 242.529H39.7668Z" fill="#006316"/>
<path d="M108.084 242.529C113.035 208.321 110.147 189.011 108.084 183.632C116.129 183.632 118.914 222.897 119.301 242.529H108.084Z" fill="#006316"/>
<path d="M91.7697 242.529C88.6192 214.402 90.457 198.525 91.7697 194.103C86.6502 194.103 84.8781 226.387 84.632 242.529H91.7697Z" fill="#006316"/>
<path d="M110.124 242.529C105.173 214.402 108.061 198.525 110.124 194.103C102.079 194.103 99.2941 226.387 98.9073 242.529H110.124Z" fill="#006316"/>
<path d="M99.9269 242.529C96.7765 223.525 98.6143 212.797 99.9269 209.809C94.8075 209.809 93.0354 231.623 92.7893 242.529H99.9269Z" fill="#006316"/>
<path d="M143.772 243.838C140.622 224.833 142.46 214.106 143.772 211.118C138.653 211.118 136.881 232.931 136.635 243.838H143.772Z" fill="#006316"/>
<path d="M74.4354 241.221C79.3861 210.053 76.4982 192.459 74.4354 187.559C82.4802 187.559 85.2649 223.333 85.6517 241.221H74.4354Z" fill="#006316"/>
<path d="M60.1601 242.529C57.0097 208.321 58.8474 189.011 60.1601 183.632C55.0407 183.632 53.2686 222.897 53.0225 242.529H60.1601Z" fill="#006316"/>
<path d="M202.511 174.471C188.236 182.324 186.027 218.316 186.706 235.331C190.275 248.201 196.495 266.219 192.824 235.331C189.154 204.443 197.753 181.887 202.511 174.471Z" fill="#006316"/>
<path d="M133.576 186.25C154.615 192.318 157.871 220.13 156.869 233.277C151.609 243.222 142.442 257.145 147.852 233.277C153.262 209.41 140.589 191.981 133.576 186.25Z" fill="#006316"/>
<path d="M199.854 187.559C220.893 193.627 224.149 221.439 223.147 234.586C217.887 244.531 208.72 258.454 214.13 234.586C219.54 210.719 206.867 193.29 199.854 187.559Z" fill="#006316"/>
<path d="M273.27 184.941C264.122 191.009 262.707 218.821 263.142 231.968C265.429 241.913 269.415 255.836 267.063 231.968C264.71 208.101 270.221 190.672 273.27 184.941Z" fill="#006316"/>
<path d="M185.579 190.177C174.602 196.508 172.903 225.529 173.426 239.249C176.17 249.626 180.953 264.154 178.13 239.249C175.308 214.343 181.92 196.157 185.579 190.177Z" fill="#006316"/>
<path d="M275.309 184.941C283.542 191.669 284.816 222.504 284.424 237.08C282.365 248.106 278.778 263.542 280.895 237.08C283.012 210.618 278.053 191.295 275.309 184.941Z" fill="#006316"/>
<path d="M227.385 187.559C203.602 193.627 199.921 221.439 201.054 234.586C206.999 244.531 217.362 258.454 211.246 234.586C205.131 210.719 219.457 193.29 227.385 187.559Z" fill="#006316"/>
<path d="M189.657 190.177C165.874 196.245 162.194 224.056 163.326 237.204C169.272 247.149 179.634 261.071 173.519 237.204C167.403 213.336 181.73 195.907 189.657 190.177Z" fill="#006316"/>
<path d="M151.93 243.184C158.456 215.437 154.649 199.774 151.93 195.412C162.534 195.412 166.205 227.26 166.715 243.184H151.93Z" fill="#006316"/>
<path d="M1291.4 174.471C1277.13 182.324 1274.92 218.316 1275.6 235.331C1279.17 248.201 1285.39 266.219 1281.72 235.331C1278.05 204.443 1286.64 181.887 1291.4 174.471Z" fill="#006316"/>
<path d="M1348.61 174.471C1334.34 182.324 1332.13 218.316 1332.81 235.331C1336.38 248.201 1342.6 266.219 1338.93 235.331C1335.25 204.443 1343.85 181.887 1348.61 174.471Z" fill="#006316"/>
<path d="M1272.54 187.559C1293.58 193.627 1296.83 221.439 1295.83 234.586C1290.57 244.531 1281.41 258.454 1286.82 234.586C1292.23 210.719 1279.55 193.29 1272.54 187.559Z" fill="#006316"/>
<path d="M1378.58 188.868C1399.62 194.936 1402.88 222.748 1401.88 235.895C1396.62 245.84 1387.45 259.763 1392.86 235.895C1398.27 212.027 1385.6 194.599 1378.58 188.868Z" fill="#006316"/>
<path d="M1408.15 186.25C1399.01 192.318 1397.59 220.13 1398.03 233.277C1400.31 243.222 1404.3 257.145 1401.95 233.277C1399.6 209.41 1405.11 191.981 1408.15 186.25Z" fill="#006316"/>
<path d="M1319.44 165.309C1308.47 173.619 1306.77 211.71 1307.29 229.716C1310.04 243.336 1314.82 262.404 1312 229.716C1309.17 197.028 1315.78 173.158 1319.44 165.309Z" fill="#006316"/>
<path d="M1412.23 184.941C1420.47 191.669 1421.74 222.504 1421.35 237.08C1419.29 248.106 1415.7 263.542 1417.82 237.08C1419.94 210.618 1414.98 191.295 1412.23 184.941Z" fill="#006316"/>
<path d="M1363.29 188.868C1339.51 194.936 1335.83 222.748 1336.96 235.895C1342.9 245.84 1353.27 259.763 1347.15 235.895C1341.04 212.027 1355.36 194.599 1363.29 188.868Z" fill="#006316"/>
<path d="M1325.56 183.632C1301.78 189.7 1298.1 217.512 1299.23 230.66C1305.18 240.604 1315.54 254.527 1309.42 230.66C1303.31 206.792 1317.63 189.363 1325.56 183.632Z" fill="#006316"/>
<path d="M1292.42 240.566C1298.95 212.819 1295.14 197.157 1292.42 192.794C1303.03 192.794 1306.7 224.642 1307.21 240.566H1292.42Z" fill="#006316"/>
<path d="M1413.25 241.221C1407.85 213.093 1411 197.217 1413.25 192.794C1404.48 192.794 1401.44 225.078 1401.02 241.221H1413.25Z" fill="#006316"/>
<path d="M1314.35 242.529C1319.3 214.402 1316.41 198.525 1314.35 194.103C1322.39 194.103 1325.17 226.387 1325.56 242.529H1314.35Z" fill="#006316"/>
<path d="M1382.66 242.529C1387.61 208.321 1384.73 189.011 1382.66 183.632C1390.71 183.632 1393.49 222.897 1393.88 242.529H1382.66Z" fill="#006316"/>
<path d="M1366.35 242.529C1363.2 214.402 1365.04 198.525 1366.35 194.103C1361.23 194.103 1359.46 226.387 1359.21 242.529H1366.35Z" fill="#006316"/>
<path d="M1384.7 242.529C1379.75 214.402 1382.64 198.525 1384.7 194.103C1376.66 194.103 1373.87 226.387 1373.49 242.529H1384.7Z" fill="#006316"/>
<path d="M1349.01 241.221C1353.96 210.053 1351.08 192.459 1349.01 187.559C1357.06 187.559 1359.84 223.333 1360.23 241.221H1349.01Z" fill="#006316"/>
<path d="M1334.74 242.529C1331.59 208.321 1333.43 189.011 1334.74 183.632C1329.62 183.632 1327.85 222.897 1327.6 242.529H1334.74Z" fill="#006316"/>
<path d="M1408.15 186.25C1429.19 192.318 1432.45 220.13 1431.45 233.277C1426.19 243.222 1417.02 257.145 1422.43 233.277C1427.84 209.41 1415.17 191.981 1408.15 186.25Z" fill="#006316"/>
<path d="M1452 190.177C1439.19 196.245 1437.21 224.056 1437.82 237.204C1441.02 247.149 1446.6 261.071 1443.31 237.204C1440.02 213.336 1447.73 195.907 1452 190.177Z" fill="#006316"/>
<path d="M1426.51 243.184C1433.03 215.437 1429.23 199.774 1426.51 195.412C1437.11 195.412 1440.78 227.26 1441.29 243.184H1426.51Z" fill="#006316"/>
<path d="M280.407 239.912C275.007 211.785 278.157 195.908 280.407 191.485C271.631 191.485 268.593 223.77 268.171 239.912H280.407Z" fill="#006316"/>
<path d="M178.441 241.221C183.392 213.093 180.504 197.217 178.441 192.794C186.486 192.794 189.271 225.078 189.657 241.221H178.441Z" fill="#006316"/>
<path d="M253.896 241.221C258.847 207.012 255.959 187.702 253.896 182.323C261.941 182.323 264.726 221.588 265.112 241.221H253.896Z" fill="#006316"/>
<path d="M237.581 241.221C234.431 213.093 236.269 197.217 237.581 192.794C232.462 192.794 230.69 225.078 230.444 241.221H237.581Z" fill="#006316"/>
<path d="M255.935 241.221C250.985 213.093 253.873 197.217 255.935 192.794C247.891 192.794 245.106 225.078 244.719 241.221H255.935Z" fill="#006316"/>
<path d="M245.739 241.221C242.588 222.216 244.426 211.488 245.739 208.5C240.619 208.5 238.847 230.314 238.601 241.221H245.739Z" fill="#006316"/>
<path d="M289.584 242.529C286.434 223.525 288.272 212.797 289.584 209.809C284.465 209.809 282.693 231.623 282.447 242.529H289.584Z" fill="#006316"/>
<path d="M198.834 241.221C195.684 222.216 197.522 211.488 198.834 208.5C193.715 208.5 191.943 230.314 191.697 241.221H198.834Z" fill="#006316"/>
<path d="M220.247 239.912C225.198 208.744 222.31 191.151 220.247 186.25C228.292 186.25 231.077 222.025 231.463 239.912H220.247Z" fill="#006316"/>
<path d="M205.972 241.221C202.822 207.012 204.659 187.702 205.972 182.323C200.853 182.323 199.08 221.588 198.834 241.221H205.972Z" fill="#006316"/>
<path d="M982.955 184.941C991.188 191.669 992.462 222.504 992.07 237.08C990.012 248.106 986.424 263.542 988.541 237.08C990.658 210.618 985.699 191.295 982.955 184.941Z" fill="#006316"/>
<path d="M983.975 241.221C978.574 213.093 981.724 197.217 983.975 192.794C975.199 192.794 972.161 225.078 971.739 241.221H983.975Z" fill="#006316"/>
<path d="M1047.81 174.471C1033.54 182.324 1031.33 218.316 1032.01 235.331C1035.58 248.201 1041.8 266.219 1038.13 235.331C1034.45 204.443 1043.05 181.887 1047.81 174.471Z" fill="#006316"/>
<path d="M978.876 186.25C999.915 192.318 1003.17 220.13 1002.17 233.277C996.91 243.222 987.743 257.145 993.153 233.277C998.563 209.41 985.889 191.981 978.876 186.25Z" fill="#006316"/>
<path d="M1045.15 187.559C1066.19 193.627 1069.45 221.439 1068.45 234.586C1063.19 244.531 1054.02 258.454 1059.43 234.586C1064.84 210.719 1052.17 193.29 1045.15 187.559Z" fill="#006316"/>
<path d="M1118.57 184.941C1109.42 191.009 1108.01 218.821 1108.44 231.968C1110.73 241.913 1114.72 255.836 1112.36 231.968C1110.01 208.101 1115.52 190.672 1118.57 184.941Z" fill="#006316"/>
<path d="M1030.88 190.177C1019.9 196.508 1018.2 225.529 1018.73 239.249C1021.47 249.626 1026.25 264.154 1023.43 239.249C1020.61 214.343 1027.22 196.157 1030.88 190.177Z" fill="#006316"/>
<path d="M1072.69 187.559C1048.9 193.627 1045.22 221.439 1046.35 234.586C1052.3 244.531 1062.66 258.454 1056.55 234.586C1050.43 210.719 1064.76 193.29 1072.69 187.559Z" fill="#006316"/>
<path d="M1034.96 190.177C1011.17 196.245 1007.49 224.056 1008.63 237.204C1014.57 247.149 1024.94 261.071 1018.82 237.204C1012.7 213.336 1027.03 195.907 1034.96 190.177Z" fill="#006316"/>
<path d="M997.23 243.184C1003.76 215.437 999.949 199.774 997.23 195.412C1007.83 195.412 1011.51 227.26 1012.02 243.184H997.23Z" fill="#006316"/>
<path d="M1023.74 241.221C1028.69 213.093 1025.8 197.217 1023.74 192.794C1031.79 192.794 1034.57 225.078 1034.96 241.221H1023.74Z" fill="#006316"/>
<path d="M1099.2 241.221C1104.15 207.012 1101.26 187.702 1099.2 182.323C1107.24 182.323 1110.03 221.588 1110.41 241.221H1099.2Z" fill="#006316"/>
<path d="M1082.88 241.221C1079.73 213.093 1081.57 197.217 1082.88 192.794C1077.76 192.794 1075.99 225.078 1075.74 241.221H1082.88Z" fill="#006316"/>
<path d="M1101.24 241.221C1096.29 213.093 1099.17 197.217 1101.24 192.794C1093.19 192.794 1090.41 225.078 1090.02 241.221H1101.24Z" fill="#006316"/>
<path d="M1065.55 239.912C1070.5 208.744 1067.61 191.151 1065.55 186.25C1073.59 186.25 1076.38 222.025 1076.76 239.912H1065.55Z" fill="#006316"/>
<path d="M1051.27 241.221C1048.12 207.012 1049.96 187.702 1051.27 182.323C1046.15 182.323 1044.38 221.588 1044.13 241.221H1051.27Z" fill="#006316"/>
<path d="M334.048 173.162C319.772 181.015 317.563 217.007 318.243 234.022C321.812 246.892 328.032 264.91 324.361 234.022C320.69 203.134 329.289 180.578 334.048 173.162Z" fill="#006316"/>
<path d="M331.39 186.25C352.429 192.318 355.685 220.13 354.683 233.277C349.424 243.222 340.257 257.145 345.667 233.277C351.077 209.41 338.403 191.981 331.39 186.25Z" fill="#006316"/>
<path d="M317.115 188.868C306.138 195.2 304.44 224.221 304.962 237.94C307.707 248.317 312.489 262.845 309.667 237.94C306.844 213.034 313.456 194.848 317.115 188.868Z" fill="#006316"/>
<path d="M358.921 186.25C335.138 192.318 331.458 220.13 332.59 233.277C338.536 243.222 348.899 257.145 342.783 233.277C336.667 209.41 350.994 191.981 358.921 186.25Z" fill="#006316"/>
<path d="M321.194 188.868C297.411 194.936 293.73 222.748 294.863 235.895C300.808 245.84 311.171 259.763 305.055 235.895C298.94 212.027 313.266 194.599 321.194 188.868Z" fill="#006316"/>
<path d="M283.466 241.875C289.992 214.128 286.185 198.466 283.466 194.103C294.071 194.103 297.742 225.951 298.251 241.875H283.466Z" fill="#006316"/>
<path d="M386.452 186.25C377.305 192.318 375.889 220.13 376.325 233.277C378.612 243.222 382.597 257.145 380.245 233.277C377.893 209.41 383.403 191.981 386.452 186.25Z" fill="#006316"/>
<path d="M388.492 186.25C396.724 192.978 397.998 223.812 397.606 238.389C395.548 249.415 391.961 264.851 394.078 238.389C396.195 211.927 391.236 192.604 388.492 186.25Z" fill="#006316"/>
<path d="M393.59 241.221C388.189 213.093 391.34 197.217 393.59 192.794C384.814 192.794 381.776 225.078 381.354 241.221H393.59Z" fill="#006316"/>
<path d="M454.77 243.838C449.369 219.512 452.519 205.781 454.77 201.956C445.994 201.956 442.956 229.878 442.534 243.838H454.77Z" fill="#006316"/>
<path d="M367.079 242.529C372.029 208.321 369.141 189.011 367.079 183.632C375.123 183.632 377.908 222.897 378.295 242.529H367.079Z" fill="#006316"/>
<path d="M369.118 242.529C364.167 214.402 367.055 198.525 369.118 194.103C361.073 194.103 358.288 226.387 357.902 242.529H369.118Z" fill="#006316"/>
<path d="M358.921 242.529C355.771 223.525 357.609 212.797 358.921 209.809C353.802 209.809 352.03 231.623 351.784 242.529H358.921Z" fill="#006316"/>
<path d="M402.767 243.838C399.616 224.833 401.454 214.106 402.767 211.118C397.647 211.118 395.875 232.931 395.629 243.838H402.767Z" fill="#006316"/>
<path d="M410.924 243.838C407.774 215.711 409.611 199.834 410.924 195.412C405.805 195.412 404.033 227.696 403.787 243.838H410.924Z" fill="#006316"/>
<path d="M433.357 245.147C430.206 213.979 432.044 196.386 433.357 191.485C428.237 191.485 426.465 227.26 426.219 245.147H433.357Z" fill="#006316"/>
<path d="M309.978 239.912C314.928 211.785 312.04 195.908 309.978 191.485C318.022 191.485 320.807 223.77 321.194 239.912H309.978Z" fill="#006316"/>
<path d="M369.118 239.912C365.968 211.785 367.805 195.908 369.118 191.485C363.999 191.485 362.226 223.77 361.98 239.912H369.118Z" fill="#006316"/>
<path d="M351.784 238.603C356.734 207.435 353.846 189.842 351.784 184.941C359.829 184.941 362.613 220.716 363 238.603H351.784Z" fill="#006316"/>
<path d="M337.508 239.912C334.358 205.703 336.196 186.393 337.508 181.015C332.389 181.015 330.617 220.279 330.371 239.912H337.508Z" fill="#006316"/>
<path d="M482.81 174.471C468.535 182.324 466.326 218.316 467.006 235.331C470.574 248.201 476.794 266.219 473.124 235.331C469.453 204.443 478.052 181.887 482.81 174.471Z" fill="#006316"/>
<path d="M540.02 174.471C525.744 182.324 523.535 218.316 524.215 235.331C527.784 248.201 534.004 266.219 530.333 235.331C526.662 204.443 535.261 181.887 540.02 174.471Z" fill="#006316"/>
<path d="M463.947 187.559C484.985 193.627 488.241 221.439 487.24 234.586C481.98 244.531 472.813 258.454 478.223 234.586C483.633 210.719 470.96 193.29 463.947 187.559Z" fill="#006316"/>
<path d="M418.062 192.794C439.101 198.862 442.357 226.674 441.355 239.821C436.095 249.766 426.928 263.689 432.338 239.821C437.748 215.954 425.075 198.525 418.062 192.794Z" fill="#006316"/>
<path d="M569.992 188.868C591.03 194.936 594.286 222.748 593.285 235.895C588.025 245.84 578.858 259.763 584.268 235.895C589.678 212.027 577.005 194.599 569.992 188.868Z" fill="#006316"/>
<path d="M599.562 186.25C590.415 192.318 588.999 220.13 589.434 233.277C591.721 243.222 595.707 257.145 593.355 233.277C591.003 209.41 596.513 191.981 599.562 186.25Z" fill="#006316"/>
<path d="M510.851 165.309C499.874 173.619 498.176 211.71 498.698 229.716C501.442 243.336 506.225 262.404 503.403 229.716C500.58 197.028 507.192 173.158 510.851 165.309Z" fill="#006316"/>
<path d="M603.64 184.941C611.873 191.669 613.147 222.504 612.755 237.08C610.697 248.106 607.11 263.542 609.227 237.08C611.344 210.618 606.385 191.295 603.64 184.941Z" fill="#006316"/>
<path d="M554.697 188.868C530.914 194.936 527.233 222.748 528.365 235.895C534.311 245.84 544.674 259.763 538.558 235.895C532.443 212.027 546.769 194.599 554.697 188.868Z" fill="#006316"/>
<path d="M516.969 183.632C493.186 189.7 489.505 217.512 490.638 230.66C496.584 240.604 506.946 254.527 500.831 230.66C494.715 206.792 509.041 189.363 516.969 183.632Z" fill="#006316"/>
<path d="M483.83 240.566C490.356 212.819 486.549 197.157 483.83 192.794C494.435 192.794 498.105 224.642 498.615 240.566H483.83Z" fill="#006316"/>
<path d="M604.66 241.221C599.259 213.093 602.41 197.217 604.66 192.794C595.884 192.794 592.846 225.078 592.424 241.221H604.66Z" fill="#006316"/>
<path d="M505.753 242.529C510.703 214.402 507.816 198.525 505.753 194.103C513.798 194.103 516.582 226.387 516.969 242.529H505.753Z" fill="#006316"/>
<path d="M574.07 242.529C579.021 208.321 576.133 189.011 574.07 183.632C582.115 183.632 584.9 222.897 585.287 242.529H574.07Z" fill="#006316"/>
<path d="M557.756 242.529C554.605 214.402 556.443 198.525 557.756 194.103C552.636 194.103 550.864 226.387 550.618 242.529H557.756Z" fill="#006316"/>
<path d="M576.11 242.529C571.159 214.402 574.047 198.525 576.11 194.103C568.065 194.103 565.28 226.387 564.893 242.529H576.11Z" fill="#006316"/>
<path d="M565.913 242.529C562.762 223.525 564.6 212.797 565.913 209.809C560.793 209.809 559.021 231.623 558.775 242.529H565.913Z" fill="#006316"/>
<path d="M540.421 241.221C545.372 210.053 542.484 192.459 540.421 187.559C548.466 187.559 551.251 223.333 551.638 241.221H540.421Z" fill="#006316"/>
<path d="M526.146 242.529C522.996 208.321 524.833 189.011 526.146 183.632C521.027 183.632 519.255 222.897 519.008 242.529H526.146Z" fill="#006316"/>
<path d="M668.497 174.471C654.222 182.324 652.013 218.316 652.692 235.331C656.261 248.201 662.481 266.219 658.81 235.331C655.14 204.443 663.739 181.887 668.497 174.471Z" fill="#006316"/>
<path d="M599.562 186.25C620.601 192.318 623.857 220.13 622.855 233.277C617.595 243.222 608.428 257.145 613.838 233.277C619.248 209.41 606.575 191.981 599.562 186.25Z" fill="#006316"/>
<path d="M665.84 187.559C686.879 193.627 690.135 221.439 689.133 234.586C683.873 244.531 674.706 258.454 680.116 234.586C685.526 210.719 672.853 193.29 665.84 187.559Z" fill="#006316"/>
<path d="M739.256 184.941C730.108 191.009 728.693 218.821 729.128 231.968C731.415 241.913 735.401 255.836 733.048 231.968C730.696 208.101 736.206 190.672 739.256 184.941Z" fill="#006316"/>
<path d="M651.565 190.177C640.588 196.508 638.889 225.529 639.412 239.249C642.156 249.626 646.939 264.154 644.116 239.249C641.294 214.343 647.906 196.157 651.565 190.177Z" fill="#006316"/>
<path d="M741.295 184.941C749.528 191.669 750.802 222.504 750.41 237.08C748.351 248.106 744.764 263.542 746.881 237.08C748.998 210.618 744.039 191.295 741.295 184.941Z" fill="#006316"/>
<path d="M693.371 187.559C669.588 193.627 665.907 221.439 667.04 234.586C672.985 244.531 683.348 258.454 677.232 234.586C671.117 210.719 685.443 193.29 693.371 187.559Z" fill="#006316"/>
<path d="M655.643 190.177C631.86 196.245 628.18 224.056 629.312 237.204C635.258 247.149 645.62 261.071 639.505 237.204C633.389 213.336 647.716 195.907 655.643 190.177Z" fill="#006316"/>
<path d="M617.916 243.184C624.442 215.437 620.635 199.774 617.916 195.412C628.52 195.412 632.191 227.26 632.701 243.184H617.916Z" fill="#006316"/>
<path d="M746.393 239.912C740.993 211.785 744.143 195.908 746.393 191.485C737.617 191.485 734.579 223.77 734.157 239.912H746.393Z" fill="#006316"/>
<path d="M644.427 241.221C649.378 213.093 646.49 197.217 644.427 192.794C652.472 192.794 655.256 225.078 655.643 241.221H644.427Z" fill="#006316"/>
<path d="M719.882 241.221C724.833 207.012 721.945 187.702 719.882 182.323C727.927 182.323 730.712 221.588 731.098 241.221H719.882Z" fill="#006316"/>
<path d="M703.567 241.221C700.417 213.093 702.255 197.217 703.567 192.794C698.448 192.794 696.676 225.078 696.43 241.221H703.567Z" fill="#006316"/>
<path d="M721.921 241.221C716.971 213.093 719.859 197.217 721.921 192.794C713.877 192.794 711.092 225.078 710.705 241.221H721.921Z" fill="#006316"/>
<path d="M711.725 241.221C708.574 222.216 710.412 211.488 711.725 208.5C706.605 208.5 704.833 230.314 704.587 241.221H711.725Z" fill="#006316"/>
<path d="M755.57 242.529C752.42 223.525 754.258 212.797 755.57 209.809C750.451 209.809 748.679 231.623 748.433 242.529H755.57Z" fill="#006316"/>
<path d="M664.82 241.221C661.67 222.216 663.508 211.488 664.82 208.5C659.701 208.5 657.929 230.314 657.683 241.221H664.82Z" fill="#006316"/>
<path d="M686.233 239.912C691.184 208.744 688.296 191.151 686.233 186.25C694.278 186.25 697.063 222.025 697.449 239.912H686.233Z" fill="#006316"/>
<path d="M671.958 241.221C668.807 207.012 670.645 187.702 671.958 182.323C666.838 182.323 665.066 221.588 664.82 241.221H671.958Z" fill="#006316"/>
<path d="M800.034 173.162C785.758 181.015 783.549 217.007 784.229 234.022C787.798 246.892 794.018 264.91 790.347 234.022C786.676 203.134 795.275 180.578 800.034 173.162Z" fill="#006316"/>
<path d="M797.376 186.25C818.415 192.318 821.671 220.13 820.669 233.277C815.41 243.222 806.243 257.145 811.653 233.277C817.063 209.41 804.389 191.981 797.376 186.25Z" fill="#006316"/>
<path d="M783.101 188.868C772.124 195.2 770.426 224.221 770.948 237.94C773.692 248.317 778.475 262.845 775.653 237.94C772.83 213.034 779.442 194.848 783.101 188.868Z" fill="#006316"/>
<path d="M824.907 186.25C801.124 192.318 797.444 220.13 798.576 233.277C804.522 243.222 814.884 257.145 808.769 233.277C802.653 209.41 816.98 191.981 824.907 186.25Z" fill="#006316"/>
<path d="M787.18 188.868C763.397 194.936 759.716 222.748 760.849 235.895C766.794 245.84 777.157 259.763 771.041 235.895C764.926 212.027 779.252 194.599 787.18 188.868Z" fill="#006316"/>
<path d="M749.452 241.875C755.978 214.128 752.171 198.466 749.452 194.103C760.057 194.103 763.728 225.951 764.237 241.875H749.452Z" fill="#006316"/>
<path d="M852.438 186.25C843.291 192.318 841.875 220.13 842.311 233.277C844.598 243.222 848.583 257.145 846.231 233.277C843.879 209.41 849.389 191.981 852.438 186.25Z" fill="#006316"/>
<path d="M854.478 186.25C862.71 192.978 863.984 223.812 863.592 238.389C861.534 249.415 857.947 264.851 860.064 238.389C862.181 211.927 857.222 192.604 854.478 186.25Z" fill="#006316"/>
<path d="M859.576 241.221C854.175 213.093 857.326 197.217 859.576 192.794C850.8 192.794 847.762 225.078 847.34 241.221H859.576Z" fill="#006316"/>
<path d="M833.065 242.529C838.015 208.321 835.127 189.011 833.065 183.632C841.109 183.632 843.894 222.897 844.281 242.529H833.065Z" fill="#006316"/>
<path d="M835.104 242.529C830.153 214.402 833.041 198.525 835.104 194.103C827.059 194.103 824.274 226.387 823.888 242.529H835.104Z" fill="#006316"/>
<path d="M824.907 242.529C821.757 223.525 823.595 212.797 824.907 209.809C819.788 209.809 818.016 231.623 817.77 242.529H824.907Z" fill="#006316"/>
<path d="M876.91 243.838C873.76 215.711 875.597 199.834 876.91 195.412C871.791 195.412 870.019 227.696 869.772 243.838H876.91Z" fill="#006316"/>
<path d="M775.964 239.912C780.914 211.785 778.026 195.908 775.964 191.485C784.008 191.485 786.793 223.77 787.18 239.912H775.964Z" fill="#006316"/>
<path d="M835.104 239.912C831.954 211.785 833.791 195.908 835.104 191.485C829.985 191.485 828.212 223.77 827.966 239.912H835.104Z" fill="#006316"/>
<path d="M817.77 238.603C822.72 207.435 819.832 189.842 817.77 184.941C825.814 184.941 828.599 220.716 828.986 238.603H817.77Z" fill="#006316"/>
<path d="M803.494 239.912C800.344 205.703 802.182 186.393 803.494 181.015C798.375 181.015 796.603 220.279 796.357 239.912H803.494Z" fill="#006316"/>
<path d="M423.16 206.537C415.003 236.901 419.761 241.875 423.16 240.566L432.337 247.11C437.095 244.929 443.757 240.566 432.337 240.566C420.917 240.566 421.461 217.88 423.16 206.537Z" fill="#006316"/>
<path d="M903.421 186.25C894.274 192.318 892.858 220.13 893.294 233.277C895.581 243.222 899.566 257.145 897.214 233.277C894.862 209.41 900.372 191.981 903.421 186.25Z" fill="#006316"/>
<path d="M905.461 186.25C913.693 192.978 914.967 223.812 914.575 238.389C912.517 249.415 908.93 264.851 911.047 238.389C913.164 211.927 908.205 192.604 905.461 186.25Z" fill="#006316"/>
<path d="M910.559 241.221C905.158 213.093 908.309 197.217 910.559 192.794C901.783 192.794 898.745 225.078 898.323 241.221H910.559Z" fill="#006316"/>
<path d="M971.739 243.838C966.338 219.512 969.488 205.781 971.739 201.956C962.963 201.956 959.925 229.878 959.503 243.838H971.739Z" fill="#006316"/>
<path d="M884.048 242.529C888.998 208.321 886.11 189.011 884.048 183.632C892.093 183.632 894.877 222.897 895.264 242.529H884.048Z" fill="#006316"/>
<path d="M886.087 242.529C881.136 214.402 884.024 198.525 886.087 194.103C878.042 194.103 875.258 226.387 874.871 242.529H886.087Z" fill="#006316"/>
<path d="M919.736 243.838C916.586 224.833 918.423 214.106 919.736 211.118C914.617 211.118 912.844 232.931 912.598 243.838H919.736Z" fill="#006316"/>
<path d="M927.893 243.838C924.743 215.711 926.581 199.834 927.893 195.412C922.774 195.412 921.002 227.696 920.756 243.838H927.893Z" fill="#006316"/>
<path d="M950.326 245.147C947.175 213.979 949.013 196.386 950.326 191.485C945.206 191.485 943.434 227.26 943.188 245.147H950.326Z" fill="#006316"/>
<path d="M886.087 239.912C882.937 211.785 884.774 195.908 886.087 191.485C880.968 191.485 879.196 223.77 878.949 239.912H886.087Z" fill="#006316"/>
<path d="M935.031 192.794C956.07 198.862 959.326 226.674 958.324 239.821C953.064 249.766 943.897 263.689 949.307 239.821C954.717 215.954 942.044 198.525 935.031 192.794Z" fill="#006316"/>
<path d="M940.129 206.537C931.972 236.901 936.73 241.875 940.129 240.566L949.306 247.11C954.065 244.929 960.726 240.566 949.306 240.566C937.886 240.566 938.43 217.88 940.129 206.537Z" fill="#006316"/>
<path d="M460.914 207.025C473.103 234.416 470.273 240.449 467.334 240.042L461.301 248.72C457.121 247.811 451.022 245.268 460.066 242.37C469.111 239.472 464.4 217.599 460.914 207.025Z" fill="#006316"/>
<path d="M457.305 207.18C456.596 238.704 461.29 242.326 463.726 240.197L472.204 244.225C475.548 240.905 479.984 234.988 470.969 237.876C461.955 240.764 458.104 218.616 457.305 207.18Z" fill="#006316"/>
<path d="M1150.18 243.838C1144.78 219.512 1147.93 205.781 1150.18 201.956C1141.4 201.956 1138.37 229.878 1137.94 243.838H1150.18Z" fill="#006316"/>
<path d="M1178.22 174.471C1163.95 182.324 1161.74 218.316 1162.42 235.331C1165.98 248.201 1172.2 266.219 1168.53 235.331C1164.86 204.443 1173.46 181.887 1178.22 174.471Z" fill="#006316"/>
<path d="M1235.43 174.471C1221.15 182.324 1218.95 218.316 1219.62 235.331C1223.19 248.201 1229.41 266.219 1225.74 235.331C1222.07 204.443 1230.67 181.887 1235.43 174.471Z" fill="#006316"/>
<path d="M1159.36 187.559C1180.4 193.627 1183.65 221.439 1182.65 234.586C1177.39 244.531 1168.22 258.454 1173.63 234.586C1179.04 210.719 1166.37 193.29 1159.36 187.559Z" fill="#006316"/>
<path d="M1113.47 192.794C1134.51 198.862 1137.77 226.674 1136.76 239.821C1131.51 249.766 1122.34 263.689 1127.75 239.821C1133.16 215.954 1120.48 198.525 1113.47 192.794Z" fill="#006316"/>
<path d="M1265.4 188.868C1286.44 194.936 1289.7 222.748 1288.69 235.895C1283.43 245.84 1274.27 259.763 1279.68 235.895C1285.09 212.027 1272.41 194.599 1265.4 188.868Z" fill="#006316"/>
<path d="M1206.26 165.309C1195.28 173.619 1193.59 211.71 1194.11 229.716C1196.85 243.336 1201.64 262.404 1198.81 229.716C1195.99 197.028 1202.6 173.158 1206.26 165.309Z" fill="#006316"/>
<path d="M1250.11 188.868C1226.32 194.936 1222.64 222.748 1223.78 235.895C1229.72 245.84 1240.08 259.763 1233.97 235.895C1227.85 212.027 1242.18 194.599 1250.11 188.868Z" fill="#006316"/>
<path d="M1212.38 183.632C1188.6 189.7 1184.92 217.512 1186.05 230.66C1191.99 240.604 1202.36 254.527 1196.24 230.66C1190.13 206.792 1204.45 189.363 1212.38 183.632Z" fill="#006316"/>
<path d="M1179.24 240.566C1185.77 212.819 1181.96 197.157 1179.24 192.794C1189.84 192.794 1193.52 224.642 1194.03 240.566H1179.24Z" fill="#006316"/>
<path d="M1201.16 242.529C1206.11 214.402 1203.23 198.525 1201.16 194.103C1209.21 194.103 1211.99 226.387 1212.38 242.529H1201.16Z" fill="#006316"/>
<path d="M1269.48 242.529C1274.43 208.321 1271.54 189.011 1269.48 183.632C1277.53 183.632 1280.31 222.897 1280.7 242.529H1269.48Z" fill="#006316"/>
<path d="M1253.17 242.529C1250.02 214.402 1251.85 198.525 1253.17 194.103C1248.05 194.103 1246.27 226.387 1246.03 242.529H1253.17Z" fill="#006316"/>
<path d="M1271.52 242.529C1266.57 214.402 1269.46 198.525 1271.52 194.103C1263.47 194.103 1260.69 226.387 1260.3 242.529H1271.52Z" fill="#006316"/>
<path d="M1261.32 242.529C1258.17 223.525 1260.01 212.797 1261.32 209.809C1256.2 209.809 1254.43 231.623 1254.19 242.529H1261.32Z" fill="#006316"/>
<path d="M1235.83 241.221C1240.78 210.053 1237.89 192.459 1235.83 187.559C1243.88 187.559 1246.66 223.333 1247.05 241.221H1235.83Z" fill="#006316"/>
<path d="M1221.56 242.529C1218.41 208.321 1220.24 189.011 1221.56 183.632C1216.44 183.632 1214.66 222.897 1214.42 242.529H1221.56Z" fill="#006316"/>
<path d="M1118.57 206.537C1110.41 236.901 1115.17 241.875 1118.57 240.566L1127.75 247.11C1132.51 244.929 1139.17 240.566 1127.75 240.566C1116.33 240.566 1116.87 217.88 1118.57 206.537Z" fill="#006316"/>
<path d="M1156.32 207.025C1168.51 234.416 1165.68 240.449 1162.74 240.042L1156.71 248.72C1152.53 247.811 1146.43 245.268 1155.48 242.37C1164.52 239.472 1159.81 217.599 1156.32 207.025Z" fill="#006316"/>
<path d="M1152.72 207.18C1152.01 238.704 1156.7 242.326 1159.14 240.197L1167.61 244.225C1170.96 240.905 1175.39 234.988 1166.38 237.876C1157.37 240.764 1153.51 218.616 1152.72 207.18Z" fill="#006316"/>
<path d="M327.312 217.007C328.535 224.86 324.423 236.858 322.213 241.875C323.913 243.838 328.535 247.503 333.43 246.456C338.324 245.409 331.39 226.387 327.312 217.007Z" fill="#006316"/>
<path d="M412.963 213.735C414.187 221.588 410.074 233.586 407.865 238.603C409.565 240.566 414.187 244.231 419.081 243.184C423.976 242.137 417.042 223.115 412.963 213.735Z" fill="#006316"/>
<path d="M1123.81 216.353C1125.07 223.637 1120.84 234.765 1118.57 239.418C1120.32 241.239 1125.07 244.638 1130.1 243.667C1135.13 242.696 1128 225.053 1123.81 216.353Z" fill="#006316"/>
<path d="M1013.36 211.149C1013.46 210.442 1013.07 208.832 1010.67 208.051" stroke="black"/>
<ellipse rx="3.51086" ry="3.1013" transform="matrix(0.681276 -0.732027 0.771673 0.63602 1018.72 189.897)" fill="black"/>
<path d="M1018.78 204.98C1018.88 204.272 1018.48 202.662 1016.09 201.882" stroke="black"/>
<path d="M1023.86 195.857C1022.86 195.909 1020.68 195.672 1020 194.309" stroke="black"/>
<path d="M1009.05 210.519C1012.31 208.665 1019.49 202.045 1022.14 190.393C1013.59 189.599 999.017 192.512 1009.05 210.519Z" fill="#BA1616"/>
<ellipse rx="1.09207" ry="1.11222" transform="matrix(-0.103127 -0.994668 0.998662 -0.0517113 1016.21 197.313)" fill="black"/>
<ellipse rx="1.09207" ry="1.11222" transform="matrix(-0.103127 -0.994668 0.998662 -0.0517113 1016.21 197.313)" fill="black"/>
<ellipse rx="2.08814" ry="2.12668" transform="matrix(-0.103127 -0.994668 0.998662 -0.0517113 1010.85 198.503)" fill="black"/>
<ellipse rx="2.08814" ry="2.12668" transform="matrix(-0.103127 -0.994668 0.998662 -0.0517113 1010.85 198.503)" fill="black"/>
<ellipse rx="1.39426" ry="1.41999" transform="matrix(-0.103127 -0.994668 0.998662 -0.0517113 1010.52 204.021)" fill="black"/>
<ellipse rx="1.39426" ry="1.41999" transform="matrix(-0.103127 -0.994668 0.998662 -0.0517113 1010.52 204.021)" fill="black"/>
<ellipse rx="1.66937" ry="1.70018" transform="matrix(-0.103127 -0.994668 0.998662 -0.0517113 1014.18 193.166)" fill="black"/>
<ellipse rx="1.66937" ry="1.70018" transform="matrix(-0.103127 -0.994668 0.998662 -0.0517113 1014.18 193.166)" fill="black"/>
<path d="M263 100.5C273.8 142.9 254.167 214.833 243 245.5H237C239 239 263 185.5 257.5 111.5C253.1 52.3 271.333 13.1667 281 1C270.5 16.5 252.2 58.1 263 100.5Z" fill="#006316" stroke="#006316"/>
<path d="M273.364 87.4969C279.745 109.867 268.144 147.82 261.545 164H258C259.182 160.571 273.364 132.344 270.114 93.3006C267.514 62.0663 278.288 41.4192 284 35C277.795 43.1779 266.982 65.1264 273.364 87.4969Z" fill="#006316" stroke="#006316"/>
<line x1="276.285" y1="9.04234" x2="265.106" y2="36.0201" stroke="#5E3301" stroke-width="8" stroke-linecap="round"/>
<line x1="279.738" y1="43.0761" x2="271.076" y2="68.5035" stroke="#5E3301" stroke-width="8" stroke-linecap="round"/>
<path d="M278.5 160C262.5 160.4 257.5 170.833 257 176V180.5C259.8 184.1 272.5 168.333 278.5 160Z" fill="#006316" stroke="#006316" stroke-width="2"/>
<path d="M247.315 115C239.354 121.766 248.704 140.126 254.375 148.46L259.543 155.552C265.15 160.151 253.727 130.434 247.315 115Z" fill="#006316" stroke="#006316" stroke-width="2"/>
<line x1="1159.06" y1="112.707" x2="1162.84" y2="118.379" stroke="black" stroke-width="4" stroke-linecap="round"/>
<path d="M1163.28 117.152L1159.28 111.152C1169.28 94.3524 1174.45 96.819 1175.78 100.152C1176.78 102.152 1178.58 106.652 1177.78 108.652C1176.98 110.652 1167.78 115.152 1163.28 117.152Z" fill="#87C8E4"/>
<path d="M1178.78 120.652C1170.38 122.252 1165.62 119.986 1164.28 118.652L1163.28 117.152C1172.88 110.352 1177.62 110.319 1178.78 111.152C1182.28 113.652 1187.18 119.052 1178.78 120.652Z" fill="#5AAED2" stroke="#5AAED2"/>
<line x1="1161.34" y1="117.663" x2="1165.38" y2="124.357" stroke="black" stroke-width="3" stroke-linecap="round"/>
<ellipse cx="1157.28" cy="110.652" rx="2" ry="2.5" transform="rotate(-18.3363 1157.28 110.652)" fill="black"/>
<path d="M1153.28 109.152C1154.03 109.152 1155.68 109.352 1156.28 110.152" stroke="black" stroke-width="0.5"/>
<path d="M1155.28 107.152C1155.53 107.152 1156.08 107.552 1156.28 109.152" stroke="black" stroke-width="0.5"/>
</svg>
