<svg width="258" height="246" viewBox="0 0 258 246" fill="none" xmlns="http://www.w3.org/2000/svg">
<path d="M109.681 69.1505C106.307 62.8886 109.809 26.6106 111.981 9.25435C111.215 8.23339 108.914 6.80405 105.847 9.25435C102.78 11.7046 101.757 53.1555 101.629 73.5746C105.719 74.709 113.055 75.4124 109.681 69.1505Z" fill="#E1B59C" stroke="#DDB39B"/>
<path d="M148.118 68.355C151.773 62.1745 147.98 26.3676 145.626 9.23678C146.457 8.22908 148.949 6.8183 152.272 9.23678C155.595 11.6553 156.702 52.5678 156.841 72.7217C152.41 73.8414 144.463 74.5356 148.118 68.355Z" fill="#E1B59C" stroke="#DDB39B"/>
<path d="M150.863 229.988C153.441 221.775 141.964 178.704 135.903 158.195C136.572 156.814 138.914 154.64 142.932 156.996C146.951 159.352 156.651 209.147 160.999 233.75C156.547 235.917 148.286 238.2 150.863 229.988Z" fill="#E1B59C" stroke="#DDB39B"/>
<path d="M116.813 234.868C120.647 226.823 118.542 179.394 117.01 156.685C117.864 155.381 122.035 153.578 125.164 156.882C128.293 160.186 127.556 214.272 126.796 240.902C122.432 242.237 112.978 242.914 116.813 234.868Z" fill="#E1B59C" stroke="#DDB39B"/>
<ellipse cx="109.825" cy="85.5422" rx="9.92077" ry="15.5282" transform="rotate(-16.0385 109.825 85.5422)" fill="#F9F2B6"/>
<ellipse cx="149.508" cy="82.9542" rx="9.92077" ry="15.5282" transform="rotate(12.3961 149.508 82.9542)" fill="#F9F2B6"/>
<path d="M148.214 240.824H166.33C164.72 236.015 160.171 227.167 154.856 230.245C151.254 232.331 150.038 232.178 149.817 231.463L150.026 230.245C149.831 230.658 149.712 231.124 149.817 231.463L148.214 240.824Z" fill="#A34399"/>
<path d="M129.235 246H111.119C112.729 240.821 117.278 231.292 122.592 234.607C126.195 236.854 127.411 236.689 127.632 235.919L127.423 234.607C127.618 235.052 127.737 235.554 127.632 235.919L129.235 246Z" fill="#A34399"/>
<path d="M146.563 30.6256C131.179 8.21854 115.906 21.2894 110.193 30.6256C107.183 34.5974 108.939 64.2907 110.193 78.6409H149.908C150.242 33.8267 147.818 27.9581 146.563 30.6256Z" fill="black" stroke="black"/>
<path d="M146.679 30.8579C146.734 30.851 146.79 30.6199 146.79 30.5658C146.79 30.4561 146.846 30.3662 146.895 30.2736C146.982 30.1095 146.849 29.97 146.741 29.8501C146.611 29.7064 146.508 29.5441 146.367 29.4173C146.211 29.2773 146.007 29.184 145.85 29.0432C145.729 28.9345 145.551 28.7953 145.476 28.6598C145.377 28.4812 145.159 28.3854 145.059 28.2146C144.933 28.0011 144.706 27.8472 144.502 27.7138C144.255 27.5524 144.006 27.3994 143.757 27.2408C143.52 27.0897 143.226 26.8507 142.95 26.7956" stroke="black" stroke-linecap="round"/>
<path d="M142.672 25.627C142.686 25.7352 142.985 25.9438 143.076 26.0166C143.222 26.1338 143.292 26.3361 143.464 26.4339C143.553 26.4848 143.667 26.6218 143.743 26.6982C143.868 26.8227 144.035 26.9328 144.145 27.0615C144.259 27.1943 144.422 27.3471 144.564 27.4495C144.715 27.5587 144.855 27.778 145.023 27.8529C145.112 27.8925 145.23 28.0717 145.288 28.1528C145.388 28.2949 145.499 28.4257 145.621 28.5485C145.837 28.764 146.096 28.9307 146.289 29.1823C146.383 29.3047 146.535 29.4298 146.645 29.544C146.745 29.6479 146.871 29.8394 146.923 29.9737C146.983 30.1285 147.107 30.3114 147.207 30.4467C147.331 30.6139 147.412 30.8709 147.484 31.0651C147.52 31.1619 147.632 31.3197 147.569 31.4144" stroke="black" stroke-linecap="round"/>
<path d="M138.724 21.2729C141.169 23.142 146.316 27.5704 147.351 30.331" stroke="black"/>
<path d="M139.606 22.4574C139.21 22.0617 138.934 21.4591 138.428 21.2341C138.289 21.1726 138.177 21.0208 138.043 20.9825C137.945 20.9544 137.822 20.8761 137.728 20.8291C137.574 20.7522 137.481 20.5799 137.305 20.5406C137.223 20.5225 136.89 20.4344 136.844 20.377C136.782 20.2997 136.572 20.2335 136.476 20.1826C136.36 20.121 136.262 20.0552 136.126 20.0251C135.84 19.9616 135.589 19.832 135.316 19.7714C134.536 19.5981 133.865 19.2171 133.015 19.2171" stroke="black" stroke-linecap="round"/>
<path d="M115.864 61.3873C114.483 61.0422 116.439 72.7459 117.589 78.6408H121.04C119.889 73.0334 117.244 61.7324 115.864 61.3873Z" fill="#311A00" stroke="#311A00"/>
<path d="M143.255 61.3948C142.623 61.0499 143.519 72.7484 144.045 78.6409H145.626C145.099 73.0359 143.887 61.7397 143.255 61.3948Z" fill="#311A00" stroke="#311A00"/>
<path d="M125.139 57.0833C124.507 56.6521 125.402 71.2753 125.929 78.6408H127.51C126.983 71.6346 125.771 57.5144 125.139 57.0833Z" fill="#311A00" stroke="#311A00"/>
<path d="M129.452 66.5686C128.82 66.3272 129.716 74.5162 130.243 78.6409H131.823C131.296 74.7174 130.085 66.8101 129.452 66.5686Z" fill="#311A00" stroke="#311A00"/>
<path d="M140.595 70.0178C140.173 69.8454 140.77 75.6946 141.122 78.6408H142.175C141.824 75.8384 141.016 70.1903 140.595 70.0178Z" fill="#311A00" stroke="#311A00"/>
<path d="M145.626 9.62676C150.329 3.1168 159.487 -5.99713 158.491 9.62676H145.626Z" fill="#DDB39B" stroke="#DDB39B"/>
<path d="M105.525 9.62676C110.542 3.1168 120.311 -5.99713 119.248 9.62676H105.525Z" fill="#DDB39B" stroke="#DDB39B"/>
<path d="M151.665 78.6408H105.08C110.714 91.7941 113.205 120.354 113.747 132.989H147.331C143.864 115.817 148.776 89.6019 151.665 78.6408Z" fill="#F9F2B6"/>
<path d="M147.297 131.264C135.421 133.94 118.667 132.379 111.775 131.264L105.943 165.668C113.153 170.637 125.56 169.331 130.862 168.057V151.333L135.633 168.057C145.813 169.968 154.013 167.26 156.841 165.668L147.297 131.264Z" fill="#460109"/>
<path d="M245.419 59H180.197C172.743 39.6738 186.036 32.2993 193.614 31.0278C206.435 11.3626 218.088 25.0943 222.311 34.4184C231.554 32.045 234.61 40.2106 234.983 44.5901C249.295 41.5386 247.903 52.9252 245.419 59Z" fill="white" stroke="white"/>
<path d="M5.58132 111H70.8033C78.2573 88.6223 64.9644 80.0834 57.3862 78.6112C44.5655 55.8409 32.9125 71.7408 28.6886 82.5371C19.4457 79.789 16.3895 89.2439 16.0168 94.3148C1.70528 90.7815 3.09668 103.966 5.58132 111Z" fill="white" stroke="white"/>
<path d="M87 111H68.5C61.5 111 51.7 109.13 68.5 101.65C85.3 94.17 87.8334 104.767 87 111Z" fill="white" stroke="white"/>
<line x1="185" y1="56.8" x2="208" y2="56.8" stroke="#E9E9E9" stroke-width="0.4"/>
<line x1="203" y1="55.8" x2="240" y2="55.8" stroke="#E9E9E9" stroke-width="0.4"/>
<line x1="195" y1="53.8" x2="229" y2="53.8" stroke="#E9E9E9" stroke-width="0.4"/>
<line x1="231" y1="57.8" x2="243" y2="57.8" stroke="#E9E9E9" stroke-width="0.4"/>
<line y1="124.8" x2="41" y2="124.8" stroke="#EBEBEB" stroke-width="0.4"/>
<line x1="12" y1="123.8" x2="73" y2="123.8" stroke="#E2E2E2" stroke-width="0.4"/>
<line x1="46" y1="125.8" x2="74" y2="125.8" stroke="#E9E9E9" stroke-width="0.4"/>
<path d="M233.006 101.874L255.872 102.158L245.387 113.418C240.713 117.512 229.92 123.59 224.132 115.147C218.344 106.704 227.636 102.78 233.006 101.874Z" fill="#73AA6F"/>
<path d="M227.535 106.765L245.448 133.143L224.988 131.217C216.862 129.534 201.728 122.628 206.195 108.477C210.662 94.3259 222.283 101.44 227.535 106.765Z" fill="#82BF7C"/>
<ellipse cx="211.996" cy="101.516" rx="9.3239" ry="10.5671" transform="rotate(8.84558 211.996 101.516)" fill="#82BF7C"/>
<path d="M223.69 102.468L245.157 94.5873L239.372 108.844C236.464 114.334 228.543 123.859 220.127 118.031C211.711 112.204 218.996 105.228 223.69 102.468Z" fill="#659760"/>
<path d="M220.515 99.4996C220.445 99.9522 220.56 100.451 220.689 100.886C220.723 101.001 220.801 101.142 220.862 101.246C220.968 101.426 221.033 101.666 221.105 101.863C221.135 101.945 221.23 102.096 221.299 102.153C221.383 102.222 221.432 102.327 221.516 102.394C221.672 102.518 221.813 102.66 221.973 102.774C222.09 102.857 221.994 102.749 221.947 102.684C221.857 102.562 221.728 102.46 221.642 102.341C221.491 102.136 221.321 101.882 221.232 101.64C221.191 101.529 221.122 101.432 221.089 101.313C221.058 101.196 221.044 101.069 221.02 100.949C220.992 100.805 220.888 100.679 220.861 100.538C220.792 100.192 220.608 99.8505 220.332 99.6334" stroke="#82BF7C" stroke-linecap="round"/>
<path d="M202.809 104.102C203.946 102.596 203.9 99.0925 203.736 97.5289L195.815 95.3306L201.012 100.871L194.654 102.749L202.809 104.102Z" fill="#FF9900"/>
<path d="M208.913 98.6786L212.298 97.5331L212.19 98.2278C212.182 98.2793 212.161 98.3249 212.129 98.3646C212.096 98.4044 212.047 98.4349 211.98 98.4562L210.43 98.9699C210.366 98.9916 210.297 99.0086 210.224 99.021C210.153 99.0337 210.079 99.0433 210.002 99.0497C210.074 99.0793 210.141 99.1109 210.205 99.1445C210.271 99.1759 210.331 99.2129 210.385 99.2556L211.706 100.216C211.763 100.257 211.801 100.301 211.82 100.349C211.839 100.396 211.844 100.447 211.836 100.501L211.728 101.196L208.852 99.0723L208.913 98.6786Z" fill="black"/>
<path d="M254.851 147.503L242.384 128.577L240.562 130.181C248.417 145.998 253.361 148.319 254.851 147.503Z" fill="#257300"/>
<path d="M251.975 149.525L241.703 129.324L239.713 130.714C245.749 147.31 250.403 150.17 251.975 149.525Z" fill="#2B8700"/>
<path d="M248.368 151.281L240.455 130.045L238.32 131.2C242.435 148.374 246.733 151.743 248.368 151.281Z" fill="#329B00"/>
</svg>
