<svg width="107" height="226" viewBox="0 0 107 226" fill="none" xmlns="http://www.w3.org/2000/svg">
<path d="M10.9367 181.2C8.61672 181.2 6.57672 181.04 4.81672 180.72C3.05672 180.48 1.53672 180.2 0.256719 179.88V164.76C1.53672 165.08 2.89672 165.36 4.33672 165.6C5.69672 165.84 7.17672 165.96 8.77672 165.96C10.8567 165.96 12.7367 165.56 14.4167 164.76C16.1767 163.96 17.5367 162.44 18.4967 160.2C19.4567 157.96 19.9367 154.76 19.9367 150.6V70.32H38.0567V150.48C38.0567 157.84 36.8967 163.76 34.5767 168.24C32.3367 172.8 29.1767 176.08 25.0967 178.08C21.0167 180.16 16.2967 181.2 10.9367 181.2Z" fill="white"/>
<path d="M95.9514 147H72.9114L35.5914 82.2H35.1114C35.1914 84.2 35.2714 86.24 35.3514 88.32C35.4314 90.32 35.5114 92.36 35.5914 94.44C35.7514 96.44 35.8714 98.48 35.9514 100.56C36.0314 102.56 36.1114 104.6 36.1914 106.68V147H19.9914V61.32H42.9114L80.1114 125.52H80.4714C80.3914 123.52 80.3114 121.56 80.2314 119.64C80.1514 117.64 80.0714 115.68 79.9914 113.76C79.9914 111.76 79.9514 109.8 79.8714 107.88C79.7914 105.88 79.7114 103.88 79.6314 101.88V61.32H95.9514V147Z" fill="white"/>
</svg>
