<svg width="440" height="439" viewBox="0 0 440 439" fill="none" xmlns="http://www.w3.org/2000/svg">
<path d="M222.188 69.12C222.188 70.48 221.988 71.6 221.588 72.48C221.208 73.36 220.658 74.07 219.938 74.61C219.238 75.15 218.328 75.63 217.208 76.05L216.458 74.07C217.278 73.67 217.888 73.26 218.288 72.84C218.708 72.44 218.998 71.95 219.158 71.37C219.318 70.77 219.398 69.98 219.398 69L219.398 51.36H222.188L222.188 69.12Z" fill="white"/>
<path d="M238.226 64.4979C238.193 64.9165 238.135 65.3834 238.053 65.8985L228.903 65.1598C228.835 67.0003 229.096 68.3558 229.688 69.2262C230.282 70.0767 231.147 70.5478 232.283 70.6396C233.001 70.6975 233.647 70.6394 234.223 70.4651C234.819 70.2925 235.446 69.982 236.104 69.5335L237.172 71.2149C235.591 72.4115 233.863 72.9342 231.989 72.7829C229.936 72.6171 228.398 71.7807 227.376 70.2736C226.376 68.7481 225.979 66.6996 226.187 64.1279C226.395 61.5563 227.097 59.5664 228.294 58.1581C229.493 56.73 231.049 56.0931 232.963 56.2476C234.857 56.4005 236.258 57.1958 237.165 58.6335C238.074 60.0512 238.428 62.006 238.226 64.4979ZM235.69 63.4805C235.956 60.1912 235.002 58.4589 232.829 58.2834C231.832 58.203 231.011 58.558 230.365 59.3486C229.721 60.1193 229.284 61.4284 229.055 63.2759L235.663 63.8094L235.69 63.4805Z" fill="white"/>
<path d="M245.964 57.8378C247.76 58.1298 249.263 58.9819 250.472 60.3941L249.092 61.7807C248.531 61.2437 247.991 60.8217 247.474 60.5148C246.956 60.2078 246.392 60.0046 245.78 59.9051C244.97 59.7736 244.297 59.8667 243.759 60.1845C243.244 60.4858 242.932 60.9721 242.823 61.6433C242.717 62.2947 242.85 62.8433 243.224 63.2889C243.617 63.7378 244.403 64.2607 245.583 64.8576C247.062 65.6046 248.099 66.3912 248.694 67.2174C249.29 68.0435 249.486 69.0785 249.284 70.3221C249.047 71.783 248.326 72.8512 247.122 73.5268C245.921 74.1827 244.521 74.3807 242.922 74.1208C240.81 73.7776 239.137 72.7864 237.904 71.1474L239.507 69.8882C240.587 71.0971 241.818 71.8138 243.2 72.0384C244.069 72.1796 244.805 72.0763 245.408 71.7286C246.012 71.3809 246.376 70.8222 246.501 70.0523C246.591 69.4995 246.565 69.0393 246.422 68.6716C246.299 68.3071 246.011 67.9565 245.559 67.6197C245.13 67.2663 244.476 66.8661 243.596 66.4192C242.196 65.6851 241.226 64.9196 240.687 64.1228C240.148 63.326 239.965 62.3946 240.138 61.3286C240.273 60.4995 240.611 59.7945 241.151 59.2136C241.691 58.6327 242.376 58.2173 243.207 57.9673C244.038 57.7174 244.957 57.6742 245.964 57.8378Z" fill="white"/>
<path d="M258.863 60.48C260.63 60.9156 262.059 61.8858 263.151 63.3908L261.663 64.6618C261.147 64.0814 260.644 63.6174 260.152 63.2698C259.661 62.9221 259.115 62.6741 258.513 62.5258C257.717 62.3295 257.038 62.3682 256.476 62.6417C255.938 62.9005 255.588 63.3601 255.425 64.0203C255.267 64.6612 255.357 65.2187 255.693 65.6929C256.049 66.172 256.79 66.7565 257.918 67.4464C259.332 68.31 260.303 69.1775 260.83 70.0488C261.357 70.9202 261.469 71.9676 261.168 73.191C260.813 74.628 260.009 75.6348 258.755 76.2113C257.505 76.7684 256.094 76.8532 254.521 76.4655C252.443 75.9533 250.856 74.8308 249.758 73.0979L251.457 71.9717C252.437 73.2636 253.606 74.0771 254.965 74.4121C255.82 74.6227 256.562 74.579 257.191 74.2811C257.821 73.9831 258.229 73.4554 258.416 72.6981C258.55 72.1544 258.56 71.6935 258.447 71.3155C258.354 70.9423 258.096 70.5697 257.672 70.1976C257.273 69.8108 256.653 69.3593 255.813 68.8431C254.476 67.9987 253.571 67.1576 253.097 66.32C252.624 65.4824 252.517 64.5393 252.775 63.4907C252.976 62.6751 253.369 61.9995 253.954 61.464C254.54 60.9285 255.256 60.5696 256.105 60.3873C256.953 60.205 257.872 60.2359 258.863 60.48Z" fill="white"/>
<path d="M272.562 64.9151L267.565 79.883L265.004 79.028L270.001 64.0601L272.562 64.9151ZM273.637 57.4305C274.13 57.5952 274.475 57.8894 274.671 58.3133C274.886 58.7435 274.914 59.1957 274.756 59.6699C274.597 60.1442 274.312 60.4919 273.901 60.7131C273.496 60.9153 273.038 60.9309 272.526 60.7599C272.032 60.5952 271.675 60.3073 271.454 59.8961C271.258 59.4723 271.239 59.0232 271.398 58.5489C271.556 58.0747 271.841 57.7269 272.252 57.5058C272.682 57.2909 273.144 57.2659 273.637 57.4305Z" fill="white"/>
<path d="M286.103 69.8038C286.876 70.1331 287.529 70.5637 288.063 71.0957C288.598 71.6276 289.046 72.2858 289.407 73.0703L287.668 74.0903C287.375 73.5525 287.044 73.1068 286.673 72.7531C286.309 72.3809 285.87 72.0851 285.355 71.8656C284.269 71.4031 283.227 71.5025 282.228 72.1637C281.247 72.8329 280.341 74.1426 279.51 76.093C277.958 79.7361 278.323 82.0437 280.604 83.0158C281.119 83.2353 281.624 83.3524 282.118 83.3671C282.619 83.3634 283.184 83.2887 283.811 83.1429L284.324 85.1547C282.691 85.7202 281.13 85.6854 279.64 85.0504C277.781 84.2587 276.593 82.9915 276.074 81.2488C275.574 79.514 275.842 77.4322 276.877 75.0035C277.551 73.4211 278.374 72.1522 279.346 71.1969C280.337 70.2494 281.407 69.651 282.557 69.4017C283.725 69.1602 284.907 69.2943 286.103 69.8038Z" fill="white"/>
<path d="M295.089 88.3532C294.791 88.9199 294.648 89.3867 294.659 89.7537C294.679 90.103 294.82 90.4368 295.082 90.755L293.727 92.1105C293.092 91.6418 292.663 91.1458 292.441 90.6226C292.219 90.0993 292.2 89.4683 292.384 88.7294C290.738 89.6721 289.1 89.7159 287.47 88.8608C286.231 88.2102 285.448 87.3136 285.121 86.171C284.804 85.0108 284.985 83.7842 285.663 82.4915C286.444 81.0039 287.526 80.1261 288.909 79.8581C290.292 79.5901 291.886 79.9301 293.693 80.8782L295.499 81.8262L296.126 80.6308C296.638 79.6568 296.801 78.8504 296.617 78.2116C296.46 77.5644 295.929 77.0038 295.026 76.5298C294.052 76.0186 292.789 75.6717 291.236 75.489L291.53 73.5088C293.423 73.6892 295.042 74.1326 296.388 74.839C299.416 76.4283 300.136 78.7371 298.546 81.7654L295.089 88.3532ZM288.976 87.3472C290.216 87.9979 291.544 87.769 292.962 86.6608L294.69 83.3669L293.15 82.5583C290.848 81.35 289.19 81.711 288.177 83.6413C287.74 84.4736 287.591 85.2087 287.731 85.8466C287.87 86.4846 288.286 86.9848 288.976 87.3472Z" fill="white"/>
<path d="M314.243 106.011L311.365 103.848L316.14 85.2583C314.746 87.5131 313.298 89.6397 311.797 91.6383L305.777 99.6487L303.762 98.1349L316.162 81.6344L319.016 83.779L314.247 102.411C314.603 101.803 315.108 100.981 315.761 99.946C316.43 98.9226 317.125 97.9313 317.846 96.9719L324.604 87.9782L326.642 89.5101L314.243 106.011Z" fill="white"/>
<path d="M333.441 102.882C332.572 102.566 331.464 101.811 330.117 100.617C330.817 102.36 330.531 103.95 329.258 105.387C328.21 106.57 326.987 107.197 325.588 107.267C324.218 107.336 322.897 106.806 321.624 105.679C321.145 105.255 320.778 104.795 320.521 104.301C319.837 104.229 319.289 104.425 318.878 104.889C318.254 105.592 318.437 106.382 319.425 107.257L320.974 108.63C322.142 109.664 322.805 110.786 322.963 111.995C323.134 113.189 322.815 114.242 322.006 115.156C321.025 116.263 319.829 116.754 318.419 116.626C316.995 116.514 315.46 115.729 313.813 114.27C312.107 112.758 311.153 111.392 310.951 110.171C310.765 108.964 311.202 107.762 312.263 106.564L314.082 108.175C313.645 108.669 313.382 109.132 313.295 109.562C313.209 110.021 313.309 110.496 313.594 110.989C313.88 111.51 314.405 112.109 315.169 112.785C316.232 113.727 317.141 114.239 317.897 114.32C318.653 114.402 319.302 114.136 319.846 113.522C320.35 112.953 320.54 112.347 320.416 111.703C320.307 111.072 319.901 110.445 319.197 109.821L317.872 108.648C316.839 107.732 316.241 106.855 316.077 106.015C315.926 105.16 316.142 104.403 316.726 103.744C317.402 102.98 318.417 102.664 319.771 102.795C319.461 101.878 319.387 101.011 319.55 100.194C319.741 99.3749 320.182 98.5761 320.871 97.7976C321.959 96.5701 323.224 95.9268 324.665 95.868C326.107 95.8091 327.464 96.3433 328.736 97.4707C329.919 98.5184 330.905 99.2451 331.695 99.6507C332.499 100.07 333.398 100.412 334.392 100.678L333.441 102.882ZM327.505 98.9052C326.772 98.2554 326.005 97.9901 325.204 98.1093C324.432 98.2269 323.662 98.7198 322.892 99.588C322.15 100.426 321.761 101.257 321.726 102.081C321.719 102.904 322.067 103.626 322.771 104.25C324.253 105.563 325.789 105.321 327.381 103.524C328.15 102.656 328.547 101.832 328.57 101.051C328.594 100.27 328.239 99.5551 327.505 98.9052Z" fill="white"/>
<path d="M344.769 118.459C345.313 119.126 345.531 119.851 345.424 120.636C345.329 121.437 344.948 122.109 344.282 122.653C343.616 123.197 342.881 123.435 342.077 123.368C341.302 123.304 340.642 122.939 340.099 122.273C339.555 121.607 339.33 120.873 339.425 120.073C339.52 119.272 339.901 118.6 340.567 118.056C341.233 117.512 341.96 117.28 342.748 117.36C343.552 117.427 344.226 117.793 344.769 118.459Z" fill="white"/>
<path d="M351.103 146.504C349.925 147.184 348.855 147.571 347.893 147.665C346.941 147.775 346.051 147.654 345.223 147.301C344.406 146.964 343.535 146.416 342.611 145.656L343.951 144.017C344.707 144.527 345.367 144.85 345.931 144.987C346.488 145.15 347.057 145.157 347.639 145.005C348.239 144.844 348.963 144.518 349.812 144.028L365.088 135.208L366.483 137.624L351.103 146.504Z" fill="white"/>
<path d="M362.904 157.954C362.525 158.134 362.091 158.318 361.604 158.504L357.669 150.211C356.041 151.072 354.998 151.976 354.54 152.924C354.1 153.863 354.125 154.848 354.613 155.878C354.922 156.528 355.296 157.059 355.735 157.471C356.182 157.901 356.764 158.288 357.482 158.634L356.56 160.4C354.733 159.629 353.416 158.394 352.61 156.695C351.727 154.834 351.683 153.084 352.477 151.446C353.298 149.817 354.874 148.449 357.205 147.343C359.536 146.237 361.61 145.85 363.428 146.183C365.265 146.507 366.594 147.536 367.417 149.271C368.232 150.988 368.243 152.598 367.452 154.103C366.679 155.599 365.163 156.882 362.904 157.954ZM362.517 155.249C365.498 153.834 366.522 152.142 365.587 150.173C365.158 149.269 364.44 148.735 363.433 148.572C362.443 148.399 361.091 148.675 359.377 149.401L362.219 155.39L362.517 155.249Z" fill="white"/>
<path d="M372.54 161.325C373.186 163.027 373.199 164.754 372.581 166.507L370.69 166.005C370.874 165.251 370.97 164.573 370.977 163.971C370.984 163.37 370.878 162.779 370.658 162.199C370.367 161.432 369.95 160.896 369.406 160.589C368.887 160.293 368.31 160.266 367.674 160.507C367.057 160.741 366.649 161.131 366.45 161.678C366.257 162.242 366.198 163.185 366.271 164.505C366.363 166.159 366.201 167.451 365.783 168.38C365.365 169.308 364.567 169.996 363.389 170.443C362.005 170.967 360.72 170.877 359.532 170.173C358.364 169.461 357.493 168.347 356.918 166.833C356.159 164.832 356.181 162.887 356.984 161L358.876 161.758C358.369 163.298 358.364 164.723 358.86 166.032C359.173 166.855 359.63 167.44 360.233 167.789C360.836 168.138 361.502 168.174 362.231 167.898C362.755 167.699 363.14 167.446 363.387 167.139C363.641 166.85 363.801 166.425 363.867 165.866C363.958 165.318 363.978 164.551 363.925 163.566C363.861 161.986 364.039 160.763 364.459 159.898C364.88 159.032 365.595 158.408 366.605 158.025C367.39 157.727 368.169 157.667 368.942 157.845C369.716 158.022 370.418 158.408 371.05 159.002C371.682 159.597 372.179 160.371 372.54 161.325Z" fill="white"/>
<path d="M376.702 173.816C377.208 175.565 377.082 177.288 376.325 178.985L374.48 178.333C374.725 177.596 374.875 176.927 374.931 176.328C374.986 175.729 374.928 175.132 374.755 174.536C374.527 173.749 374.154 173.18 373.636 172.83C373.143 172.494 372.57 172.421 371.917 172.61C371.283 172.794 370.845 173.15 370.602 173.678C370.365 174.226 370.23 175.16 370.196 176.482C370.156 178.138 369.89 179.413 369.398 180.305C368.907 181.196 368.056 181.818 366.846 182.168C365.425 182.58 364.151 182.387 363.024 181.589C361.917 180.785 361.138 179.605 360.687 178.049C360.092 175.994 360.27 174.058 361.222 172.241L363.047 173.149C362.418 174.643 362.298 176.063 362.687 177.407C362.932 178.253 363.341 178.873 363.914 179.27C364.487 179.666 365.148 179.755 365.897 179.538C366.435 179.383 366.839 179.161 367.11 178.875C367.387 178.607 367.58 178.197 367.691 177.645C367.826 177.106 367.907 176.343 367.934 175.357C367.997 173.777 368.273 172.572 368.761 171.744C369.25 170.915 370.013 170.35 371.051 170.05C371.857 169.816 372.639 169.819 373.395 170.058C374.152 170.297 374.821 170.738 375.403 171.382C375.985 172.025 376.418 172.837 376.702 173.816Z" fill="white"/>
<path d="M379.71 187.898L364.249 191.054L363.709 188.409L379.17 185.252L379.71 187.898ZM386.73 185.087C386.834 185.596 386.752 186.042 386.482 186.423C386.217 186.825 385.84 187.075 385.35 187.175C384.86 187.275 384.416 187.202 384.019 186.957C383.642 186.707 383.399 186.318 383.291 185.789C383.187 185.28 383.258 184.826 383.503 184.429C383.772 184.048 384.152 183.807 384.642 183.707C385.132 183.607 385.575 183.679 385.972 183.925C386.373 184.19 386.626 184.577 386.73 185.087Z" fill="white"/>
<path d="M382.247 202.069C382.349 202.903 382.302 203.684 382.109 204.413C381.915 205.142 381.569 205.859 381.07 206.564L379.318 205.568C379.637 205.046 379.857 204.535 379.978 204.037C380.119 203.536 380.155 203.008 380.088 202.452C379.945 201.281 379.338 200.428 378.266 199.893C377.196 199.378 375.609 199.249 373.504 199.504C369.573 199.982 367.757 201.451 368.056 203.913C368.124 204.469 368.274 204.965 368.509 205.399C368.763 205.832 369.109 206.284 369.549 206.754L368.063 208.204C366.757 207.073 366.007 205.703 365.812 204.095C365.568 202.09 366.071 200.427 367.321 199.107C368.574 197.806 370.51 196.997 373.131 196.679C374.839 196.471 376.349 196.55 377.663 196.914C378.978 197.298 380.032 197.926 380.822 198.797C381.616 199.688 382.091 200.779 382.247 202.069Z" fill="white"/>
<path d="M370.676 219.126C370.037 219.152 369.561 219.261 369.248 219.454C368.956 219.646 368.737 219.935 368.592 220.321L366.741 219.825C366.829 219.041 367.045 218.422 367.387 217.967C367.729 217.513 368.266 217.181 368.998 216.972C367.358 216.017 366.501 214.62 366.427 212.782C366.371 211.383 366.756 210.257 367.582 209.403C368.428 208.548 369.581 208.091 371.04 208.032C372.718 207.965 374.019 208.463 374.943 209.526C375.866 210.59 376.369 212.141 376.451 214.179L376.534 216.218L377.883 216.163C378.982 216.119 379.762 215.857 380.223 215.378C380.705 214.919 380.925 214.179 380.884 213.16C380.84 212.061 380.508 210.793 379.89 209.357L381.752 208.621C382.542 210.351 382.968 211.975 383.029 213.494C383.167 216.911 381.527 218.689 378.11 218.826L370.676 219.126ZM368.491 213.329C368.547 214.728 369.41 215.764 371.078 216.438L374.795 216.288L374.725 214.549C374.62 211.951 373.479 210.696 371.301 210.784C370.361 210.822 369.65 211.061 369.168 211.5C368.685 211.94 368.459 212.55 368.491 213.329Z" fill="white"/>
<path d="M364.961 244.543L365.395 240.969L383.882 235.81C381.232 235.73 378.667 235.539 376.185 235.238L366.238 234.03L366.542 231.528L387.031 234.016L386.601 237.56L368.081 242.746C368.785 242.75 369.749 242.777 370.972 242.825C372.193 242.892 373.399 242.998 374.59 243.143L385.758 244.499L385.451 247.031L364.961 244.543Z" fill="white"/>
<path d="M377.27 259.604C377.109 258.694 377.209 257.357 377.569 255.593C376.41 257.071 374.89 257.618 373.008 257.234C371.46 256.918 370.306 256.172 369.546 254.996C368.801 253.844 368.599 252.435 368.939 250.769C369.067 250.142 369.281 249.594 369.581 249.125C369.301 248.496 368.858 248.12 368.25 247.996C367.329 247.808 366.737 248.36 366.473 249.654L366.059 251.682C365.747 253.21 365.107 254.345 364.139 255.086C363.19 255.832 362.119 256.083 360.923 255.839C359.473 255.542 358.451 254.752 357.856 253.467C357.241 252.178 357.154 250.456 357.594 248.3C358.05 246.066 358.756 244.557 359.712 243.772C360.665 243.007 361.925 242.785 363.492 243.105L363.006 245.486C362.36 245.354 361.828 245.358 361.412 245.497C360.972 245.652 360.61 245.976 360.325 246.47C360.017 246.978 359.761 247.732 359.557 248.732C359.273 250.123 359.285 251.166 359.592 251.862C359.899 252.557 360.454 252.987 361.258 253.151C362.002 253.303 362.623 253.164 363.118 252.735C363.61 252.325 363.95 251.66 364.138 250.739L364.492 249.004C364.769 247.652 365.229 246.695 365.875 246.133C366.54 245.575 367.304 245.383 368.166 245.559C369.165 245.763 369.947 246.484 370.511 247.722C371.149 246.995 371.863 246.498 372.652 246.23C373.457 245.987 374.369 245.969 375.388 246.177C376.995 246.505 378.184 247.278 378.956 248.497C379.728 249.716 379.944 251.159 379.604 252.824C379.288 254.372 379.152 255.59 379.195 256.476C379.235 257.382 379.388 258.332 379.654 259.326L377.27 259.604ZM377.746 252.476C377.942 251.515 377.788 250.718 377.285 250.085C376.797 249.475 375.985 249.054 374.848 248.822C373.751 248.598 372.837 248.677 372.106 249.058C371.39 249.463 370.938 250.126 370.75 251.047C370.354 252.987 371.332 254.197 373.683 254.677C374.82 254.909 375.732 254.841 376.42 254.471C377.108 254.101 377.55 253.436 377.746 252.476Z" fill="white"/>
<path d="M369.444 277.204C369.139 278.008 368.619 278.56 367.885 278.859C367.145 279.177 366.372 279.183 365.568 278.878C364.764 278.573 364.19 278.056 363.846 277.327C363.514 276.624 363.501 275.87 363.805 275.066C364.11 274.261 364.633 273.7 365.374 273.383C366.115 273.065 366.888 273.058 367.692 273.363C368.496 273.668 369.06 274.182 369.385 274.904C369.729 275.633 369.749 276.4 369.444 277.204Z" fill="white"/>
<path d="M348.323 296.711C347.145 296.031 346.275 295.298 345.713 294.511C345.141 293.742 344.801 292.911 344.693 292.017C344.575 291.141 344.615 290.113 344.811 288.933L346.901 289.274C346.837 290.184 346.887 290.917 347.051 291.474C347.187 292.037 347.467 292.533 347.889 292.962C348.329 293.401 348.973 293.865 349.821 294.355L365.098 303.175L363.703 305.591L348.323 296.711Z" fill="white"/>
<path d="M344.307 312.656C343.962 312.418 343.586 312.134 343.181 311.806L348.396 304.251C346.836 303.271 345.531 302.82 344.482 302.898C343.448 302.987 342.608 303.5 341.96 304.438C341.551 305.031 341.278 305.62 341.141 306.206C340.993 306.808 340.948 307.506 341.007 308.301L339.017 308.385C338.772 306.417 339.183 304.66 340.251 303.112C341.421 301.417 342.914 300.504 344.73 300.372C346.552 300.268 348.524 300.949 350.647 302.415C352.771 303.88 354.143 305.484 354.764 307.225C355.401 308.977 355.175 310.643 354.084 312.223C353.005 313.787 351.616 314.602 349.917 314.669C348.235 314.747 346.365 314.076 344.307 312.656ZM346.457 310.968C349.172 312.843 351.15 312.883 352.388 311.089C352.956 310.266 353.059 309.377 352.697 308.423C352.352 307.48 351.437 306.447 349.951 305.325L346.185 310.781L346.457 310.968Z" fill="white"/>
<path d="M346.206 322.687C345.055 324.097 343.566 324.972 341.739 325.313L341.228 323.425C341.973 323.207 342.609 322.951 343.133 322.656C343.658 322.362 344.116 321.974 344.508 321.494C345.027 320.859 345.283 320.229 345.277 319.604C345.273 319.007 345.008 318.494 344.481 318.064C343.97 317.647 343.428 317.488 342.856 317.589C342.27 317.705 341.424 318.124 340.318 318.847C338.931 319.755 337.731 320.26 336.718 320.362C335.705 320.465 334.711 320.117 333.735 319.32C332.588 318.384 332.023 317.226 332.04 315.846C332.073 314.478 332.601 313.166 333.626 311.912C334.979 310.254 336.674 309.301 338.71 309.053L338.999 311.07C337.412 311.401 336.176 312.109 335.29 313.193C334.734 313.875 334.455 314.564 334.454 315.261C334.454 315.957 334.755 316.552 335.36 317.045C335.793 317.4 336.205 317.607 336.595 317.667C336.972 317.742 337.42 317.669 337.937 317.446C338.458 317.251 339.131 316.885 339.958 316.346C341.294 315.501 342.442 315.043 343.402 314.975C344.361 314.906 345.26 315.214 346.096 315.897C346.747 316.428 347.189 317.073 347.422 317.831C347.655 318.589 347.672 319.391 347.473 320.235C347.274 321.08 346.852 321.897 346.206 322.687Z" fill="white"/>
<path d="M337.469 332.536C336.208 333.849 334.653 334.602 332.804 334.795L332.447 332.871C333.208 332.714 333.861 332.51 334.408 332.259C334.954 332.007 335.442 331.658 335.872 331.211C336.44 330.619 336.746 330.012 336.79 329.389C336.835 328.794 336.612 328.261 336.121 327.79C335.645 327.332 335.118 327.131 334.539 327.185C333.946 327.253 333.069 327.604 331.908 328.235C330.453 329.028 329.216 329.435 328.198 329.456C327.18 329.476 326.217 329.05 325.308 328.177C324.241 327.152 323.771 325.952 323.899 324.577C324.041 323.217 324.674 321.952 325.796 320.784C327.278 319.24 329.044 318.427 331.093 318.343L331.219 320.377C329.611 320.579 328.322 321.185 327.352 322.195C326.742 322.83 326.409 323.494 326.352 324.188C326.296 324.883 326.549 325.5 327.111 326.04C327.515 326.428 327.909 326.668 328.293 326.759C328.662 326.865 329.114 326.827 329.648 326.647C330.183 326.495 330.884 326.184 331.751 325.713C333.151 324.978 334.332 324.615 335.294 324.624C336.256 324.633 337.126 325.011 337.905 325.759C338.511 326.341 338.899 327.019 339.071 327.794C339.242 328.568 339.194 329.369 338.928 330.194C338.662 331.02 338.175 331.801 337.469 332.536Z" fill="white"/>
<path d="M326.779 342.183L316.314 330.371L318.335 328.581L328.8 340.392L326.779 342.183ZM332.723 346.857C332.333 347.201 331.906 347.353 331.441 347.31C330.961 347.281 330.556 347.08 330.224 346.705C329.892 346.331 329.734 345.911 329.748 345.444C329.775 344.992 329.991 344.587 330.395 344.229C330.784 343.884 331.212 343.719 331.679 343.733C332.144 343.775 332.542 343.984 332.874 344.358C333.205 344.732 333.364 345.153 333.35 345.619C333.321 346.099 333.112 346.512 332.723 346.857Z" fill="white"/>
<path d="M315.774 351.466C315.103 351.97 314.403 352.321 313.675 352.518C312.947 352.714 312.153 352.773 311.293 352.694L311.279 350.678C311.891 350.693 312.443 350.629 312.935 350.484C313.439 350.356 313.915 350.123 314.363 349.787C315.306 349.078 315.741 348.126 315.668 346.93C315.579 345.746 314.898 344.306 313.624 342.612C311.245 339.446 309.064 338.608 307.082 340.098C306.634 340.434 306.28 340.812 306.021 341.233C305.773 341.669 305.556 342.195 305.368 342.811L303.37 342.249C303.696 340.553 304.507 339.218 305.802 338.245C307.417 337.031 309.108 336.636 310.877 337.058C312.629 337.492 314.298 338.765 315.884 340.875C316.918 342.251 317.605 343.598 317.946 344.918C318.271 346.249 318.254 347.475 317.896 348.596C317.521 349.728 316.813 350.685 315.774 351.466Z" fill="white"/>
<path d="M295.217 349.973C294.875 349.432 294.542 349.074 294.219 348.9C293.907 348.743 293.547 348.698 293.14 348.766L292.644 346.915C293.367 346.599 294.011 346.476 294.576 346.545C295.14 346.614 295.696 346.913 296.243 347.443C296.25 345.545 297.031 344.105 298.587 343.121C299.77 342.373 300.938 342.143 302.091 342.432C303.254 342.737 304.226 343.507 305.006 344.741C305.904 346.161 306.123 347.537 305.664 348.868C305.205 350.2 304.113 351.411 302.389 352.501L300.664 353.592L301.386 354.733C301.974 355.662 302.59 356.207 303.236 356.367C303.875 356.554 304.625 356.376 305.488 355.83C306.417 355.243 307.349 354.322 308.284 353.068L309.852 354.313C308.749 355.862 307.556 357.043 306.271 357.855C303.38 359.683 301.021 359.152 299.193 356.261L295.217 349.973ZM299.144 345.182C297.961 345.93 297.495 347.195 297.746 348.977L299.734 352.121L301.205 351.191C303.403 349.802 303.919 348.185 302.754 346.343C302.251 345.548 301.689 345.052 301.067 344.854C300.444 344.656 299.804 344.765 299.144 345.182Z" fill="white"/>
<path d="M270.348 357.732L273.66 356.321L287.371 369.751C286.116 367.417 284.998 365.099 284.018 362.8L280.091 353.581L282.409 352.594L290.499 371.582L287.215 372.981L273.464 359.535C273.812 360.148 274.271 360.996 274.841 362.079C275.393 363.17 275.904 364.267 276.375 365.371L280.784 375.721L278.438 376.721L270.348 357.732Z" fill="white"/>
<path d="M263.459 375.923C264.167 375.328 265.375 374.746 267.082 374.176C265.222 373.911 263.989 372.868 263.381 371.047C262.88 369.548 262.949 368.176 263.587 366.93C264.213 365.709 265.332 364.829 266.945 364.291C267.552 364.088 268.133 363.999 268.69 364.024C269.095 363.467 269.199 362.895 269.002 362.307C268.705 361.415 267.93 361.178 266.678 361.596L264.714 362.252C263.235 362.746 261.932 362.759 260.806 362.292C259.686 361.843 258.933 361.04 258.547 359.883C258.078 358.479 258.251 357.198 259.067 356.041C259.876 354.864 261.324 353.927 263.41 353.231C265.573 352.509 267.233 352.366 268.391 352.801C269.529 353.244 270.352 354.223 270.859 355.741L268.554 356.511C268.345 355.885 268.076 355.426 267.747 355.135C267.392 354.832 266.931 354.68 266.361 354.681C265.767 354.668 264.986 354.824 264.018 355.147C262.671 355.596 261.774 356.128 261.325 356.742C260.876 357.355 260.782 358.051 261.041 358.829C261.282 359.55 261.712 360.018 262.332 360.232C262.933 360.453 263.679 360.415 264.571 360.118L266.25 359.557C267.559 359.12 268.618 359.04 269.428 359.318C270.244 359.615 270.791 360.181 271.07 361.016C271.393 361.983 271.159 363.021 270.369 364.128C271.318 364.317 272.106 364.687 272.732 365.237C273.346 365.812 273.817 366.593 274.147 367.579C274.666 369.135 274.591 370.552 273.921 371.829C273.251 373.107 272.11 374.015 270.497 374.554C268.999 375.054 267.876 375.545 267.13 376.026C266.365 376.513 265.619 377.121 264.892 377.848L263.459 375.923ZM269.87 372.77C270.8 372.46 271.413 371.929 271.71 371.176C271.994 370.448 271.953 369.535 271.586 368.434C271.231 367.372 270.706 366.619 270.01 366.177C269.301 365.76 268.501 365.7 267.609 365.998C265.731 366.625 265.172 368.077 265.932 370.353C266.3 371.453 266.815 372.209 267.48 372.62C268.144 373.031 268.941 373.081 269.87 372.77Z" fill="white"/>
<path d="M244.304 377.945C243.455 378.083 242.717 377.909 242.091 377.423C241.446 376.94 241.054 376.274 240.916 375.426C240.778 374.577 240.939 373.821 241.398 373.159C241.842 372.519 242.488 372.131 243.336 371.993C244.185 371.855 244.933 372.027 245.578 372.51C246.224 372.993 246.616 373.658 246.754 374.507C246.892 375.356 246.73 376.102 246.267 376.744C245.807 377.407 245.153 377.807 244.304 377.945Z" fill="white"/>
<path d="M217.312 369.88C217.312 368.52 217.512 367.4 217.912 366.52C218.292 365.64 218.842 364.93 219.562 364.39C220.262 363.85 221.172 363.37 222.292 362.95L223.042 364.93C222.222 365.33 221.612 365.74 221.212 366.16C220.792 366.56 220.502 367.05 220.342 367.63C220.182 368.23 220.102 369.02 220.102 370V387.64H217.312V369.88Z" fill="white"/>
<path d="M201.033 373.902C201.067 373.483 201.125 373.016 201.206 372.501L210.357 373.24C210.425 371.4 210.163 370.044 209.571 369.174C208.978 368.323 208.113 367.852 206.977 367.76C206.259 367.702 205.612 367.761 205.036 367.935C204.44 368.107 203.813 368.418 203.155 368.866L202.087 367.185C203.669 365.988 205.396 365.466 207.27 365.617C209.323 365.783 210.861 366.619 211.883 368.126C212.884 369.652 213.28 371.7 213.072 374.272C212.865 376.844 212.162 378.834 210.965 380.242C209.766 381.67 208.21 382.307 206.296 382.152C204.403 381.999 203.002 381.204 202.095 379.766C201.186 378.349 200.832 376.394 201.033 373.902ZM203.57 374.919C203.304 378.209 204.258 379.941 206.431 380.116C207.427 380.197 208.249 379.842 208.894 379.051C209.538 378.281 209.975 376.971 210.205 375.124L203.596 374.59L203.57 374.919Z" fill="white"/>
<path d="M193.296 380.562C191.499 380.27 189.997 379.418 188.787 378.006L190.168 376.619C190.729 377.156 191.268 377.578 191.786 377.885C192.303 378.192 192.868 378.395 193.48 378.495C194.289 378.626 194.963 378.533 195.501 378.215C196.016 377.914 196.328 377.428 196.437 376.757C196.543 376.105 196.409 375.557 196.036 375.111C195.643 374.662 194.856 374.139 193.677 373.542C192.197 372.795 191.16 372.009 190.565 371.183C189.97 370.356 189.773 369.321 189.975 368.078C190.213 366.617 190.933 365.549 192.137 364.873C193.338 364.217 194.738 364.019 196.337 364.279C198.449 364.622 200.122 365.613 201.355 367.253L199.752 368.512C198.672 367.303 197.441 366.586 196.059 366.361C195.191 366.22 194.455 366.324 193.851 366.671C193.248 367.019 192.883 367.578 192.758 368.348C192.668 368.9 192.695 369.361 192.838 369.728C192.961 370.093 193.248 370.443 193.7 370.78C194.129 371.134 194.783 371.534 195.663 371.981C197.063 372.715 198.033 373.48 198.572 374.277C199.111 375.074 199.294 376.005 199.121 377.071C198.986 377.9 198.649 378.605 198.109 379.186C197.569 379.767 196.883 380.183 196.052 380.433C195.221 380.683 194.303 380.726 193.296 380.562Z" fill="white"/>
<path d="M180.397 377.92C178.63 377.484 177.2 376.514 176.109 375.009L177.596 373.738C178.112 374.319 178.616 374.783 179.107 375.13C179.598 375.478 180.145 375.726 180.747 375.874C181.543 376.07 182.222 376.032 182.784 375.758C183.321 375.499 183.671 375.04 183.834 374.38C183.992 373.739 183.903 373.181 183.567 372.707C183.211 372.228 182.469 371.643 181.342 370.954C179.927 370.09 178.957 369.222 178.43 368.351C177.903 367.48 177.79 366.432 178.092 365.209C178.446 363.772 179.25 362.765 180.505 362.189C181.754 361.631 183.166 361.547 184.739 361.934C186.816 362.447 188.404 363.569 189.501 365.302L187.802 366.428C186.823 365.136 185.654 364.323 184.294 363.988C183.44 363.777 182.698 363.821 182.068 364.119C181.439 364.417 181.031 364.944 180.844 365.702C180.71 366.246 180.699 366.706 180.812 367.084C180.906 367.458 181.164 367.83 181.587 368.202C181.986 368.589 182.606 369.041 183.447 369.557C184.784 370.401 185.689 371.242 186.162 372.08C186.635 372.917 186.743 373.861 186.484 374.909C186.283 375.725 185.89 376.4 185.305 376.936C184.72 377.471 184.003 377.83 183.155 378.013C182.307 378.195 181.387 378.164 180.397 377.92Z" fill="white"/>
<path d="M166.698 373.485L171.695 358.517L174.256 359.372L169.259 374.34L166.698 373.485ZM165.622 380.97C165.129 380.805 164.785 380.511 164.589 380.087C164.374 379.657 164.346 379.204 164.504 378.73C164.662 378.256 164.947 377.908 165.358 377.687C165.763 377.485 166.222 377.469 166.734 377.64C167.227 377.805 167.584 378.093 167.805 378.504C168.001 378.928 168.02 379.377 167.862 379.851C167.703 380.325 167.419 380.673 167.007 380.894C166.577 381.109 166.116 381.134 165.622 380.97Z" fill="white"/>
<path d="M153.157 368.596C152.384 368.267 151.73 367.836 151.196 367.304C150.662 366.772 150.214 366.114 149.852 365.33L151.591 364.31C151.884 364.847 152.216 365.293 152.587 365.647C152.95 366.019 153.389 366.315 153.905 366.534C154.99 366.997 156.032 366.897 157.032 366.236C158.012 365.567 158.918 364.257 159.749 362.307C161.301 358.664 160.937 356.356 158.655 355.384C158.14 355.165 157.636 355.048 157.142 355.033C156.64 355.037 156.076 355.111 155.448 355.257L154.936 353.245C156.568 352.68 158.13 352.714 159.62 353.349C161.478 354.141 162.667 355.408 163.185 357.151C163.685 358.886 163.418 360.968 162.383 363.396C161.709 364.979 160.885 366.248 159.913 367.203C158.923 368.151 157.852 368.749 156.703 368.998C155.535 369.24 154.352 369.106 153.157 368.596Z" fill="white"/>
<path d="M144.171 350.047C144.468 349.48 144.611 349.013 144.601 348.646C144.581 348.297 144.44 347.963 144.178 347.645L145.533 346.289C146.168 346.758 146.596 347.254 146.819 347.777C147.041 348.301 147.06 348.932 146.875 349.671C148.522 348.728 150.16 348.684 151.789 349.539C153.029 350.19 153.812 351.086 154.138 352.229C154.455 353.389 154.275 354.616 153.596 355.908C152.815 357.396 151.734 358.274 150.351 358.542C148.968 358.81 147.373 358.47 145.567 357.522L143.76 356.574L143.133 357.769C142.622 358.743 142.458 359.549 142.643 360.188C142.8 360.835 143.33 361.396 144.233 361.87C145.207 362.381 146.471 362.728 148.024 362.911L147.73 364.891C145.837 364.711 144.217 364.267 142.871 363.561C139.843 361.972 139.124 359.663 140.713 356.635L144.171 350.047ZM150.283 351.053C149.044 350.402 147.715 350.631 146.298 351.739L144.569 355.033L146.11 355.842C148.412 357.05 150.07 356.689 151.083 354.759C151.519 353.926 151.668 353.191 151.529 352.553C151.389 351.915 150.974 351.415 150.283 351.053Z" fill="white"/>
<path d="M125.016 332.389L127.894 334.552L123.119 353.142C124.513 350.887 125.961 348.76 127.463 346.762L133.482 338.751L135.497 340.265L123.098 356.766L120.244 354.621L125.013 335.989C124.656 336.597 124.152 337.419 123.499 338.454C122.83 339.477 122.135 340.469 121.414 341.428L114.656 350.422L112.617 348.89L125.016 332.389Z" fill="white"/>
<path d="M105.818 335.519C106.687 335.834 107.796 336.589 109.143 337.783C108.442 336.04 108.729 334.45 110.002 333.013C111.05 331.83 112.273 331.204 113.671 331.133C115.041 331.064 116.363 331.594 117.635 332.721C118.114 333.145 118.482 333.605 118.739 334.099C119.423 334.171 119.971 333.975 120.382 333.511C121.005 332.808 120.823 332.018 119.835 331.143L118.285 329.77C117.118 328.736 116.455 327.614 116.297 326.405C116.125 325.211 116.444 324.158 117.253 323.245C118.234 322.137 119.43 321.646 120.841 321.774C122.264 321.886 123.799 322.671 125.446 324.13C127.153 325.642 128.107 327.008 128.308 328.229C128.494 329.436 128.057 330.638 126.996 331.836L125.177 330.225C125.615 329.731 125.877 329.268 125.965 328.838C126.05 328.38 125.951 327.904 125.666 327.411C125.379 326.89 124.854 326.291 124.091 325.615C123.028 324.673 122.119 324.162 121.363 324.08C120.607 323.998 119.957 324.264 119.413 324.878C118.909 325.447 118.719 326.053 118.843 326.697C118.952 327.328 119.359 327.956 120.062 328.579L121.387 329.753C122.42 330.668 123.019 331.545 123.183 332.386C123.334 333.241 123.117 333.998 122.534 334.656C121.857 335.42 120.842 335.736 119.488 335.606C119.799 336.522 119.873 337.389 119.709 338.206C119.518 339.025 119.078 339.824 118.388 340.603C117.301 341.83 116.036 342.473 114.594 342.532C113.153 342.591 111.796 342.057 110.523 340.929C109.341 339.882 108.355 339.155 107.565 338.749C106.76 338.331 105.861 337.988 104.868 337.723L105.818 335.519ZM111.754 339.495C112.488 340.145 113.255 340.41 114.055 340.291C114.827 340.173 115.598 339.68 116.367 338.812C117.11 337.974 117.499 337.143 117.534 336.319C117.541 335.497 117.192 334.774 116.489 334.151C115.007 332.838 113.47 333.079 111.879 334.876C111.109 335.744 110.713 336.568 110.689 337.349C110.666 338.13 111.021 338.845 111.754 339.495Z" fill="white"/>
<path d="M94.49 319.941C93.9461 319.274 93.728 318.549 93.8357 317.764C93.9308 316.963 94.3115 316.291 94.9776 315.747C95.6438 315.203 96.3786 314.965 97.182 315.031C97.9573 315.096 98.6169 315.461 99.1608 316.127C99.7047 316.793 99.9291 317.526 99.834 318.327C99.7389 319.128 99.3583 319.8 98.6921 320.344C98.026 320.888 97.2989 321.12 96.511 321.04C95.7075 320.973 95.0339 320.607 94.49 319.941Z" fill="white"/>
<path d="M88.1568 291.896C89.3346 291.216 90.4045 290.829 91.3666 290.735C92.3187 290.624 93.2086 290.746 94.0363 291.099C94.8539 291.436 95.7246 291.984 96.6484 292.744L95.3086 294.383C94.5522 293.873 93.8921 293.55 93.3284 293.413C92.772 293.25 92.2026 293.243 91.6204 293.395C91.0207 293.556 90.2966 293.882 89.4479 294.372L74.1712 303.192L72.7762 300.776L88.1568 291.896Z" fill="white"/>
<path d="M76.3556 280.446C76.735 280.266 77.1682 280.083 77.6551 279.896L81.5905 288.189C83.2186 287.328 84.2616 286.424 84.7195 285.476C85.1593 284.537 85.1348 283.552 84.6461 282.522C84.3375 281.872 83.9637 281.341 83.5249 280.929C83.0775 280.499 82.495 280.112 81.7775 279.766L82.6996 278C84.5266 278.771 85.8431 280.006 86.649 281.705C87.5321 283.566 87.5766 285.316 86.7824 286.954C85.9616 288.584 84.3857 289.951 82.0548 291.057C79.7239 292.163 77.6494 292.55 75.8312 292.217C73.995 291.893 72.6653 290.864 71.8422 289.129C71.0277 287.413 71.0162 285.802 71.8076 284.298C72.5809 282.802 74.0969 281.518 76.3556 280.446ZM76.7426 283.151C73.7613 284.566 72.7378 286.258 73.6724 288.228C74.1011 289.131 74.8192 289.665 75.8267 289.829C76.8162 290.001 78.1683 289.725 79.883 289L77.0408 283.01L76.7426 283.151Z" fill="white"/>
<path d="M66.7191 277.075C66.0737 275.373 66.0603 273.646 66.6788 271.893L68.5697 272.395C68.3852 273.149 68.2894 273.827 68.2823 274.429C68.2752 275.03 68.3815 275.621 68.6014 276.201C68.8922 276.967 69.3097 277.504 69.8539 277.811C70.3723 278.107 70.9494 278.134 71.5852 277.893C72.2024 277.659 72.6105 277.268 72.8098 276.722C73.002 276.157 73.0617 275.215 72.9889 273.895C72.8961 272.24 73.0587 270.949 73.4766 270.02C73.8945 269.092 74.6925 268.404 75.8706 267.957C77.2545 267.432 78.5399 267.523 79.727 268.227C80.8954 268.939 81.7668 270.053 82.3413 271.567C83.1001 273.568 83.0781 275.512 82.2752 277.4L80.3833 276.641C80.8902 275.102 80.8955 273.677 80.399 272.368C80.087 271.545 79.6295 270.959 79.0266 270.611C78.4237 270.262 77.7576 270.226 77.0283 270.502C76.5047 270.701 76.1194 270.954 75.8724 271.261C75.6183 271.55 75.4584 271.975 75.3926 272.534C75.301 273.082 75.2816 273.849 75.3344 274.834C75.3988 276.414 75.2208 277.637 74.8003 278.502C74.3798 279.367 73.6647 279.992 72.6549 280.375C71.8695 280.672 71.0902 280.733 70.317 280.555C69.5439 280.378 68.8414 279.992 68.2095 279.397C67.5776 278.803 67.0808 278.029 66.7191 277.075Z" fill="white"/>
<path d="M62.5579 264.583C62.0515 262.835 62.1771 261.112 62.9347 259.415L64.7791 260.067C64.5345 260.804 64.3845 261.472 64.329 262.072C64.2734 262.671 64.3319 263.268 64.5044 263.863C64.7326 264.651 65.1055 265.22 65.6233 265.57C66.1162 265.906 66.6893 265.979 67.3425 265.79C67.9764 265.606 68.4147 265.25 68.6572 264.722C68.8943 264.174 69.0296 263.24 69.0632 261.918C69.1039 260.262 69.3699 258.987 69.8611 258.095C70.3524 257.203 71.2032 256.582 72.4134 256.232C73.835 255.82 75.109 256.013 76.2355 256.811C77.3428 257.615 78.1219 258.795 78.5726 260.351C79.168 262.406 78.9896 264.342 78.0374 266.159L76.2127 265.251C76.8418 263.757 76.9617 262.337 76.5722 260.993C76.3273 260.147 75.9185 259.527 75.3456 259.13C74.7728 258.734 74.1117 258.644 73.3625 258.861C72.8246 259.017 72.4202 259.239 72.1493 259.525C71.8728 259.793 71.6792 260.203 71.5686 260.755C71.4332 261.294 71.3522 262.057 71.3256 263.043C71.2626 264.623 70.9868 265.827 70.4981 266.656C70.0093 267.485 69.2463 268.049 68.2089 268.35C67.4021 268.584 66.6205 268.581 65.8641 268.342C65.1078 268.103 64.4386 267.662 63.8566 267.018C63.2746 266.375 62.8417 265.563 62.5579 264.583Z" fill="white"/>
<path d="M59.5491 250.502L75.0102 247.346L75.5502 249.991L60.0891 253.148L59.5491 250.502ZM52.5295 253.313C52.4254 252.803 52.508 252.358 52.7771 251.976C53.0422 251.575 53.4197 251.325 53.9096 251.225C54.3995 251.125 54.843 251.197 55.2402 251.443C55.6177 251.693 55.8605 252.082 55.9685 252.611C56.0725 253.12 56.0018 253.574 55.7563 253.971C55.4871 254.352 55.1076 254.593 54.6177 254.693C54.1278 254.793 53.6843 254.72 53.2872 254.475C52.886 254.21 52.6335 253.822 52.5295 253.313Z" fill="white"/>
<path d="M57.0122 236.331C56.9109 235.497 56.9571 234.716 57.1507 233.987C57.3443 233.258 57.6904 232.541 58.189 231.836L59.9418 232.832C59.6224 233.354 59.4023 233.865 59.2815 234.363C59.1408 234.863 59.1042 235.392 59.1717 235.948C59.314 237.119 59.9212 237.972 60.9935 238.507C62.0633 239.021 63.6505 239.151 65.7551 238.896C69.6862 238.418 71.5023 236.949 71.2034 234.487C71.1359 233.931 70.9851 233.435 70.7509 233C70.4969 232.568 70.15 232.116 69.7101 231.646L71.1962 230.196C72.502 231.327 73.2525 232.697 73.4478 234.305C73.6913 236.31 73.1881 237.973 71.9381 239.293C70.6857 240.594 68.7491 241.403 66.1284 241.721C64.4209 241.928 62.9105 241.85 61.597 241.486C60.2811 241.101 59.2277 240.474 58.437 239.603C57.6438 238.712 57.1689 237.621 57.0122 236.331Z" fill="white"/>
<path d="M68.5834 219.274C69.2229 219.248 69.6989 219.139 70.0114 218.946C70.3039 218.754 70.5224 218.465 70.667 218.079L72.5185 218.575C72.43 219.359 72.2147 219.978 71.8727 220.432C71.5307 220.887 70.9937 221.218 70.2615 221.428C71.9013 222.383 72.7582 223.78 72.8323 225.618C72.8887 227.017 72.5037 228.143 71.6774 228.997C70.8312 229.852 69.6786 230.309 68.2198 230.368C66.5412 230.435 65.2401 229.937 64.3165 228.874C63.3929 227.81 62.8901 226.259 62.8079 224.221L62.7258 222.182L61.3769 222.237C60.2778 222.281 59.4977 222.542 59.0366 223.021C58.5547 223.481 58.3343 224.221 58.3754 225.24C58.4196 226.339 58.751 227.607 59.3693 229.043L57.5074 229.778C56.7171 228.049 56.2914 226.425 56.2302 224.906C56.0925 221.489 57.7322 219.711 61.1494 219.574L68.5834 219.274ZM70.7686 225.071C70.7122 223.672 69.8498 222.636 68.1813 221.962L64.4644 222.112L64.5344 223.851C64.6391 226.449 65.7806 227.704 67.9588 227.616C68.898 227.578 69.609 227.339 70.0917 226.899C70.5744 226.46 70.8 225.85 70.7686 225.071Z" fill="white"/>
<path d="M74.2981 193.857L73.8641 197.431L55.3775 202.59C58.0271 202.67 60.5929 202.861 63.0746 203.162L73.0216 204.37L72.7178 206.872L52.2283 204.384L52.6586 200.84L71.1787 195.654C70.4742 195.649 69.5103 195.623 68.2872 195.575C67.0664 195.508 65.8604 195.401 64.6692 195.257L53.5012 193.901L53.8086 191.369L74.2981 193.857Z" fill="white"/>
<path d="M61.9891 178.796C62.1502 179.706 62.0507 181.043 61.6906 182.807C62.8497 181.329 64.3698 180.782 66.251 181.166C67.7991 181.482 68.9532 182.228 69.7134 183.404C70.458 184.556 70.6602 185.965 70.3202 187.631C70.1922 188.258 69.9782 188.806 69.6782 189.276C69.9581 189.904 70.4018 190.281 71.0093 190.405C71.9303 190.593 72.5228 190.04 72.7868 188.747L73.2009 186.718C73.5129 185.19 74.1529 184.055 75.1207 183.314C76.069 182.568 77.1408 182.318 78.3361 182.562C79.7862 182.858 80.8088 183.648 81.4038 184.933C82.0184 186.222 82.1056 187.944 81.6656 190.1C81.2095 192.334 80.5033 193.843 79.5471 194.628C78.5948 195.393 77.3349 195.615 75.7672 195.295L76.2533 192.914C76.8999 193.046 77.4314 193.042 77.8477 192.903C78.2877 192.748 78.6498 192.424 78.9342 191.931C79.2422 191.422 79.4982 190.668 79.7022 189.668C79.9862 188.277 79.9747 187.234 79.6676 186.538C79.3605 185.843 78.8052 185.413 78.0018 185.249C77.2572 185.097 76.6369 185.236 76.141 185.665C75.649 186.075 75.3091 186.741 75.121 187.662L74.767 189.396C74.491 190.748 74.0302 191.705 73.3847 192.267C72.7196 192.826 71.9559 193.017 71.0937 192.841C70.0943 192.637 69.3127 191.916 68.7489 190.678C68.1106 191.405 67.3967 191.902 66.6072 192.17C65.8022 192.414 64.8902 192.432 63.8712 192.224C62.2643 191.895 61.075 191.122 60.3032 189.903C59.5315 188.684 59.3156 187.242 59.6557 185.576C59.9717 184.028 60.108 182.811 60.0644 181.924C60.0249 181.018 59.8718 180.068 59.6051 179.074L61.9891 178.796ZM61.5135 185.925C61.3174 186.885 61.4712 187.682 61.9746 188.315C62.4625 188.925 63.2747 189.346 64.4112 189.578C65.5086 189.802 66.4228 189.723 67.1539 189.342C67.8694 188.937 68.3212 188.274 68.5092 187.353C68.9052 185.413 67.9275 184.203 65.576 183.723C64.4394 183.491 63.5272 183.56 62.8393 183.93C62.1515 184.299 61.7095 184.964 61.5135 185.925Z" fill="white"/>
<path d="M69.816 161.196C70.1209 160.392 70.6403 159.84 71.3741 159.541C72.115 159.223 72.8875 159.217 73.6916 159.522C74.4957 159.826 75.0696 160.344 75.4134 161.073C75.7455 161.776 75.7591 162.53 75.4541 163.334C75.1491 164.138 74.6262 164.699 73.8853 165.017C73.1444 165.335 72.3719 165.342 71.5678 165.037C70.7637 164.732 70.1991 164.218 69.8741 163.496C69.5304 162.767 69.511 162 69.816 161.196Z" fill="white"/>
<path d="M90.9369 141.689C92.1147 142.369 92.9846 143.102 93.5467 143.888C94.1188 144.658 94.4587 145.489 94.5664 146.382C94.684 147.259 94.6447 148.287 94.4484 149.467L92.3587 149.126C92.4223 148.216 92.3722 147.483 92.2085 146.926C92.0721 146.363 91.7927 145.866 91.3704 145.438C90.9308 144.999 90.2867 144.535 89.438 144.045L74.1613 135.225L75.5563 132.809L90.9369 141.689Z" fill="white"/>
<path d="M94.9521 125.744C95.2978 125.983 95.6732 126.266 96.0785 126.594L90.8636 134.149C92.4234 135.129 93.7281 135.58 94.7779 135.502C95.8112 135.414 96.6516 134.9 97.2992 133.962C97.7083 133.369 97.9813 132.78 98.1183 132.194C98.2668 131.592 98.3113 130.894 98.252 130.099L100.242 130.015C100.488 131.983 100.077 133.741 99.0087 135.288C97.8385 136.983 96.3453 137.897 94.5291 138.028C92.7077 138.132 90.7354 137.451 88.6121 135.985C86.4888 134.52 85.1167 132.916 84.4957 131.175C83.8583 129.423 84.0849 127.757 85.1756 126.177C86.2549 124.613 87.6439 123.798 89.3426 123.731C91.0248 123.653 92.8947 124.324 94.9521 125.744ZM92.8029 127.432C90.087 125.557 88.1099 125.517 86.8715 127.311C86.3035 128.134 86.2004 129.023 86.5622 129.977C86.9075 130.92 87.8229 131.953 89.3082 133.076L93.0745 127.619L92.8029 127.432Z" fill="white"/>
<path d="M93.053 115.713C94.2041 114.303 95.6934 113.428 97.521 113.087L98.0317 114.976C97.2861 115.193 96.651 115.449 96.1264 115.744C95.6018 116.038 95.1435 116.426 94.7513 116.906C94.2327 117.541 93.9766 118.171 93.9828 118.796C93.9863 119.393 94.2513 119.906 94.7781 120.336C95.2893 120.754 95.8312 120.912 96.4039 120.811C96.9891 120.695 97.8351 120.276 98.9419 119.553C100.328 118.645 101.528 118.14 102.541 118.038C103.554 117.936 104.549 118.283 105.525 119.08C106.671 120.016 107.236 121.174 107.219 122.554C107.187 123.922 106.658 125.234 105.634 126.489C104.28 128.146 102.586 129.099 100.55 129.348L100.261 127.33C101.848 126.999 103.084 126.291 103.969 125.207C104.526 124.525 104.804 123.836 104.805 123.14C104.806 122.443 104.504 121.848 103.9 121.355C103.466 121.001 103.054 120.793 102.664 120.733C102.287 120.658 101.84 120.731 101.322 120.954C100.802 121.149 100.128 121.515 99.3012 122.054C97.9652 122.9 96.8174 123.357 95.8577 123.425C94.8981 123.494 94 123.186 93.1634 122.503C92.5128 121.972 92.0709 121.327 91.838 120.569C91.605 119.811 91.588 119.01 91.787 118.165C91.9859 117.321 92.408 116.503 93.053 115.713Z" fill="white"/>
<path d="M101.791 105.863C103.052 104.551 104.606 103.798 106.456 103.605L106.813 105.529C106.052 105.686 105.398 105.89 104.852 106.141C104.305 106.393 103.817 106.742 103.388 107.189C102.82 107.781 102.513 108.388 102.469 109.011C102.425 109.606 102.648 110.139 103.138 110.61C103.614 111.067 104.142 111.269 104.72 111.215C105.313 111.146 106.19 110.796 107.352 110.165C108.807 109.372 110.043 108.965 111.061 108.944C112.079 108.924 113.043 109.35 113.951 110.223C115.019 111.248 115.488 112.448 115.361 113.823C115.218 115.183 114.586 116.448 113.464 117.616C111.981 119.16 110.215 119.973 108.166 120.057L108.04 118.023C109.649 117.82 110.938 117.215 111.908 116.205C112.517 115.57 112.85 114.906 112.907 114.211C112.964 113.517 112.711 112.9 112.148 112.36C111.745 111.972 111.351 111.732 110.967 111.641C110.597 111.535 110.145 111.572 109.611 111.753C109.077 111.905 108.376 112.216 107.508 112.686C106.109 113.422 104.928 113.785 103.966 113.776C103.004 113.767 102.133 113.389 101.354 112.641C100.749 112.059 100.36 111.381 100.189 110.606C100.018 109.832 100.065 109.031 100.331 108.206C100.598 107.38 101.084 106.599 101.791 105.863Z" fill="white"/>
<path d="M112.481 96.217L122.945 108.029L120.924 109.819L110.46 98.0075L112.481 96.217ZM106.537 91.5433C106.926 91.1985 107.353 91.0472 107.818 91.0895C108.298 91.1186 108.704 91.3202 109.035 91.6945C109.367 92.0687 109.526 92.4892 109.512 92.9559C109.484 93.4076 109.269 93.8125 108.864 94.1706C108.475 94.5154 108.047 94.6808 107.581 94.6667C107.116 94.6244 106.717 94.4162 106.386 94.0419C106.054 93.6677 105.895 93.2472 105.909 92.7805C105.939 92.3005 106.148 91.8881 106.537 91.5433Z" fill="white"/>
<path d="M123.485 86.9343C124.157 86.4297 124.857 86.0791 125.584 85.8824C126.312 85.6857 127.106 85.627 127.966 85.7062L127.98 87.7222C127.368 87.7067 126.816 87.7712 126.324 87.9157C125.82 88.0442 125.345 88.2766 124.897 88.613C123.954 89.3219 123.518 90.2743 123.592 91.4702C123.681 92.6542 124.362 94.0935 125.636 95.7883C128.015 98.9541 130.195 99.7921 132.178 98.3023C132.626 97.9659 132.979 97.5875 133.239 97.1673C133.486 96.7311 133.704 96.2048 133.891 95.5887L135.89 96.1508C135.563 97.8471 134.753 99.1819 133.458 100.155C131.843 101.369 130.151 101.764 128.383 101.342C126.63 100.907 124.961 99.635 123.375 97.5244C122.342 96.1494 121.655 94.802 121.313 93.4823C120.988 92.1507 121.005 90.9246 121.364 89.8043C121.739 88.672 122.446 87.7153 123.485 86.9343Z" fill="white"/>
<path d="M144.043 88.4269C144.385 88.9679 144.717 89.3255 145.04 89.4997C145.353 89.6571 145.712 89.7018 146.119 89.6339L146.615 91.4853C145.892 91.8007 145.248 91.9239 144.684 91.8548C144.12 91.7857 143.564 91.4865 143.016 90.9573C143.009 92.8548 142.228 94.2952 140.673 95.2786C139.49 96.0269 138.322 96.2567 137.169 95.9681C136.006 95.6626 135.034 94.8929 134.253 93.6589C133.355 92.239 133.136 90.8632 133.596 89.5315C134.055 88.1998 135.147 86.9888 136.871 85.8985L138.595 84.8082L137.874 83.6672C137.286 82.7375 136.669 82.1927 136.024 82.0329C135.385 81.8454 134.634 82.0243 133.772 82.5694C132.842 83.1574 131.91 84.0781 130.975 85.3318L129.407 84.0871C130.51 82.5379 131.704 81.3571 132.988 80.5447C135.879 78.7168 138.238 79.2482 140.066 82.1387L144.043 88.4269ZM140.115 93.2177C141.298 92.4695 141.764 91.2045 141.513 89.4229L139.525 86.2788L138.054 87.2088C135.857 88.5984 135.341 90.2145 136.506 92.057C137.008 92.8515 137.571 93.3478 138.193 93.5459C138.815 93.744 139.456 93.6346 140.115 93.2177Z" fill="white"/>
<path d="M168.911 80.6677L165.6 82.0788L151.888 68.6485C153.144 70.9831 154.261 73.3005 155.241 75.6004L159.169 84.8186L156.851 85.8064L148.76 66.818L152.045 65.4187L165.795 78.8648C165.447 78.2521 164.988 77.4042 164.418 76.3211C163.866 75.23 163.355 74.1326 162.885 73.0286L158.475 62.6788L160.821 61.6793L168.911 80.6677Z" fill="white"/>
<path d="M175.801 62.4768C175.093 63.0716 173.885 63.6541 172.178 64.2241C174.037 64.4888 175.271 65.5318 175.879 67.353C176.379 68.8517 176.31 70.2242 175.672 71.4704C175.047 72.6913 173.927 73.571 172.315 74.1093C171.708 74.312 171.126 74.4008 170.57 74.3757C170.165 74.9325 170.061 75.5049 170.257 76.093C170.555 76.9846 171.33 77.2214 172.582 76.8034L174.545 76.1479C176.025 75.6539 177.328 75.6407 178.454 76.1082C179.574 76.5567 180.327 77.3596 180.713 78.5168C181.182 79.9206 181.008 81.2014 180.193 82.3592C179.384 83.5359 177.936 84.4726 175.849 85.1693C173.687 85.8913 172.026 86.0344 170.869 85.5985C169.73 85.1563 168.908 84.1764 168.401 82.6587L170.706 81.8892C170.915 82.5153 171.184 82.9737 171.513 83.2645C171.867 83.5679 172.329 83.7194 172.898 83.7192C173.493 83.7316 174.274 83.5762 175.241 83.2532C176.588 82.8036 177.486 82.2719 177.935 81.6582C178.383 81.0445 178.478 80.3488 178.218 79.571C177.978 78.8501 177.547 78.3823 176.927 78.1675C176.327 77.9464 175.58 77.9847 174.689 78.2824L173.01 78.8429C171.701 79.2799 170.641 79.3594 169.832 79.0815C169.016 78.7847 168.468 78.2189 168.19 77.3842C167.867 76.4167 168.1 75.3793 168.89 74.2722C167.942 74.0829 167.154 73.7132 166.528 73.1633C165.914 72.588 165.442 71.8072 165.113 70.8207C164.594 69.2651 164.669 67.8484 165.339 66.5705C166.008 65.2926 167.15 64.3845 168.762 63.8462C170.261 63.3458 171.383 62.8552 172.129 62.3742C172.894 61.8868 173.64 61.2793 174.367 60.5517L175.801 62.4768ZM169.389 65.6294C168.46 65.9398 167.846 66.4713 167.549 67.2241C167.265 67.9515 167.307 68.8654 167.674 69.9657C168.029 71.0281 168.554 71.7804 169.25 72.2228C169.958 72.6399 170.758 72.6996 171.65 72.402C173.528 71.775 174.087 70.3232 173.327 68.0467C172.96 66.9464 172.444 66.1909 171.78 65.7801C171.116 65.3693 170.319 65.3191 169.389 65.6294Z" fill="white"/>
<path d="M194.956 60.4554C195.805 60.3175 196.542 60.4915 197.168 60.9773C197.814 61.46 198.206 62.1257 198.344 62.9746C198.482 63.8235 198.321 64.5791 197.861 65.2414C197.418 65.8807 196.772 66.2694 195.923 66.4074C195.074 66.5453 194.327 66.373 193.681 65.8903C193.035 65.4076 192.643 64.7419 192.505 63.893C192.368 63.0442 192.53 62.2984 192.993 61.6559C193.453 60.9935 194.107 60.5934 194.956 60.4554Z" fill="white"/>
</svg>
