<svg width="452" height="663" viewBox="0 0 452 663" fill="none" xmlns="http://www.w3.org/2000/svg">
<path d="M0 662L122.741 103H163.037L327 662H0Z" fill="#FFFADF"/>
<path d="M125 662L247.741 77H288.037L452 662H125Z" fill="#FFFADF"/>
<mask id="mask0_49_4" style="mask-type:alpha" maskUnits="userSpaceOnUse" x="131" y="89" width="23" height="26">
<ellipse cx="142.912" cy="102.047" rx="10.9202" ry="12.9219" fill="#F3E245"/>
</mask>
<g mask="url(#mask0_49_4)">
<rect x="131.992" y="102.234" width="21.8403" height="13.4837" fill="#F3E245"/>
</g>
<mask id="mask1_49_4" style="mask-type:alpha" maskUnits="userSpaceOnUse" x="112" y="70" width="65" height="68">
<ellipse cx="144.286" cy="103.883" rx="32.2857" ry="33.8826" transform="rotate(180 144.286 103.883)" fill="#A5B4E6"/>
</mask>
<g mask="url(#mask1_49_4)">
<rect x="176.571" y="103.392" width="64.5714" height="35.3557" transform="rotate(180 176.571 103.392)" fill="#A5B4E6"/>
</g>
<mask id="mask2_49_4" style="mask-type:alpha" maskUnits="userSpaceOnUse" x="126" y="58" width="35" height="36">
<ellipse cx="143.906" cy="76" rx="17.0741" ry="18" transform="rotate(180 143.906 76)" fill="#808DBE"/>
</mask>
<g mask="url(#mask2_49_4)">
<rect x="160.98" y="75.7391" width="34.1481" height="18.7826" transform="rotate(180 160.98 75.7391)" fill="#808DBE"/>
</g>
<line x1="143.5" y1="59" x2="143.5" stroke="black" stroke-width="3"/>
<mask id="mask3_49_4" style="mask-type:alpha" maskUnits="userSpaceOnUse" x="257" y="62" width="23" height="28">
<ellipse cx="268.256" cy="75.9975" rx="10.9202" ry="13.1277" fill="#F3E245"/>
</mask>
<g mask="url(#mask3_49_4)">
<rect x="257.336" y="76.1878" width="21.8403" height="13.6985" fill="#F3E245"/>
</g>
<mask id="mask4_49_4" style="mask-type:alpha" maskUnits="userSpaceOnUse" x="237" y="44" width="65" height="71">
<ellipse cx="269.286" cy="79.3529" rx="32.2857" ry="35.3529" transform="rotate(180 269.286 79.3529)" fill="#A5B4E6"/>
</mask>
<g mask="url(#mask4_49_4)">
<rect x="301.571" y="78.8405" width="64.5714" height="36.89" transform="rotate(180 301.571 78.8405)" fill="#A5B4E6"/>
</g>
<line x1="269.5" y1="35" x2="269.5" stroke="black" stroke-width="3"/>
<path d="M125 662L208.967 264L327 662H125Z" fill="#FFF6C7" stroke="#FFF6C7"/>
<path d="M133.75 351.375C133.75 353.438 133.417 355.51 132.75 357.594C132.104 359.677 131.188 361.625 130 363.438C128.833 365.25 127.427 366.865 125.781 368.281C124.135 369.698 122.333 370.771 120.375 371.5C120.5 373.229 120.646 374.948 120.812 376.656C120.979 378.365 121.208 380.083 121.5 381.812C121.562 382.125 121.625 382.448 121.688 382.781C121.771 383.115 121.812 383.458 121.812 383.812C121.812 384.354 121.677 384.719 121.406 384.906C121.135 385.094 120.75 385.188 120.25 385.188C119.896 385.188 119.469 385.146 118.969 385.062C118.469 384.979 118.042 384.854 117.688 384.688C117.271 384.458 116.99 384.229 116.844 384C116.719 383.75 116.625 383.417 116.562 383C116.208 381.229 115.99 379.458 115.906 377.688C115.844 375.917 115.75 374.146 115.625 372.375C115.208 372.333 114.865 372.229 114.594 372.062C114.323 371.875 114.188 371.562 114.188 371.125C114.188 370.708 114.302 370.271 114.531 369.812C114.781 369.354 115.062 369 115.375 368.75C115.188 364.875 115.104 361.031 115.125 357.219C115.167 353.406 115.167 349.562 115.125 345.688C115.021 345.729 114.927 345.76 114.844 345.781C114.76 345.802 114.667 345.812 114.562 345.812C114.333 345.812 114.146 345.76 114 345.656C113.854 345.531 113.729 345.385 113.625 345.219C113.542 345.052 113.479 344.875 113.438 344.688C113.396 344.479 113.375 344.292 113.375 344.125C113.375 343.5 113.531 343.052 113.844 342.781C114.156 342.49 114.583 342.229 115.125 342C115.125 341.771 115.125 341.51 115.125 341.219C115.146 340.906 115.188 340.625 115.25 340.375C115.333 340.104 115.458 339.885 115.625 339.719C115.792 339.531 116.042 339.438 116.375 339.438C116.917 339.438 117.438 339.542 117.938 339.75C118.438 339.958 118.812 340.312 119.062 340.812C119.792 340.688 120.5 340.573 121.188 340.469C121.875 340.365 122.583 340.312 123.312 340.312C124.958 340.312 126.427 340.594 127.719 341.156C129.01 341.698 130.104 342.469 131 343.469C131.896 344.448 132.573 345.615 133.031 346.969C133.51 348.323 133.75 349.792 133.75 351.375ZM129.062 350.812C129.062 349.854 128.938 348.958 128.688 348.125C128.438 347.271 128.062 346.542 127.562 345.938C127.062 345.312 126.427 344.823 125.656 344.469C124.885 344.115 123.979 343.938 122.938 343.938C122.375 343.938 121.802 343.979 121.219 344.062C120.656 344.146 120.104 344.271 119.562 344.438C119.562 348.25 119.583 352.031 119.625 355.781C119.688 359.531 119.833 363.292 120.062 367.062C121.396 366.375 122.615 365.417 123.719 364.188C124.823 362.958 125.771 361.604 126.562 360.125C127.354 358.625 127.969 357.073 128.406 355.469C128.844 353.844 129.062 352.292 129.062 350.812ZM160.844 384.875C160.844 385.125 160.719 385.333 160.469 385.5C160.219 385.667 159.917 385.802 159.562 385.906C159.229 386.01 158.885 386.083 158.531 386.125C158.198 386.167 157.948 386.188 157.781 386.188C157.365 386.188 157.021 386.146 156.75 386.062C156.5 386 156.198 385.875 155.844 385.688C155.74 385.625 155.49 385.365 155.094 384.906C154.719 384.427 154.24 383.812 153.656 383.062C153.094 382.312 152.448 381.458 151.719 380.5C151.01 379.542 150.271 378.562 149.5 377.562C148.75 376.542 148 375.531 147.25 374.531C146.521 373.51 145.844 372.583 145.219 371.75C144.594 370.896 144.052 370.156 143.594 369.531C143.156 368.885 142.844 368.438 142.656 368.188L142.469 368.25C142.594 370.729 142.75 373.208 142.938 375.688C143.146 378.146 143.49 380.583 143.969 383C144.031 383.25 144.094 383.51 144.156 383.781C144.24 384.052 144.281 384.333 144.281 384.625C144.281 385.104 144.125 385.406 143.812 385.531C143.5 385.677 143.156 385.75 142.781 385.75C142.573 385.75 142.323 385.74 142.031 385.719C141.74 385.698 141.438 385.656 141.125 385.594C140.812 385.531 140.521 385.448 140.25 385.344C140 385.26 139.802 385.146 139.656 385C139.365 384.75 139.177 384.49 139.094 384.219C139.031 383.948 138.969 383.625 138.906 383.25C138.302 379.062 137.917 374.865 137.75 370.656C137.604 366.427 137.531 362.208 137.531 358C137.531 356.167 137.542 354.365 137.562 352.594C137.583 350.823 137.615 349.021 137.656 347.188C137.406 347.167 137.167 347.083 136.938 346.938C136.729 346.792 136.542 346.615 136.375 346.406C136.208 346.177 136.073 345.948 135.969 345.719C135.885 345.469 135.844 345.229 135.844 345C135.844 344.771 135.896 344.542 136 344.312C136.125 344.083 136.271 343.875 136.438 343.688C136.625 343.5 136.823 343.323 137.031 343.156C137.24 342.99 137.427 342.854 137.594 342.75V342.188C137.594 341.979 137.594 341.74 137.594 341.469C137.615 341.198 137.656 340.948 137.719 340.719C137.802 340.469 137.927 340.271 138.094 340.125C138.26 339.958 138.51 339.875 138.844 339.875C139.281 339.875 139.719 339.948 140.156 340.094C140.594 340.24 140.969 340.5 141.281 340.875C142.844 340.25 144.49 339.938 146.219 339.938C147.74 339.938 149.125 340.24 150.375 340.844C151.625 341.448 152.688 342.26 153.562 343.281C154.458 344.302 155.146 345.479 155.625 346.812C156.104 348.146 156.344 349.542 156.344 351C156.344 352.562 156.052 354.083 155.469 355.562C154.885 357.021 154.125 358.406 153.188 359.719C152.25 361.031 151.177 362.24 149.969 363.344C148.781 364.427 147.573 365.375 146.344 366.188C148.302 368.792 150.281 371.375 152.281 373.938C154.302 376.479 156.365 379.021 158.469 381.562C158.594 381.708 158.781 381.927 159.031 382.219C159.302 382.51 159.573 382.833 159.844 383.188C160.115 383.521 160.344 383.844 160.531 384.156C160.74 384.469 160.844 384.708 160.844 384.875ZM151.719 350.5C151.719 349.729 151.583 348.927 151.312 348.094C151.042 347.26 150.656 346.51 150.156 345.844C149.656 345.156 149.052 344.594 148.344 344.156C147.656 343.719 146.885 343.5 146.031 343.5C145.344 343.5 144.656 343.604 143.969 343.812C143.302 344 142.656 344.25 142.031 344.562C142.073 347.667 142.104 350.771 142.125 353.875C142.167 356.979 142.219 360.083 142.281 363.188L142.844 363.25C143.927 362.646 144.99 361.885 146.031 360.969C147.094 360.052 148.042 359.031 148.875 357.906C149.729 356.781 150.417 355.594 150.938 354.344C151.458 353.073 151.719 351.792 151.719 350.5ZM181.25 361C181.25 361.875 181.229 362.896 181.188 364.062C181.167 365.208 181.094 366.438 180.969 367.75C180.865 369.062 180.698 370.406 180.469 371.781C180.26 373.156 179.979 374.5 179.625 375.812C179.271 377.125 178.833 378.365 178.312 379.531C177.792 380.698 177.167 381.719 176.438 382.594C175.708 383.469 174.865 384.167 173.906 384.688C172.948 385.188 171.854 385.438 170.625 385.438C169.396 385.438 168.281 385.156 167.281 384.594C166.281 384.01 165.438 383.25 164.75 382.312C164.188 381.562 163.688 380.646 163.25 379.562C162.833 378.458 162.458 377.26 162.125 375.969C161.812 374.677 161.542 373.333 161.312 371.938C161.083 370.542 160.896 369.167 160.75 367.812C160.625 366.458 160.531 365.177 160.469 363.969C160.406 362.74 160.375 361.667 160.375 360.75C160.375 359.208 160.438 357.594 160.562 355.906C160.708 354.219 160.969 352.552 161.344 350.906C161.719 349.24 162.229 347.635 162.875 346.094C163.521 344.552 164.354 343.167 165.375 341.938C165.479 341.812 165.604 341.667 165.75 341.5C165.917 341.333 166.094 341.177 166.281 341.031C166.469 340.865 166.656 340.729 166.844 340.625C167.052 340.5 167.25 340.438 167.438 340.438C167.625 340.438 167.802 340.49 167.969 340.594C168.156 340.698 168.312 340.833 168.438 341C168.875 340.75 169.333 340.573 169.812 340.469C170.312 340.365 170.812 340.312 171.312 340.312C172.833 340.312 174.135 340.677 175.219 341.406C176.323 342.115 177.24 343.052 177.969 344.219C178.698 345.385 179.281 346.708 179.719 348.188C180.156 349.667 180.49 351.177 180.719 352.719C180.948 354.26 181.094 355.75 181.156 357.188C181.219 358.625 181.25 359.896 181.25 361ZM176.375 362.375C176.375 361.833 176.354 361.01 176.312 359.906C176.292 358.781 176.219 357.552 176.094 356.219C175.969 354.865 175.792 353.479 175.562 352.062C175.354 350.646 175.062 349.365 174.688 348.219C174.312 347.052 173.844 346.104 173.281 345.375C172.74 344.625 172.083 344.25 171.312 344.25C171 344.25 170.719 344.396 170.469 344.688C170.219 344.979 169.979 345.354 169.75 345.812C169.521 346.271 169.312 346.771 169.125 347.312C168.938 347.854 168.75 348.375 168.562 348.875C168.375 349.375 168.198 349.823 168.031 350.219C167.865 350.615 167.688 350.896 167.5 351.062C167.438 351.125 167.333 351.167 167.188 351.188C167.062 351.188 166.938 351.188 166.812 351.188C166.458 351.188 166.125 351.125 165.812 351C165.458 352.417 165.208 353.833 165.062 355.25C164.938 356.646 164.875 358.062 164.875 359.5C164.875 359.938 164.896 360.594 164.938 361.469C164.979 362.344 165.042 363.344 165.125 364.469C165.208 365.594 165.323 366.802 165.469 368.094C165.615 369.385 165.792 370.677 166 371.969C166.208 373.24 166.448 374.469 166.719 375.656C167.01 376.823 167.344 377.865 167.719 378.781C168.094 379.677 168.51 380.396 168.969 380.938C169.427 381.479 169.938 381.75 170.5 381.75C170.812 381.75 171.094 381.667 171.344 381.5C171.594 381.312 171.833 381.125 172.062 380.938C172.688 380.375 173.229 379.635 173.688 378.719C174.146 377.802 174.531 376.792 174.844 375.688C175.156 374.583 175.417 373.427 175.625 372.219C175.833 370.99 175.99 369.781 176.094 368.594C176.198 367.406 176.271 366.281 176.312 365.219C176.354 364.135 176.375 363.188 176.375 362.375ZM211.062 342.375C211.062 343.208 210.875 343.833 210.5 344.25C210.146 344.646 209.688 344.927 209.125 345.094C208.562 345.26 207.948 345.365 207.281 345.406C206.635 345.427 206.021 345.479 205.438 345.562L203.75 345.75C204.229 349.438 204.521 353.125 204.625 356.812C204.75 360.479 204.812 364.188 204.812 367.938C204.812 369.104 204.781 370.344 204.719 371.656C204.656 372.948 204.51 374.24 204.281 375.531C204.052 376.802 203.719 378.021 203.281 379.188C202.844 380.354 202.25 381.385 201.5 382.281C200.75 383.156 199.823 383.865 198.719 384.406C197.615 384.927 196.292 385.188 194.75 385.188C192.979 385.188 191.396 384.812 190 384.062C188.625 383.292 187.458 382.292 186.5 381.062C185.542 379.833 184.812 378.438 184.312 376.875C183.812 375.292 183.562 373.688 183.562 372.062C183.562 371.729 183.573 371.188 183.594 370.438C183.635 369.688 183.719 368.927 183.844 368.156C183.99 367.365 184.198 366.677 184.469 366.094C184.76 365.49 185.146 365.188 185.625 365.188C185.896 365.188 186.229 365.26 186.625 365.406C187.042 365.531 187.427 365.708 187.781 365.938C188.156 366.167 188.469 366.438 188.719 366.75C188.99 367.042 189.125 367.354 189.125 367.688C189.125 368.479 189.031 369.25 188.844 370C188.656 370.75 188.562 371.521 188.562 372.312C188.562 373.167 188.688 374.115 188.938 375.156C189.188 376.198 189.562 377.188 190.062 378.125C190.562 379.042 191.188 379.812 191.938 380.438C192.708 381.062 193.604 381.375 194.625 381.375C195.375 381.375 196.01 381.24 196.531 380.969C197.073 380.677 197.521 380.302 197.875 379.844C198.25 379.365 198.542 378.823 198.75 378.219C198.979 377.615 199.167 377 199.312 376.375C199.792 374.271 200.062 372.146 200.125 370C200.208 367.833 200.25 365.646 200.25 363.438C200.25 360.583 200.177 357.729 200.031 354.875C199.906 352.021 199.667 349.167 199.312 346.312C197.896 346.479 196.5 346.656 195.125 346.844C193.75 347.031 192.354 347.125 190.938 347.125C190.583 347.125 190.302 347.052 190.094 346.906C189.906 346.76 189.812 346.5 189.812 346.125C189.812 345.396 190.031 344.844 190.469 344.469C190.906 344.073 191.458 343.792 192.125 343.625C193.229 343.312 194.354 343.094 195.5 342.969C196.667 342.823 197.812 342.667 198.938 342.5V342C198.938 341.646 199.062 341.427 199.312 341.344C199.562 341.24 199.833 341.188 200.125 341.188C200.562 341.188 200.99 341.25 201.406 341.375C201.823 341.5 202.208 341.708 202.562 342C203.729 341.812 204.885 341.594 206.031 341.344C207.198 341.073 208.396 340.938 209.625 340.938C210.062 340.938 210.406 341.073 210.656 341.344C210.927 341.594 211.062 341.938 211.062 342.375ZM234.594 378.188C234.594 378.542 234.448 378.885 234.156 379.219C233.885 379.552 233.552 379.875 233.156 380.188C232.76 380.5 232.354 380.792 231.938 381.062C231.521 381.312 231.177 381.521 230.906 381.688C230.198 382.146 229.49 382.573 228.781 382.969C228.094 383.365 227.375 383.708 226.625 384C225.896 384.292 225.135 384.521 224.344 384.688C223.573 384.854 222.76 384.938 221.906 384.938L221.406 385C220.719 385 220.031 384.927 219.344 384.781C218.677 384.615 218.052 384.375 217.469 384.062C216.885 383.729 216.365 383.312 215.906 382.812C215.448 382.312 215.094 381.708 214.844 381C214.656 380.438 214.51 379.771 214.406 379C214.302 378.229 214.219 377.427 214.156 376.594C214.115 375.76 214.073 374.948 214.031 374.156C214.01 373.344 213.99 372.625 213.969 372C213.656 365.625 213.406 359.25 213.219 352.875C213.177 352.146 213.146 351.417 213.125 350.688C213.104 349.958 213.094 349.229 213.094 348.5C213.094 347.25 213.167 346.188 213.312 345.312C213.458 344.438 213.75 343.719 214.188 343.156C214.625 342.594 215.25 342.188 216.062 341.938C216.896 341.688 217.99 341.562 219.344 341.562C220.698 341.562 222.052 341.573 223.406 341.594C224.781 341.615 226.156 341.625 227.531 341.625C227.948 341.625 228.365 341.615 228.781 341.594C229.198 341.552 229.615 341.583 230.031 341.688C230.281 341.729 230.5 341.802 230.688 341.906C230.875 341.99 230.969 342.188 230.969 342.5C230.969 343.25 230.719 343.812 230.219 344.188C229.719 344.542 229.125 344.781 228.438 344.906C227.75 345.031 227.031 345.094 226.281 345.094C225.552 345.073 224.948 345.062 224.469 345.062H220.406C219.99 345.062 219.573 345.062 219.156 345.062C218.74 345.062 218.323 345.083 217.906 345.125C217.781 345.438 217.698 345.76 217.656 346.094C217.615 346.427 217.594 346.771 217.594 347.125C217.594 349.396 217.646 351.635 217.75 353.844C217.875 356.052 217.99 358.292 218.094 360.562C219.385 360.458 220.667 360.333 221.938 360.188C223.208 360.042 224.49 359.875 225.781 359.688C225.969 359.688 226.135 359.677 226.281 359.656C226.448 359.635 226.615 359.625 226.781 359.625C227.219 359.625 227.521 359.74 227.688 359.969C227.875 360.198 227.969 360.521 227.969 360.938C227.969 361.229 227.948 361.5 227.906 361.75C227.885 362 227.823 362.25 227.719 362.5C227.573 362.917 227.333 363.219 227 363.406C226.667 363.594 226.292 363.729 225.875 363.812C225.458 363.875 225.021 363.906 224.562 363.906C224.125 363.906 223.74 363.917 223.406 363.938C222.531 363.979 221.667 364.01 220.812 364.031C219.979 364.052 219.135 364.083 218.281 364.125C218.302 364.562 218.333 365.219 218.375 366.094C218.417 366.969 218.458 367.958 218.5 369.062C218.562 370.146 218.625 371.271 218.688 372.438C218.771 373.604 218.854 374.708 218.938 375.75C219.021 376.771 219.115 377.667 219.219 378.438C219.323 379.208 219.427 379.729 219.531 380C219.76 380.438 220.021 380.729 220.312 380.875C220.604 381 220.99 381.062 221.469 381.062C222.24 381.062 223.052 380.917 223.906 380.625C224.76 380.312 225.594 379.927 226.406 379.469C227.219 378.99 227.99 378.469 228.719 377.906C229.469 377.344 230.115 376.792 230.656 376.25C230.885 376.062 231.115 375.875 231.344 375.688C231.573 375.479 231.844 375.375 232.156 375.375C232.469 375.375 232.771 375.469 233.062 375.656C233.354 375.844 233.615 376.083 233.844 376.375C234.073 376.646 234.25 376.948 234.375 377.281C234.521 377.615 234.594 377.917 234.594 378.188ZM258.938 375.75C258.938 376.062 258.885 376.375 258.781 376.688C258.698 376.979 258.604 377.271 258.5 377.562C258.042 378.75 257.479 379.854 256.812 380.875C256.146 381.875 255.375 382.74 254.5 383.469C253.625 384.198 252.635 384.771 251.531 385.188C250.427 385.604 249.208 385.812 247.875 385.812C246.104 385.812 244.583 385.438 243.312 384.688C242.042 383.938 240.958 382.969 240.062 381.781C239.167 380.573 238.427 379.229 237.844 377.75C237.281 376.271 236.833 374.792 236.5 373.312C236 371.167 235.615 369.021 235.344 366.875C235.073 364.708 234.938 362.542 234.938 360.375C234.938 359.104 234.99 357.792 235.094 356.438C235.219 355.083 235.427 353.75 235.719 352.438C236.01 351.104 236.406 349.823 236.906 348.594C237.406 347.344 238.031 346.198 238.781 345.156C239.531 344.094 240.417 343.156 241.438 342.344C242.479 341.531 243.688 340.896 245.062 340.438C245.562 340.25 246.083 340.125 246.625 340.062C247.167 339.979 247.708 339.938 248.25 339.938C249.333 339.938 250.365 340.115 251.344 340.469C252.323 340.823 253.177 341.323 253.906 341.969C254.656 342.615 255.24 343.396 255.656 344.312C256.094 345.229 256.312 346.25 256.312 347.375C256.312 347.75 256.229 348.031 256.062 348.219C255.896 348.406 255.604 348.5 255.188 348.5C254.417 348.5 253.812 348.375 253.375 348.125C252.958 347.875 252.615 347.562 252.344 347.188C252.073 346.812 251.844 346.406 251.656 345.969C251.49 345.531 251.281 345.125 251.031 344.75C250.781 344.375 250.448 344.062 250.031 343.812C249.615 343.562 249.042 343.438 248.312 343.438C247.583 343.438 246.896 343.583 246.25 343.875C245.625 344.146 245.042 344.51 244.5 344.969C243.979 345.427 243.5 345.948 243.062 346.531C242.646 347.094 242.271 347.667 241.938 348.25C241.062 349.875 240.448 351.615 240.094 353.469C239.74 355.302 239.562 357.146 239.562 359C239.562 359.625 239.583 360.438 239.625 361.438C239.688 362.417 239.771 363.5 239.875 364.688C240 365.875 240.167 367.135 240.375 368.469C240.583 369.781 240.833 371.073 241.125 372.344C241.438 373.615 241.802 374.833 242.219 376C242.656 377.167 243.146 378.188 243.688 379.062C244.25 379.938 244.875 380.635 245.562 381.156C246.271 381.677 247.062 381.938 247.938 381.938C248.833 381.938 249.625 381.708 250.312 381.25C251 380.771 251.583 380.177 252.062 379.469C252.562 378.74 252.969 377.958 253.281 377.125C253.615 376.271 253.875 375.479 254.062 374.75C254.125 374.542 254.177 374.354 254.219 374.188C254.281 374.021 254.354 373.875 254.438 373.75C254.542 373.625 254.667 373.531 254.812 373.469C254.958 373.406 255.167 373.375 255.438 373.375C255.729 373.375 256.073 373.438 256.469 373.562C256.885 373.667 257.271 373.823 257.625 374.031C258 374.24 258.312 374.49 258.562 374.781C258.812 375.073 258.938 375.396 258.938 375.75ZM280.75 342C280.75 342.75 280.531 343.365 280.094 343.844C279.677 344.323 279.104 344.646 278.375 344.812C277.208 345.062 276.01 345.198 274.781 345.219C273.573 345.219 272.375 345.25 271.188 345.312V351.5C271.188 356.75 271.344 361.99 271.656 367.219C271.99 372.427 272.521 377.646 273.25 382.875C273.312 383.188 273.375 383.5 273.438 383.812C273.521 384.125 273.562 384.438 273.562 384.75C273.562 385.25 273.427 385.615 273.156 385.844C272.906 386.073 272.542 386.188 272.062 386.188C271.688 386.188 271.219 386.135 270.656 386.031C270.115 385.948 269.688 385.812 269.375 385.625C268.958 385.375 268.688 385.125 268.562 384.875C268.458 384.604 268.375 384.25 268.312 383.812C268.083 382.333 267.927 380.854 267.844 379.375C267.76 377.896 267.667 376.417 267.562 374.938C267.312 371.771 267.104 368.615 266.938 365.469C266.771 362.323 266.688 359.167 266.688 356C266.688 354.271 266.698 352.552 266.719 350.844C266.74 349.135 266.75 347.396 266.75 345.625C265.458 345.75 264.156 345.875 262.844 346C261.552 346.125 260.25 346.188 258.938 346.188C258.625 346.188 258.375 346.115 258.188 345.969C257.979 345.802 257.875 345.562 257.875 345.25C257.875 344.521 258.115 343.958 258.594 343.562C259.073 343.146 259.646 342.854 260.312 342.688C261.375 342.458 262.458 342.312 263.562 342.25C264.667 342.167 265.771 342.062 266.875 341.938C266.875 341.729 266.885 341.531 266.906 341.344C266.927 341.135 266.969 340.958 267.031 340.812C267.115 340.646 267.229 340.51 267.375 340.406C267.521 340.302 267.729 340.25 268 340.25C268.5 340.25 269.01 340.365 269.531 340.594C270.052 340.823 270.458 341.146 270.75 341.562L275.938 341C276.438 340.938 276.938 340.875 277.438 340.812C277.938 340.729 278.438 340.688 278.938 340.688C279.167 340.688 279.385 340.698 279.594 340.719C279.823 340.74 280.021 340.802 280.188 340.906C280.354 340.99 280.49 341.125 280.594 341.312C280.698 341.479 280.75 341.708 280.75 342ZM301.188 375.125C301.188 376.667 300.938 378.125 300.438 379.5C299.938 380.875 299.219 382.083 298.281 383.125C297.365 384.146 296.25 384.958 294.938 385.562C293.625 386.188 292.167 386.5 290.562 386.5C289.146 386.5 287.833 386.271 286.625 385.812C285.438 385.375 284.406 384.75 283.531 383.938C282.656 383.125 281.969 382.135 281.469 380.969C280.99 379.802 280.75 378.5 280.75 377.062C280.75 376.771 280.76 376.406 280.781 375.969C280.802 375.531 280.865 375.115 280.969 374.719C281.094 374.302 281.26 373.958 281.469 373.688C281.698 373.396 282.021 373.25 282.438 373.25C282.771 373.25 283.135 373.323 283.531 373.469C283.948 373.594 284.333 373.771 284.688 374C285.042 374.229 285.333 374.51 285.562 374.844C285.812 375.156 285.938 375.5 285.938 375.875V377.688C285.938 379.125 286.323 380.302 287.094 381.219C287.885 382.115 289.021 382.562 290.5 382.562C291.542 382.562 292.438 382.323 293.188 381.844C293.938 381.365 294.542 380.75 295 380C295.479 379.25 295.823 378.417 296.031 377.5C296.26 376.562 296.375 375.646 296.375 374.75C296.375 373 296.01 371.302 295.281 369.656C294.573 368.01 293.677 366.406 292.594 364.844C291.51 363.26 290.333 361.708 289.062 360.188C287.792 358.667 286.615 357.156 285.531 355.656C284.448 354.156 283.542 352.656 282.812 351.156C282.104 349.656 281.75 348.125 281.75 346.562C281.75 345.292 282 344.198 282.5 343.281C283.021 342.344 283.698 341.583 284.531 341C285.385 340.396 286.344 339.958 287.406 339.688C288.49 339.396 289.604 339.25 290.75 339.25C292.146 339.25 293.396 339.448 294.5 339.844C295.604 340.24 296.542 340.812 297.312 341.562C298.083 342.312 298.667 343.24 299.062 344.344C299.479 345.427 299.688 346.667 299.688 348.062C299.688 348.271 299.677 348.531 299.656 348.844C299.635 349.156 299.583 349.469 299.5 349.781C299.417 350.073 299.292 350.333 299.125 350.562C298.958 350.771 298.729 350.875 298.438 350.875C298.021 350.875 297.604 350.771 297.188 350.562C296.833 350.375 296.542 350.198 296.312 350.031C296.104 349.844 295.938 349.646 295.812 349.438C295.688 349.208 295.594 348.958 295.531 348.688C295.469 348.417 295.417 348.083 295.375 347.688C295.271 346.938 295.135 346.26 294.969 345.656C294.802 345.052 294.552 344.542 294.219 344.125C293.885 343.708 293.448 343.385 292.906 343.156C292.365 342.927 291.667 342.812 290.812 342.812C290.208 342.812 289.625 342.875 289.062 343C288.521 343.125 288.042 343.333 287.625 343.625C287.229 343.917 286.906 344.302 286.656 344.781C286.427 345.24 286.312 345.812 286.312 346.5C286.312 347.458 286.521 348.438 286.938 349.438C287.375 350.438 287.938 351.458 288.625 352.5C289.333 353.542 290.125 354.615 291 355.719C291.896 356.802 292.812 357.927 293.75 359.094C294.688 360.26 295.594 361.469 296.469 362.719C297.365 363.948 298.156 365.229 298.844 366.562C299.552 367.896 300.115 369.281 300.531 370.719C300.969 372.135 301.188 373.604 301.188 375.125ZM322.125 378.812C321.333 377.271 320.583 375.719 319.875 374.156C319.188 372.594 318.562 371 318 369.375C317.625 370.625 317.281 371.938 316.969 373.312C316.656 374.667 316.5 376 316.5 377.312C316.5 377.604 316.521 377.99 316.562 378.469C316.604 378.927 316.688 379.375 316.812 379.812C316.938 380.25 317.125 380.635 317.375 380.969C317.625 381.281 317.958 381.438 318.375 381.438C318.708 381.438 319.052 381.344 319.406 381.156C319.76 380.969 320.104 380.74 320.438 380.469C320.771 380.198 321.083 379.917 321.375 379.625C321.667 379.312 321.917 379.042 322.125 378.812ZM318.938 353.688C319.104 353.167 319.271 352.625 319.438 352.062C319.625 351.5 319.792 350.927 319.938 350.344C320.083 349.74 320.198 349.146 320.281 348.562C320.385 347.958 320.438 347.375 320.438 346.812C320.438 346.646 320.417 346.479 320.375 346.312C320.354 346.146 320.292 345.979 320.188 345.812C320.083 345.771 320 345.75 319.938 345.75C319.875 345.75 319.812 345.75 319.75 345.75H319.562C319.396 345.979 319.271 346.26 319.188 346.594C319.104 346.927 319.031 347.281 318.969 347.656C318.927 348.031 318.896 348.396 318.875 348.75C318.875 349.104 318.875 349.417 318.875 349.688V350.875C318.875 351.354 318.875 351.823 318.875 352.281C318.875 352.74 318.896 353.208 318.938 353.688ZM330.25 369.625C330.25 370.417 330.146 371.26 329.938 372.156C329.75 373.031 329.49 373.906 329.156 374.781C328.844 375.656 328.479 376.5 328.062 377.312C327.646 378.125 327.208 378.854 326.75 379.5C326.833 379.667 327.021 379.99 327.312 380.469C327.604 380.948 327.896 381.448 328.188 381.969C328.5 382.49 328.771 382.979 329 383.438C329.25 383.875 329.375 384.146 329.375 384.25C329.375 384.438 329.302 384.594 329.156 384.719C329.031 384.823 328.875 384.906 328.688 384.969C328.5 385.031 328.302 385.073 328.094 385.094C327.885 385.115 327.708 385.125 327.562 385.125C327.083 385.125 326.677 385.062 326.344 384.938C326.01 384.792 325.719 384.604 325.469 384.375C325.219 384.146 324.99 383.875 324.781 383.562C324.573 383.229 324.354 382.875 324.125 382.5C323.312 383.229 322.417 383.833 321.438 384.312C320.458 384.771 319.417 385 318.312 385C317.167 385 316.198 384.792 315.406 384.375C314.635 383.958 314.01 383.396 313.531 382.688C313.052 381.979 312.708 381.167 312.5 380.25C312.292 379.333 312.188 378.375 312.188 377.375C312.188 376.146 312.302 374.865 312.531 373.531C312.781 372.198 313.094 370.865 313.469 369.531C313.844 368.177 314.25 366.865 314.688 365.594C315.146 364.302 315.583 363.083 316 361.938C315.625 359.958 315.323 357.948 315.094 355.906C314.865 353.865 314.75 351.833 314.75 349.812C314.75 348.938 314.792 348.062 314.875 347.188C314.979 346.292 315.198 345.49 315.531 344.781C315.885 344.073 316.385 343.5 317.031 343.062C317.698 342.604 318.583 342.375 319.688 342.375C320.396 342.375 321.052 342.479 321.656 342.688C322.26 342.896 322.781 343.198 323.219 343.594C323.656 343.99 324 344.479 324.25 345.062C324.5 345.625 324.625 346.271 324.625 347C324.625 348.167 324.469 349.427 324.156 350.781C323.844 352.115 323.458 353.479 323 354.875C322.542 356.25 322.052 357.604 321.531 358.938C321.031 360.271 320.583 361.5 320.188 362.625C320.667 364.771 321.26 366.854 321.969 368.875C322.677 370.896 323.5 372.917 324.438 374.938C324.875 373.896 325.188 372.865 325.375 371.844C325.583 370.823 325.688 369.75 325.688 368.625C325.688 368.208 325.76 367.875 325.906 367.625C326.073 367.375 326.396 367.25 326.875 367.25C327.25 367.25 327.635 367.302 328.031 367.406C328.427 367.49 328.792 367.625 329.125 367.812C329.458 368 329.729 368.25 329.938 368.562C330.146 368.854 330.25 369.208 330.25 369.625ZM106.562 431.812C106.562 432.25 106.406 432.708 106.094 433.188C105.781 433.667 105.438 434.021 105.062 434.25C104.958 434.312 104.781 434.375 104.531 434.438C104.281 434.5 104.01 434.562 103.719 434.625C103.448 434.667 103.177 434.719 102.906 434.781C102.656 434.823 102.458 434.854 102.312 434.875L103.062 439.5C103.292 440.938 103.458 442.385 103.562 443.844C103.688 445.281 103.958 446.708 104.375 448.125C104.417 448.25 104.458 448.365 104.5 448.469C104.542 448.573 104.562 448.708 104.562 448.875C104.562 449.146 104.479 449.354 104.312 449.5C104.167 449.646 103.979 449.75 103.75 449.812C103.542 449.896 103.312 449.948 103.062 449.969C102.812 449.99 102.583 450 102.375 450H101.938C101.292 450 100.792 449.948 100.438 449.844C100.104 449.74 99.8438 449.562 99.6562 449.312C99.4688 449.062 99.3438 448.75 99.2812 448.375C99.2188 447.979 99.1458 447.5 99.0625 446.938C98.5625 443.125 98 439.312 97.375 435.5C96.0833 435.667 94.7812 435.823 93.4688 435.969C92.1771 436.115 90.875 436.25 89.5625 436.375L88.5625 442.5C88.5208 442.875 88.4583 443.385 88.375 444.031C88.3125 444.677 88.2292 445.344 88.125 446.031C88.0417 446.698 87.9375 447.323 87.8125 447.906C87.7083 448.49 87.5833 448.917 87.4375 449.188C87.3125 449.438 87.1979 449.615 87.0938 449.719C86.9896 449.823 86.7917 449.875 86.5 449.875C86.125 449.875 85.75 449.802 85.375 449.656C85.0208 449.531 84.6979 449.344 84.4062 449.094C84.1354 448.865 83.9167 448.583 83.75 448.25C83.5833 447.917 83.5 447.542 83.5 447.125C83.5 446.708 83.5417 446.292 83.625 445.875C83.7292 445.458 83.8125 445.042 83.875 444.625C84.1042 443.25 84.3125 441.885 84.5 440.531C84.6875 439.156 84.8958 437.792 85.125 436.438C84.9792 436.417 84.8125 436.385 84.625 436.344C84.4375 436.281 84.25 436.208 84.0625 436.125C83.8958 436.042 83.75 435.938 83.625 435.812C83.5 435.688 83.4375 435.542 83.4375 435.375C83.4375 435.167 83.5104 434.979 83.6562 434.812C83.8229 434.625 84.0104 434.458 84.2188 434.312C84.4479 434.146 84.6771 434.01 84.9062 433.906C85.1354 433.781 85.3333 433.688 85.5 433.625C85.9375 430.708 86.3542 427.802 86.75 424.906C87.1458 422.01 87.5 419.083 87.8125 416.125C87.8958 415.333 87.9688 414.531 88.0312 413.719C88.0938 412.906 88.1562 412.094 88.2188 411.281C88.3021 410.469 88.3958 409.667 88.5 408.875C88.625 408.083 88.7917 407.292 89 406.5C89.1875 405.75 89.5 405.146 89.9375 404.688C90.375 404.229 91.0208 404 91.875 404C92.125 404 92.3646 404.021 92.5938 404.062C92.8438 404.104 93.0625 404.188 93.25 404.312C93.7917 404.583 94.3542 405.323 94.9375 406.531C95.5208 407.74 96.1042 409.208 96.6875 410.938C97.2708 412.646 97.8229 414.5 98.3438 416.5C98.8854 418.5 99.375 420.438 99.8125 422.312C100.25 424.188 100.625 425.885 100.938 427.406C101.25 428.906 101.479 430.021 101.625 430.75C102.062 430.688 102.5 430.635 102.938 430.594C103.375 430.531 103.812 430.5 104.25 430.5C104.458 430.5 104.698 430.51 104.969 430.531C105.24 430.552 105.49 430.615 105.719 430.719C105.969 430.802 106.167 430.938 106.312 431.125C106.479 431.292 106.562 431.521 106.562 431.812ZM96.75 431.562C96.2083 428.604 95.6146 425.677 94.9688 422.781C94.3438 419.865 93.6042 416.958 92.75 414.062C92.375 417.208 91.9688 420.333 91.5312 423.438C91.0938 426.542 90.625 429.646 90.125 432.75C91.25 432.583 92.3542 432.406 93.4375 432.219C94.5417 432.01 95.6458 431.792 96.75 431.562ZM130.969 439.75C130.969 440.062 130.917 440.375 130.812 440.688C130.729 440.979 130.635 441.271 130.531 441.562C130.073 442.75 129.51 443.854 128.844 444.875C128.177 445.875 127.406 446.74 126.531 447.469C125.656 448.198 124.667 448.771 123.562 449.188C122.458 449.604 121.24 449.812 119.906 449.812C118.135 449.812 116.615 449.438 115.344 448.688C114.073 447.938 112.99 446.969 112.094 445.781C111.198 444.573 110.458 443.229 109.875 441.75C109.312 440.271 108.865 438.792 108.531 437.312C108.031 435.167 107.646 433.021 107.375 430.875C107.104 428.708 106.969 426.542 106.969 424.375C106.969 423.104 107.021 421.792 107.125 420.438C107.25 419.083 107.458 417.75 107.75 416.438C108.042 415.104 108.438 413.823 108.938 412.594C109.438 411.344 110.062 410.198 110.812 409.156C111.562 408.094 112.448 407.156 113.469 406.344C114.51 405.531 115.719 404.896 117.094 404.438C117.594 404.25 118.115 404.125 118.656 404.062C119.198 403.979 119.74 403.938 120.281 403.938C121.365 403.938 122.396 404.115 123.375 404.469C124.354 404.823 125.208 405.323 125.938 405.969C126.688 406.615 127.271 407.396 127.688 408.312C128.125 409.229 128.344 410.25 128.344 411.375C128.344 411.75 128.26 412.031 128.094 412.219C127.927 412.406 127.635 412.5 127.219 412.5C126.448 412.5 125.844 412.375 125.406 412.125C124.99 411.875 124.646 411.562 124.375 411.188C124.104 410.812 123.875 410.406 123.688 409.969C123.521 409.531 123.312 409.125 123.062 408.75C122.812 408.375 122.479 408.062 122.062 407.812C121.646 407.562 121.073 407.438 120.344 407.438C119.615 407.438 118.927 407.583 118.281 407.875C117.656 408.146 117.073 408.51 116.531 408.969C116.01 409.427 115.531 409.948 115.094 410.531C114.677 411.094 114.302 411.667 113.969 412.25C113.094 413.875 112.479 415.615 112.125 417.469C111.771 419.302 111.594 421.146 111.594 423C111.594 423.625 111.615 424.438 111.656 425.438C111.719 426.417 111.802 427.5 111.906 428.688C112.031 429.875 112.198 431.135 112.406 432.469C112.615 433.781 112.865 435.073 113.156 436.344C113.469 437.615 113.833 438.833 114.25 440C114.688 441.167 115.177 442.188 115.719 443.062C116.281 443.938 116.906 444.635 117.594 445.156C118.302 445.677 119.094 445.938 119.969 445.938C120.865 445.938 121.656 445.708 122.344 445.25C123.031 444.771 123.615 444.177 124.094 443.469C124.594 442.74 125 441.958 125.312 441.125C125.646 440.271 125.906 439.479 126.094 438.75C126.156 438.542 126.208 438.354 126.25 438.188C126.312 438.021 126.385 437.875 126.469 437.75C126.573 437.625 126.698 437.531 126.844 437.469C126.99 437.406 127.198 437.375 127.469 437.375C127.76 437.375 128.104 437.438 128.5 437.562C128.917 437.667 129.302 437.823 129.656 438.031C130.031 438.24 130.344 438.49 130.594 438.781C130.844 439.073 130.969 439.396 130.969 439.75ZM156.938 424.688C156.938 425.625 156.698 426.292 156.219 426.688C155.74 427.062 155.062 427.333 154.188 427.5C154.375 430.708 154.49 433.896 154.531 437.062C154.594 440.229 154.625 443.417 154.625 446.625C154.625 447.125 154.521 447.51 154.312 447.781C154.104 448.052 153.729 448.188 153.188 448.188C152.729 448.188 152.271 448.135 151.812 448.031C151.375 447.927 150.979 447.771 150.625 447.562C150.271 447.333 149.979 447.042 149.75 446.688C149.542 446.312 149.438 445.854 149.438 445.312V435.562C149.438 434.333 149.438 433.104 149.438 431.875C149.438 430.646 149.417 429.417 149.375 428.188C147.583 428.438 145.792 428.656 144 428.844C142.208 429.01 140.417 429.125 138.625 429.188C138.688 433.625 138.812 438.062 139 442.5C139.062 443.417 139.125 444.312 139.188 445.188C139.271 446.062 139.312 446.938 139.312 447.812C139.312 448.229 139.198 448.542 138.969 448.75C138.74 448.958 138.417 449.062 138 449.062C137.688 449.062 137.354 449.042 137 449C136.646 448.938 136.292 448.844 135.938 448.719C135.604 448.594 135.292 448.438 135 448.25C134.708 448.062 134.479 447.833 134.312 447.562C134.25 447.458 134.198 447.146 134.156 446.625C134.115 446.104 134.073 445.448 134.031 444.656C134.01 443.865 133.99 442.969 133.969 441.969C133.948 440.969 133.938 439.938 133.938 438.875C133.938 437.812 133.938 436.771 133.938 435.75C133.938 434.708 133.938 433.75 133.938 432.875C133.938 432 133.938 431.24 133.938 430.594C133.938 429.948 133.938 429.5 133.938 429.25C133.646 429.25 133.385 429.188 133.156 429.062C132.927 428.917 132.812 428.688 132.812 428.375C132.812 428 132.917 427.646 133.125 427.312C133.354 426.958 133.625 426.667 133.938 426.438V407.562C133.938 407.146 134.01 406.812 134.156 406.562C134.323 406.312 134.625 406.188 135.062 406.188C135.771 406.188 136.333 406.292 136.75 406.5C137.188 406.708 137.51 407 137.719 407.375C137.948 407.729 138.094 408.167 138.156 408.688C138.24 409.188 138.292 409.729 138.312 410.312C138.375 412.854 138.417 415.396 138.438 417.938C138.458 420.479 138.5 423.021 138.562 425.562C140.354 425.396 142.135 425.229 143.906 425.062C145.677 424.875 147.458 424.604 149.25 424.25C149.146 422.042 149.01 419.854 148.844 417.688C148.698 415.521 148.479 413.333 148.188 411.125C148.021 410.083 147.823 409.052 147.594 408.031C147.365 406.99 147.25 405.938 147.25 404.875C147.25 404.5 147.385 404.26 147.656 404.156C147.948 404.052 148.25 404 148.562 404C149.062 404 149.562 404.083 150.062 404.25C150.583 404.417 151 404.708 151.312 405.125C151.5 405.396 151.698 405.969 151.906 406.844C152.115 407.698 152.302 408.719 152.469 409.906C152.656 411.094 152.833 412.375 153 413.75C153.167 415.125 153.312 416.448 153.438 417.719C153.562 418.969 153.667 420.104 153.75 421.125C153.854 422.125 153.917 422.854 153.938 423.312C154.188 423.25 154.448 423.198 154.719 423.156C154.99 423.094 155.25 423.062 155.5 423.062C156 423.062 156.365 423.219 156.594 423.531C156.823 423.823 156.938 424.208 156.938 424.688ZM178.094 444.5C178.094 445.104 177.938 445.677 177.625 446.219C177.312 446.74 176.885 447.125 176.344 447.375C176.177 447.458 175.771 447.542 175.125 447.625C174.479 447.688 173.781 447.75 173.031 447.812C172.281 447.875 171.562 447.938 170.875 448C170.208 448.062 169.74 448.104 169.469 448.125C169.406 448.479 169.24 448.729 168.969 448.875C168.698 449 168.406 449.062 168.094 449.062C167.74 449.062 167.333 449.01 166.875 448.906C166.417 448.802 166.01 448.688 165.656 448.562C164.719 448.688 163.771 448.823 162.812 448.969C161.854 449.115 160.885 449.188 159.906 449.188C159.156 449.188 158.781 448.833 158.781 448.125C158.781 447.417 158.979 446.875 159.375 446.5C159.771 446.125 160.25 445.844 160.812 445.656C161.375 445.469 161.979 445.344 162.625 445.281C163.271 445.219 163.844 445.146 164.344 445.062C164.24 439.146 164.125 433.271 164 427.438C163.896 421.604 163.844 415.729 163.844 409.812C162.99 409.875 162.156 409.938 161.344 410C160.531 410.042 159.719 410.062 158.906 410.062C158.74 410.062 158.562 410.062 158.375 410.062C158.188 410.042 158.01 410.01 157.844 409.969C157.698 409.906 157.573 409.823 157.469 409.719C157.344 409.594 157.281 409.417 157.281 409.188C157.281 408.792 157.365 408.448 157.531 408.156C157.698 407.844 157.917 407.594 158.188 407.406C158.479 407.198 158.792 407.031 159.125 406.906C159.458 406.781 159.802 406.688 160.156 406.625C161.052 406.458 161.958 406.323 162.875 406.219C163.812 406.094 164.74 405.979 165.656 405.875C166.594 405.75 167.521 405.625 168.438 405.5C169.375 405.375 170.302 405.208 171.219 405C172.094 404.812 172.969 404.573 173.844 404.281C174.719 403.969 175.615 403.812 176.531 403.812C177.031 403.812 177.365 404 177.531 404.375C177.698 404.729 177.781 405.125 177.781 405.562C177.781 405.917 177.74 406.26 177.656 406.594C177.594 406.906 177.448 407.208 177.219 407.5C177.094 407.667 176.812 407.833 176.375 408C175.958 408.146 175.448 408.281 174.844 408.406C174.26 408.531 173.625 408.656 172.938 408.781C172.271 408.885 171.615 408.99 170.969 409.094C170.344 409.177 169.771 409.25 169.25 409.312C168.729 409.375 168.344 409.417 168.094 409.438C168.323 412.333 168.479 415.229 168.562 418.125C168.667 421.021 168.75 423.917 168.812 426.812C168.875 429.708 168.938 432.604 169 435.5C169.062 438.396 169.177 441.292 169.344 444.188C170.531 444 171.729 443.823 172.938 443.656C174.146 443.469 175.365 443.375 176.594 443.375C176.948 443.375 177.281 443.458 177.594 443.625C177.927 443.771 178.094 444.062 178.094 444.5ZM202 442.188C202 442.542 201.854 442.885 201.562 443.219C201.292 443.552 200.958 443.875 200.562 444.188C200.167 444.5 199.76 444.792 199.344 445.062C198.927 445.312 198.583 445.521 198.312 445.688C197.604 446.146 196.896 446.573 196.188 446.969C195.5 447.365 194.781 447.708 194.031 448C193.302 448.292 192.542 448.521 191.75 448.688C190.979 448.854 190.167 448.938 189.312 448.938L188.812 449C188.125 449 187.438 448.927 186.75 448.781C186.083 448.615 185.458 448.375 184.875 448.062C184.292 447.729 183.771 447.312 183.312 446.812C182.854 446.312 182.5 445.708 182.25 445C182.062 444.438 181.917 443.771 181.812 443C181.708 442.229 181.625 441.427 181.562 440.594C181.521 439.76 181.479 438.948 181.438 438.156C181.417 437.344 181.396 436.625 181.375 436C181.062 429.625 180.812 423.25 180.625 416.875C180.583 416.146 180.552 415.417 180.531 414.688C180.51 413.958 180.5 413.229 180.5 412.5C180.5 411.25 180.573 410.188 180.719 409.312C180.865 408.438 181.156 407.719 181.594 407.156C182.031 406.594 182.656 406.188 183.469 405.938C184.302 405.688 185.396 405.562 186.75 405.562C188.104 405.562 189.458 405.573 190.812 405.594C192.188 405.615 193.562 405.625 194.938 405.625C195.354 405.625 195.771 405.615 196.188 405.594C196.604 405.552 197.021 405.583 197.438 405.688C197.688 405.729 197.906 405.802 198.094 405.906C198.281 405.99 198.375 406.188 198.375 406.5C198.375 407.25 198.125 407.812 197.625 408.188C197.125 408.542 196.531 408.781 195.844 408.906C195.156 409.031 194.438 409.094 193.688 409.094C192.958 409.073 192.354 409.062 191.875 409.062H187.812C187.396 409.062 186.979 409.062 186.562 409.062C186.146 409.062 185.729 409.083 185.312 409.125C185.188 409.438 185.104 409.76 185.062 410.094C185.021 410.427 185 410.771 185 411.125C185 413.396 185.052 415.635 185.156 417.844C185.281 420.052 185.396 422.292 185.5 424.562C186.792 424.458 188.073 424.333 189.344 424.188C190.615 424.042 191.896 423.875 193.188 423.688C193.375 423.688 193.542 423.677 193.688 423.656C193.854 423.635 194.021 423.625 194.188 423.625C194.625 423.625 194.927 423.74 195.094 423.969C195.281 424.198 195.375 424.521 195.375 424.938C195.375 425.229 195.354 425.5 195.312 425.75C195.292 426 195.229 426.25 195.125 426.5C194.979 426.917 194.74 427.219 194.406 427.406C194.073 427.594 193.698 427.729 193.281 427.812C192.865 427.875 192.427 427.906 191.969 427.906C191.531 427.906 191.146 427.917 190.812 427.938C189.938 427.979 189.073 428.01 188.219 428.031C187.385 428.052 186.542 428.083 185.688 428.125C185.708 428.562 185.74 429.219 185.781 430.094C185.823 430.969 185.865 431.958 185.906 433.062C185.969 434.146 186.031 435.271 186.094 436.438C186.177 437.604 186.26 438.708 186.344 439.75C186.427 440.771 186.521 441.667 186.625 442.438C186.729 443.208 186.833 443.729 186.938 444C187.167 444.438 187.427 444.729 187.719 444.875C188.01 445 188.396 445.062 188.875 445.062C189.646 445.062 190.458 444.917 191.312 444.625C192.167 444.312 193 443.927 193.812 443.469C194.625 442.99 195.396 442.469 196.125 441.906C196.875 441.344 197.521 440.792 198.062 440.25C198.292 440.062 198.521 439.875 198.75 439.688C198.979 439.479 199.25 439.375 199.562 439.375C199.875 439.375 200.177 439.469 200.469 439.656C200.76 439.844 201.021 440.083 201.25 440.375C201.479 440.646 201.656 440.948 201.781 441.281C201.927 441.615 202 441.917 202 442.188ZM221.469 417.812C221.469 422.75 221.052 427.625 220.219 432.438C219.406 437.229 218.031 441.917 216.094 446.5C216.156 446.646 216.25 446.854 216.375 447.125C216.5 447.396 216.625 447.688 216.75 448C216.875 448.292 216.979 448.573 217.062 448.844C217.167 449.115 217.219 449.312 217.219 449.438C217.219 449.729 217.135 449.948 216.969 450.094C216.802 450.24 216.594 450.344 216.344 450.406C216.094 450.469 215.833 450.5 215.562 450.5C215.312 450.5 215.094 450.5 214.906 450.5C214.365 450.5 213.885 450.469 213.469 450.406C213.052 450.344 212.635 450.125 212.219 449.75C211.927 449.5 211.583 448.875 211.188 447.875C210.812 446.854 210.396 445.594 209.938 444.094C209.479 442.573 209 440.865 208.5 438.969C208.021 437.073 207.531 435.125 207.031 433.125C206.552 431.104 206.083 429.104 205.625 427.125C205.167 425.125 204.74 423.271 204.344 421.562C203.969 419.854 203.635 418.344 203.344 417.031C203.073 415.719 202.865 414.75 202.719 414.125C202.49 413.062 202.229 412.01 201.938 410.969C201.667 409.927 201.531 408.854 201.531 407.75C201.531 407.375 201.667 407.135 201.938 407.031C202.208 406.927 202.49 406.875 202.781 406.875C203.385 406.875 203.958 406.979 204.5 407.188C205.042 407.396 205.469 407.75 205.781 408.25C205.948 408.542 206.073 408.938 206.156 409.438C206.26 409.917 206.344 410.312 206.406 410.625C207.073 413.667 207.76 416.698 208.469 419.719C209.177 422.719 209.927 425.729 210.719 428.75C211.219 430.646 211.708 432.521 212.188 434.375C212.688 436.229 213.24 438.083 213.844 439.938C214.885 436.646 215.625 433.281 216.062 429.844C216.5 426.406 216.719 422.958 216.719 419.5C216.719 418.958 216.708 418.281 216.688 417.469C216.688 416.656 216.677 415.792 216.656 414.875C216.635 413.938 216.594 412.979 216.531 412C216.49 411.021 216.427 410.083 216.344 409.188C216.26 408.292 216.146 407.469 216 406.719C215.875 405.948 215.719 405.333 215.531 404.875C215.469 404.708 215.396 404.562 215.312 404.438C215.25 404.292 215.219 404.125 215.219 403.938C215.219 403.688 215.312 403.49 215.5 403.344C215.688 403.198 215.906 403.083 216.156 403C216.406 402.917 216.667 402.865 216.938 402.844C217.208 402.823 217.427 402.812 217.594 402.812C218.156 402.812 218.646 402.875 219.062 403C219.5 403.104 219.927 403.375 220.344 403.812C220.531 404 220.688 404.427 220.812 405.094C220.938 405.76 221.042 406.552 221.125 407.469C221.208 408.385 221.271 409.375 221.312 410.438C221.375 411.479 221.417 412.49 221.438 413.469C221.458 414.448 221.469 415.323 221.469 416.094C221.469 416.865 221.469 417.438 221.469 417.812ZM248 442.188C248 442.542 247.854 442.885 247.562 443.219C247.292 443.552 246.958 443.875 246.562 444.188C246.167 444.5 245.76 444.792 245.344 445.062C244.927 445.312 244.583 445.521 244.312 445.688C243.604 446.146 242.896 446.573 242.188 446.969C241.5 447.365 240.781 447.708 240.031 448C239.302 448.292 238.542 448.521 237.75 448.688C236.979 448.854 236.167 448.938 235.312 448.938L234.812 449C234.125 449 233.438 448.927 232.75 448.781C232.083 448.615 231.458 448.375 230.875 448.062C230.292 447.729 229.771 447.312 229.312 446.812C228.854 446.312 228.5 445.708 228.25 445C228.062 444.438 227.917 443.771 227.812 443C227.708 442.229 227.625 441.427 227.562 440.594C227.521 439.76 227.479 438.948 227.438 438.156C227.417 437.344 227.396 436.625 227.375 436C227.062 429.625 226.812 423.25 226.625 416.875C226.583 416.146 226.552 415.417 226.531 414.688C226.51 413.958 226.5 413.229 226.5 412.5C226.5 411.25 226.573 410.188 226.719 409.312C226.865 408.438 227.156 407.719 227.594 407.156C228.031 406.594 228.656 406.188 229.469 405.938C230.302 405.688 231.396 405.562 232.75 405.562C234.104 405.562 235.458 405.573 236.812 405.594C238.188 405.615 239.562 405.625 240.938 405.625C241.354 405.625 241.771 405.615 242.188 405.594C242.604 405.552 243.021 405.583 243.438 405.688C243.688 405.729 243.906 405.802 244.094 405.906C244.281 405.99 244.375 406.188 244.375 406.5C244.375 407.25 244.125 407.812 243.625 408.188C243.125 408.542 242.531 408.781 241.844 408.906C241.156 409.031 240.438 409.094 239.688 409.094C238.958 409.073 238.354 409.062 237.875 409.062H233.812C233.396 409.062 232.979 409.062 232.562 409.062C232.146 409.062 231.729 409.083 231.312 409.125C231.188 409.438 231.104 409.76 231.062 410.094C231.021 410.427 231 410.771 231 411.125C231 413.396 231.052 415.635 231.156 417.844C231.281 420.052 231.396 422.292 231.5 424.562C232.792 424.458 234.073 424.333 235.344 424.188C236.615 424.042 237.896 423.875 239.188 423.688C239.375 423.688 239.542 423.677 239.688 423.656C239.854 423.635 240.021 423.625 240.188 423.625C240.625 423.625 240.927 423.74 241.094 423.969C241.281 424.198 241.375 424.521 241.375 424.938C241.375 425.229 241.354 425.5 241.312 425.75C241.292 426 241.229 426.25 241.125 426.5C240.979 426.917 240.74 427.219 240.406 427.406C240.073 427.594 239.698 427.729 239.281 427.812C238.865 427.875 238.427 427.906 237.969 427.906C237.531 427.906 237.146 427.917 236.812 427.938C235.938 427.979 235.073 428.01 234.219 428.031C233.385 428.052 232.542 428.083 231.688 428.125C231.708 428.562 231.74 429.219 231.781 430.094C231.823 430.969 231.865 431.958 231.906 433.062C231.969 434.146 232.031 435.271 232.094 436.438C232.177 437.604 232.26 438.708 232.344 439.75C232.427 440.771 232.521 441.667 232.625 442.438C232.729 443.208 232.833 443.729 232.938 444C233.167 444.438 233.427 444.729 233.719 444.875C234.01 445 234.396 445.062 234.875 445.062C235.646 445.062 236.458 444.917 237.312 444.625C238.167 444.312 239 443.927 239.812 443.469C240.625 442.99 241.396 442.469 242.125 441.906C242.875 441.344 243.521 440.792 244.062 440.25C244.292 440.062 244.521 439.875 244.75 439.688C244.979 439.479 245.25 439.375 245.562 439.375C245.875 439.375 246.177 439.469 246.469 439.656C246.76 439.844 247.021 440.083 247.25 440.375C247.479 440.646 247.656 440.948 247.781 441.281C247.927 441.615 248 441.917 248 442.188ZM275.125 449.062C275.125 449.479 275.021 449.812 274.812 450.062C274.625 450.312 274.292 450.438 273.812 450.438C273.562 450.438 273.302 450.406 273.031 450.344C272.76 450.302 272.5 450.229 272.25 450.125C271.729 449.979 271.312 449.844 271 449.719C270.708 449.594 270.479 449.427 270.312 449.219C270.167 449.031 270.073 448.781 270.031 448.469C269.99 448.156 269.958 447.729 269.938 447.188C269.771 442.917 269.583 438.688 269.375 434.5C269.188 430.292 268.875 426.062 268.438 421.812C268.146 423.25 267.865 424.688 267.594 426.125C267.323 427.562 267.042 429.021 266.75 430.5C266.458 432.042 266.177 433.615 265.906 435.219C265.656 436.823 265.25 438.375 264.688 439.875C264.458 440.479 264.177 440.958 263.844 441.312C263.51 441.646 263 441.812 262.312 441.812C261.812 441.812 261.406 441.729 261.094 441.562C260.781 441.375 260.479 441.104 260.188 440.75C259.917 440.458 259.625 439.896 259.312 439.062C259 438.229 258.667 437.26 258.312 436.156C257.979 435.031 257.646 433.833 257.312 432.562C256.979 431.292 256.667 430.073 256.375 428.906C256.083 427.719 255.823 426.635 255.594 425.656C255.365 424.677 255.188 423.938 255.062 423.438V427.688C255.062 430.458 255.115 433.219 255.219 435.969C255.323 438.719 255.5 441.458 255.75 444.188C255.812 444.792 255.896 445.396 256 446C256.125 446.604 256.188 447.208 256.188 447.812C256.188 448.354 256 448.708 255.625 448.875C255.271 449.042 254.875 449.125 254.438 449.125C253.25 449.125 252.333 448.875 251.688 448.375C251.062 447.854 250.75 446.979 250.75 445.75C250.75 443.229 250.688 440.729 250.562 438.25C250.438 435.771 250.375 433.271 250.375 430.75C250.375 430.396 250.375 429.781 250.375 428.906C250.396 428.031 250.417 427 250.438 425.812C250.458 424.604 250.479 423.302 250.5 421.906C250.542 420.49 250.583 419.062 250.625 417.625C250.667 416.188 250.708 414.792 250.75 413.438C250.792 412.062 250.833 410.833 250.875 409.75C250.917 408.667 250.958 407.771 251 407.062C251.062 406.333 251.125 405.896 251.188 405.75C251.292 405.458 251.406 405.271 251.531 405.188C251.677 405.104 251.896 405.062 252.188 405.062C252.979 405.062 253.635 405.24 254.156 405.594C254.698 405.927 255.062 406.5 255.25 407.312C255.542 407.75 255.875 408.552 256.25 409.719C256.625 410.865 257.021 412.208 257.438 413.75C257.854 415.292 258.271 416.958 258.688 418.75C259.125 420.521 259.531 422.229 259.906 423.875C260.302 425.521 260.656 427.031 260.969 428.406C261.302 429.781 261.562 430.833 261.75 431.562C262.354 427.979 262.969 424.417 263.594 420.875C264.219 417.333 264.812 413.771 265.375 410.188C265.479 409.583 265.583 408.99 265.688 408.406C265.812 407.823 265.875 407.229 265.875 406.625C265.875 406.25 265.823 405.906 265.719 405.594C265.615 405.26 265.562 404.917 265.562 404.562C265.562 404.125 265.698 403.865 265.969 403.781C266.26 403.677 266.583 403.625 266.938 403.625C267.271 403.625 267.667 403.677 268.125 403.781C268.583 403.885 269.021 404.042 269.438 404.25C269.875 404.458 270.24 404.719 270.531 405.031C270.844 405.344 271 405.708 271 406.125C271 406.854 270.938 407.625 270.812 408.438C271.562 411.958 272.188 415.49 272.688 419.031C273.188 422.552 273.562 426.104 273.812 429.688C274.062 432.771 274.26 435.833 274.406 438.875C274.573 441.917 274.771 444.958 275 448C275.042 448.188 275.073 448.365 275.094 448.531C275.115 448.698 275.125 448.875 275.125 449.062ZM301.188 442.188C301.188 442.542 301.042 442.885 300.75 443.219C300.479 443.552 300.146 443.875 299.75 444.188C299.354 444.5 298.948 444.792 298.531 445.062C298.115 445.312 297.771 445.521 297.5 445.688C296.792 446.146 296.083 446.573 295.375 446.969C294.688 447.365 293.969 447.708 293.219 448C292.49 448.292 291.729 448.521 290.938 448.688C290.167 448.854 289.354 448.938 288.5 448.938L288 449C287.312 449 286.625 448.927 285.938 448.781C285.271 448.615 284.646 448.375 284.062 448.062C283.479 447.729 282.958 447.312 282.5 446.812C282.042 446.312 281.688 445.708 281.438 445C281.25 444.438 281.104 443.771 281 443C280.896 442.229 280.812 441.427 280.75 440.594C280.708 439.76 280.667 438.948 280.625 438.156C280.604 437.344 280.583 436.625 280.562 436C280.25 429.625 280 423.25 279.812 416.875C279.771 416.146 279.74 415.417 279.719 414.688C279.698 413.958 279.688 413.229 279.688 412.5C279.688 411.25 279.76 410.188 279.906 409.312C280.052 408.438 280.344 407.719 280.781 407.156C281.219 406.594 281.844 406.188 282.656 405.938C283.49 405.688 284.583 405.562 285.938 405.562C287.292 405.562 288.646 405.573 290 405.594C291.375 405.615 292.75 405.625 294.125 405.625C294.542 405.625 294.958 405.615 295.375 405.594C295.792 405.552 296.208 405.583 296.625 405.688C296.875 405.729 297.094 405.802 297.281 405.906C297.469 405.99 297.562 406.188 297.562 406.5C297.562 407.25 297.312 407.812 296.812 408.188C296.312 408.542 295.719 408.781 295.031 408.906C294.344 409.031 293.625 409.094 292.875 409.094C292.146 409.073 291.542 409.062 291.062 409.062H287C286.583 409.062 286.167 409.062 285.75 409.062C285.333 409.062 284.917 409.083 284.5 409.125C284.375 409.438 284.292 409.76 284.25 410.094C284.208 410.427 284.188 410.771 284.188 411.125C284.188 413.396 284.24 415.635 284.344 417.844C284.469 420.052 284.583 422.292 284.688 424.562C285.979 424.458 287.26 424.333 288.531 424.188C289.802 424.042 291.083 423.875 292.375 423.688C292.562 423.688 292.729 423.677 292.875 423.656C293.042 423.635 293.208 423.625 293.375 423.625C293.812 423.625 294.115 423.74 294.281 423.969C294.469 424.198 294.562 424.521 294.562 424.938C294.562 425.229 294.542 425.5 294.5 425.75C294.479 426 294.417 426.25 294.312 426.5C294.167 426.917 293.927 427.219 293.594 427.406C293.26 427.594 292.885 427.729 292.469 427.812C292.052 427.875 291.615 427.906 291.156 427.906C290.719 427.906 290.333 427.917 290 427.938C289.125 427.979 288.26 428.01 287.406 428.031C286.573 428.052 285.729 428.083 284.875 428.125C284.896 428.562 284.927 429.219 284.969 430.094C285.01 430.969 285.052 431.958 285.094 433.062C285.156 434.146 285.219 435.271 285.281 436.438C285.365 437.604 285.448 438.708 285.531 439.75C285.615 440.771 285.708 441.667 285.812 442.438C285.917 443.208 286.021 443.729 286.125 444C286.354 444.438 286.615 444.729 286.906 444.875C287.198 445 287.583 445.062 288.062 445.062C288.833 445.062 289.646 444.917 290.5 444.625C291.354 444.312 292.188 443.927 293 443.469C293.812 442.99 294.583 442.469 295.312 441.906C296.062 441.344 296.708 440.792 297.25 440.25C297.479 440.062 297.708 439.875 297.938 439.688C298.167 439.479 298.438 439.375 298.75 439.375C299.062 439.375 299.365 439.469 299.656 439.656C299.948 439.844 300.208 440.083 300.438 440.375C300.667 440.646 300.844 440.948 300.969 441.281C301.115 441.615 301.188 441.917 301.188 442.188ZM322.625 446.438C322.625 446.812 322.583 447.188 322.5 447.562C322.438 447.917 322.312 448.24 322.125 448.531C321.958 448.802 321.729 449.021 321.438 449.188C321.146 449.354 320.771 449.438 320.312 449.438C319.75 449.438 319.292 449.312 318.938 449.062C318.604 448.833 318.292 448.5 318 448.062C317.604 447.5 317.25 446.854 316.938 446.125C316.625 445.375 316.344 444.615 316.094 443.844C315.844 443.052 315.604 442.271 315.375 441.5C315.167 440.708 314.958 439.979 314.75 439.312C313.625 435.812 312.573 432.323 311.594 428.844C310.635 425.365 309.604 421.875 308.5 418.375C308.396 422.896 308.312 427.396 308.25 431.875C308.208 436.354 308.188 440.854 308.188 445.375C308.188 445.604 308.177 445.865 308.156 446.156C308.135 446.448 308.083 446.729 308 447C307.917 447.25 307.781 447.469 307.594 447.656C307.427 447.844 307.188 447.938 306.875 447.938C305.812 447.938 305 447.656 304.438 447.094C303.896 446.51 303.625 445.688 303.625 444.625C303.625 438.771 303.635 432.969 303.656 427.219C303.677 421.469 303.688 415.688 303.688 409.875V405.438C303.688 404.958 303.771 404.562 303.938 404.25C304.125 403.917 304.521 403.75 305.125 403.75C305.542 403.75 305.969 403.812 306.406 403.938C306.844 404.042 307.229 404.208 307.562 404.438C307.917 404.667 308.198 404.969 308.406 405.344C308.635 405.698 308.75 406.125 308.75 406.625C309.625 408.292 310.354 410.01 310.938 411.781C311.542 413.552 312.125 415.333 312.688 417.125C313.5 419.729 314.302 422.333 315.094 424.938C315.885 427.542 316.688 430.167 317.5 432.812C317.375 428.875 317.24 424.948 317.094 421.031C316.969 417.094 316.708 413.167 316.312 409.25C316.208 408.396 316.083 407.562 315.938 406.75C315.812 405.938 315.75 405.104 315.75 404.25C315.75 403.812 315.896 403.521 316.188 403.375C316.479 403.208 316.812 403.125 317.188 403.125C317.833 403.125 318.385 403.177 318.844 403.281C319.302 403.385 319.688 403.562 320 403.812C320.312 404.062 320.552 404.406 320.719 404.844C320.885 405.26 321.021 405.792 321.125 406.438C321.25 407.562 321.344 408.698 321.406 409.844C321.49 410.969 321.562 412.083 321.625 413.188C321.812 415.979 321.948 418.75 322.031 421.5C322.115 424.25 322.188 427.021 322.25 429.812C322.312 432.583 322.385 435.354 322.469 438.125C322.573 440.875 322.625 443.646 322.625 446.438ZM347.469 406C347.469 406.75 347.25 407.365 346.812 407.844C346.396 408.323 345.823 408.646 345.094 408.812C343.927 409.062 342.729 409.198 341.5 409.219C340.292 409.219 339.094 409.25 337.906 409.312V415.5C337.906 420.75 338.062 425.99 338.375 431.219C338.708 436.427 339.24 441.646 339.969 446.875C340.031 447.188 340.094 447.5 340.156 447.812C340.24 448.125 340.281 448.438 340.281 448.75C340.281 449.25 340.146 449.615 339.875 449.844C339.625 450.073 339.26 450.188 338.781 450.188C338.406 450.188 337.938 450.135 337.375 450.031C336.833 449.948 336.406 449.812 336.094 449.625C335.677 449.375 335.406 449.125 335.281 448.875C335.177 448.604 335.094 448.25 335.031 447.812C334.802 446.333 334.646 444.854 334.562 443.375C334.479 441.896 334.385 440.417 334.281 438.938C334.031 435.771 333.823 432.615 333.656 429.469C333.49 426.323 333.406 423.167 333.406 420C333.406 418.271 333.417 416.552 333.438 414.844C333.458 413.135 333.469 411.396 333.469 409.625C332.177 409.75 330.875 409.875 329.562 410C328.271 410.125 326.969 410.188 325.656 410.188C325.344 410.188 325.094 410.115 324.906 409.969C324.698 409.802 324.594 409.562 324.594 409.25C324.594 408.521 324.833 407.958 325.312 407.562C325.792 407.146 326.365 406.854 327.031 406.688C328.094 406.458 329.177 406.312 330.281 406.25C331.385 406.167 332.49 406.062 333.594 405.938C333.594 405.729 333.604 405.531 333.625 405.344C333.646 405.135 333.688 404.958 333.75 404.812C333.833 404.646 333.948 404.51 334.094 404.406C334.24 404.302 334.448 404.25 334.719 404.25C335.219 404.25 335.729 404.365 336.25 404.594C336.771 404.823 337.177 405.146 337.469 405.562L342.656 405C343.156 404.938 343.656 404.875 344.156 404.812C344.656 404.729 345.156 404.688 345.656 404.688C345.885 404.688 346.104 404.698 346.312 404.719C346.542 404.74 346.74 404.802 346.906 404.906C347.073 404.99 347.208 405.125 347.312 405.312C347.417 405.479 347.469 405.708 347.469 406ZM367.906 439.125C367.906 440.667 367.656 442.125 367.156 443.5C366.656 444.875 365.938 446.083 365 447.125C364.083 448.146 362.969 448.958 361.656 449.562C360.344 450.188 358.885 450.5 357.281 450.5C355.865 450.5 354.552 450.271 353.344 449.812C352.156 449.375 351.125 448.75 350.25 447.938C349.375 447.125 348.688 446.135 348.188 444.969C347.708 443.802 347.469 442.5 347.469 441.062C347.469 440.771 347.479 440.406 347.5 439.969C347.521 439.531 347.583 439.115 347.688 438.719C347.812 438.302 347.979 437.958 348.188 437.688C348.417 437.396 348.74 437.25 349.156 437.25C349.49 437.25 349.854 437.323 350.25 437.469C350.667 437.594 351.052 437.771 351.406 438C351.76 438.229 352.052 438.51 352.281 438.844C352.531 439.156 352.656 439.5 352.656 439.875V441.688C352.656 443.125 353.042 444.302 353.812 445.219C354.604 446.115 355.74 446.562 357.219 446.562C358.26 446.562 359.156 446.323 359.906 445.844C360.656 445.365 361.26 444.75 361.719 444C362.198 443.25 362.542 442.417 362.75 441.5C362.979 440.562 363.094 439.646 363.094 438.75C363.094 437 362.729 435.302 362 433.656C361.292 432.01 360.396 430.406 359.312 428.844C358.229 427.26 357.052 425.708 355.781 424.188C354.51 422.667 353.333 421.156 352.25 419.656C351.167 418.156 350.26 416.656 349.531 415.156C348.823 413.656 348.469 412.125 348.469 410.562C348.469 409.292 348.719 408.198 349.219 407.281C349.74 406.344 350.417 405.583 351.25 405C352.104 404.396 353.062 403.958 354.125 403.688C355.208 403.396 356.323 403.25 357.469 403.25C358.865 403.25 360.115 403.448 361.219 403.844C362.323 404.24 363.26 404.812 364.031 405.562C364.802 406.312 365.385 407.24 365.781 408.344C366.198 409.427 366.406 410.667 366.406 412.062C366.406 412.271 366.396 412.531 366.375 412.844C366.354 413.156 366.302 413.469 366.219 413.781C366.135 414.073 366.01 414.333 365.844 414.562C365.677 414.771 365.448 414.875 365.156 414.875C364.74 414.875 364.323 414.771 363.906 414.562C363.552 414.375 363.26 414.198 363.031 414.031C362.823 413.844 362.656 413.646 362.531 413.438C362.406 413.208 362.312 412.958 362.25 412.688C362.188 412.417 362.135 412.083 362.094 411.688C361.99 410.938 361.854 410.26 361.688 409.656C361.521 409.052 361.271 408.542 360.938 408.125C360.604 407.708 360.167 407.385 359.625 407.156C359.083 406.927 358.385 406.812 357.531 406.812C356.927 406.812 356.344 406.875 355.781 407C355.24 407.125 354.76 407.333 354.344 407.625C353.948 407.917 353.625 408.302 353.375 408.781C353.146 409.24 353.031 409.812 353.031 410.5C353.031 411.458 353.24 412.438 353.656 413.438C354.094 414.438 354.656 415.458 355.344 416.5C356.052 417.542 356.844 418.615 357.719 419.719C358.615 420.802 359.531 421.927 360.469 423.094C361.406 424.26 362.312 425.469 363.188 426.719C364.083 427.948 364.875 429.229 365.562 430.562C366.271 431.896 366.833 433.281 367.25 434.719C367.688 436.135 367.906 437.604 367.906 439.125Z" fill="#272727"/>
<path d="M177.234 492.188C177.234 492.323 177.167 492.453 177.031 492.578C176.896 492.703 176.734 492.812 176.547 492.906C176.359 493 176.167 493.073 175.969 493.125C175.781 493.188 175.63 493.219 175.516 493.219C175.307 493.219 175.109 493.161 174.922 493.047C174.734 492.943 174.557 492.807 174.391 492.641C174.234 492.474 174.083 492.297 173.938 492.109C173.802 491.922 173.682 491.75 173.578 491.594C173.026 490.781 172.573 489.932 172.219 489.047C171.875 488.151 171.599 487.234 171.391 486.297C171.193 485.359 171.052 484.411 170.969 483.453C170.896 482.484 170.859 481.521 170.859 480.562C170.859 479.583 170.911 478.526 171.016 477.391C171.13 476.255 171.318 475.125 171.578 474C171.849 472.875 172.203 471.802 172.641 470.781C173.078 469.75 173.62 468.854 174.266 468.094C174.318 468.031 174.38 467.958 174.453 467.875C174.536 467.792 174.62 467.714 174.703 467.641C174.797 467.557 174.891 467.49 174.984 467.438C175.078 467.375 175.172 467.344 175.266 467.344C175.391 467.344 175.505 467.385 175.609 467.469C175.714 467.542 175.802 467.641 175.875 467.766C175.958 467.88 176.021 468.005 176.062 468.141C176.115 468.276 176.141 468.396 176.141 468.5C176.141 468.615 176.089 468.781 175.984 469C175.88 469.219 175.755 469.453 175.609 469.703C175.474 469.943 175.339 470.177 175.203 470.406C175.068 470.625 174.964 470.802 174.891 470.938C174.578 471.615 174.312 472.333 174.094 473.094C173.885 473.854 173.714 474.635 173.578 475.438C173.443 476.229 173.344 477.021 173.281 477.812C173.229 478.604 173.203 479.365 173.203 480.094C173.203 480.927 173.234 481.792 173.297 482.688C173.37 483.573 173.49 484.458 173.656 485.344C173.833 486.229 174.073 487.094 174.375 487.938C174.677 488.771 175.057 489.542 175.516 490.25C175.693 490.521 175.87 490.766 176.047 490.984C176.234 491.203 176.464 491.406 176.734 491.594C176.828 491.677 176.932 491.76 177.047 491.844C177.172 491.927 177.234 492.042 177.234 492.188ZM184.75 490.156C184.75 490.365 184.682 490.516 184.547 490.609C184.411 490.703 184.245 490.75 184.047 490.75C183.922 490.75 183.792 490.74 183.656 490.719C183.521 490.688 183.391 490.656 183.266 490.625C183.047 490.562 182.875 490.484 182.75 490.391C182.635 490.297 182.547 490.193 182.484 490.078C182.422 489.953 182.38 489.818 182.359 489.672C182.349 489.526 182.339 489.365 182.328 489.188C182.328 489.135 182.323 489.089 182.312 489.047C182.312 489.005 182.312 488.964 182.312 488.922C182.281 488.328 182.25 487.719 182.219 487.094C182.198 486.469 182.188 485.859 182.188 485.266C182.188 484.964 182.188 484.661 182.188 484.359C182.198 484.057 182.208 483.755 182.219 483.453C182.229 483.151 182.234 482.854 182.234 482.562C182.245 482.26 182.25 481.958 182.25 481.656C182.25 481.594 182.245 481.536 182.234 481.484C182.234 481.422 182.229 481.359 182.219 481.297C181.948 481.693 181.708 482.135 181.5 482.625C181.302 483.104 181.125 483.604 180.969 484.125C180.812 484.635 180.677 485.151 180.562 485.672C180.458 486.182 180.37 486.672 180.297 487.141L180.25 487.469C180.198 487.833 180.146 488.208 180.094 488.594C180.042 488.969 180.016 489.344 180.016 489.719C180.016 489.875 180.042 490.047 180.094 490.234C180.115 490.318 180.13 490.401 180.141 490.484C180.161 490.557 180.172 490.651 180.172 490.766C180.172 491.016 180.109 491.182 179.984 491.266C179.859 491.359 179.693 491.406 179.484 491.406C179.359 491.406 179.219 491.396 179.062 491.375C178.917 491.354 178.771 491.318 178.625 491.266C178.49 491.224 178.359 491.167 178.234 491.094C178.109 491.021 178.01 490.927 177.938 490.812C177.875 490.677 177.812 490.318 177.75 489.734C177.698 489.151 177.646 488.427 177.594 487.562C177.552 486.698 177.51 485.729 177.469 484.656C177.427 483.573 177.385 482.464 177.344 481.328C177.312 480.193 177.281 479.068 177.25 477.953C177.229 476.839 177.208 475.812 177.188 474.875C177.177 473.938 177.167 473.125 177.156 472.438C177.146 471.74 177.141 471.25 177.141 470.969C177.141 470.76 177.167 470.573 177.219 470.406C177.281 470.229 177.448 470.141 177.719 470.141C178 470.141 178.266 470.208 178.516 470.344C178.766 470.469 178.948 470.667 179.062 470.938C179.083 470.979 179.104 471.151 179.125 471.453C179.146 471.745 179.167 472.125 179.188 472.594C179.208 473.052 179.229 473.583 179.25 474.188C179.271 474.781 179.292 475.401 179.312 476.047C179.333 476.682 179.354 477.323 179.375 477.969C179.396 478.615 179.417 479.219 179.438 479.781L179.516 482.094C179.641 481.771 179.797 481.432 179.984 481.078C180.172 480.724 180.385 480.401 180.625 480.109C180.875 479.818 181.151 479.578 181.453 479.391C181.766 479.203 182.109 479.109 182.484 479.109C182.943 479.109 183.302 479.229 183.562 479.469C183.823 479.708 184.016 480.005 184.141 480.359C184.276 480.714 184.359 481.094 184.391 481.5C184.422 481.906 184.438 482.276 184.438 482.609C184.438 482.818 184.432 483.021 184.422 483.219C184.422 483.417 184.417 483.615 184.406 483.812C184.396 484.021 184.385 484.229 184.375 484.438C184.375 484.635 184.375 484.839 184.375 485.047C184.375 485.766 184.391 486.505 184.422 487.266C184.453 488.016 184.531 488.755 184.656 489.484L184.688 489.703C184.708 489.766 184.724 489.839 184.734 489.922C184.745 490.005 184.75 490.083 184.75 490.156ZM192.891 484.594C192.891 485.5 192.812 486.406 192.656 487.312C192.51 488.208 192.203 489.057 191.734 489.859C191.589 490.099 191.422 490.333 191.234 490.562C191.047 490.781 190.839 490.979 190.609 491.156C190.391 491.344 190.146 491.49 189.875 491.594C189.615 491.708 189.339 491.766 189.047 491.766C188.589 491.766 188.188 491.656 187.844 491.438C187.51 491.229 187.219 490.953 186.969 490.609C186.729 490.255 186.526 489.859 186.359 489.422C186.203 488.974 186.078 488.521 185.984 488.062C185.901 487.594 185.839 487.141 185.797 486.703C185.766 486.266 185.75 485.88 185.75 485.547C185.75 485.172 185.766 484.76 185.797 484.312C185.828 483.865 185.88 483.406 185.953 482.938C186.036 482.469 186.141 482.005 186.266 481.547C186.401 481.089 186.573 480.661 186.781 480.266C186.99 479.859 187.24 479.5 187.531 479.188C187.823 478.865 188.161 478.609 188.547 478.422V478.438C188.88 478.26 189.214 478.172 189.547 478.172C189.755 478.172 189.917 478.219 190.031 478.312C190.146 478.396 190.198 478.542 190.188 478.75C190.76 478.854 191.224 479.13 191.578 479.578C191.932 480.026 192.203 480.547 192.391 481.141C192.589 481.734 192.719 482.344 192.781 482.969C192.854 483.594 192.891 484.135 192.891 484.594ZM189.359 480.688C189.182 480.688 189.016 480.62 188.859 480.484C188.661 480.786 188.495 481.135 188.359 481.531C188.224 481.917 188.115 482.318 188.031 482.734C187.958 483.141 187.906 483.552 187.875 483.969C187.844 484.385 187.828 484.776 187.828 485.141C187.828 485.443 187.844 485.833 187.875 486.312C187.906 486.781 187.964 487.255 188.047 487.734C188.141 488.214 188.266 488.661 188.422 489.078C188.589 489.495 188.802 489.802 189.062 490C189.385 489.812 189.651 489.516 189.859 489.109C190.078 488.693 190.25 488.24 190.375 487.75C190.5 487.26 190.583 486.766 190.625 486.266C190.677 485.766 190.703 485.339 190.703 484.984C190.703 484.724 190.688 484.385 190.656 483.969C190.625 483.552 190.573 483.13 190.5 482.703C190.427 482.266 190.323 481.859 190.188 481.484C190.062 481.109 189.901 480.828 189.703 480.641C189.609 480.672 189.495 480.688 189.359 480.688ZM199.797 479.672C199.797 481.109 199.682 482.526 199.453 483.922C199.234 485.318 198.969 486.708 198.656 488.094C198.615 488.229 198.589 488.344 198.578 488.438C198.516 488.74 198.448 489.052 198.375 489.375C198.312 489.688 198.208 490 198.062 490.312C197.927 490.573 197.74 490.802 197.5 491C197.271 491.188 197.016 491.281 196.734 491.281C196.62 491.281 196.5 491.255 196.375 491.203C196.25 491.151 196.115 491.083 195.969 491C195.76 490.854 195.604 490.656 195.5 490.406C195.396 490.146 195.307 489.88 195.234 489.609L195.203 489.5V489.516C195.026 488.839 194.875 488.161 194.75 487.484C194.635 486.807 194.521 486.125 194.406 485.438C194.344 485.01 194.281 484.589 194.219 484.172C194.156 483.745 194.083 483.323 194 482.906L193.781 481.984C193.729 481.776 193.672 481.552 193.609 481.312C193.557 481.062 193.505 480.828 193.453 480.609C193.401 480.391 193.359 480.198 193.328 480.031C193.297 479.854 193.281 479.734 193.281 479.672C193.281 479.474 193.344 479.344 193.469 479.281C193.604 479.208 193.755 479.172 193.922 479.172C194.255 479.172 194.547 479.245 194.797 479.391C195.057 479.536 195.245 479.776 195.359 480.109C195.422 480.286 195.474 480.474 195.516 480.672C195.568 480.87 195.609 481.068 195.641 481.266C195.818 481.953 195.984 482.682 196.141 483.453C196.307 484.214 196.448 484.948 196.562 485.656L196.703 486.453C196.714 486.505 196.719 486.547 196.719 486.578C196.719 486.609 196.719 486.635 196.719 486.656C196.729 486.677 196.734 486.703 196.734 486.734C196.745 486.766 196.755 486.812 196.766 486.875C196.995 485.771 197.188 484.667 197.344 483.562C197.5 482.448 197.578 481.328 197.578 480.203C197.578 479.974 197.562 479.75 197.531 479.531C197.51 479.312 197.484 479.083 197.453 478.844C197.422 478.625 197.391 478.401 197.359 478.172C197.339 477.932 197.328 477.693 197.328 477.453C197.328 477.234 197.396 477.083 197.531 477C197.667 476.917 197.833 476.875 198.031 476.875C198.271 476.875 198.49 476.891 198.688 476.922C198.885 476.953 199.057 477.016 199.203 477.109C199.349 477.193 199.469 477.318 199.562 477.484C199.656 477.641 199.719 477.849 199.75 478.109C199.771 478.349 199.781 478.609 199.781 478.891C199.792 479.161 199.797 479.422 199.797 479.672ZM207.047 488.141C207.047 488.453 206.958 488.776 206.781 489.109C206.615 489.443 206.396 489.75 206.125 490.031C205.854 490.302 205.542 490.526 205.188 490.703C204.844 490.88 204.5 490.969 204.156 490.969C203.667 490.969 203.245 490.875 202.891 490.688C202.536 490.49 202.229 490.229 201.969 489.906C201.708 489.573 201.495 489.198 201.328 488.781C201.172 488.365 201.047 487.938 200.953 487.5C200.859 487.052 200.792 486.609 200.75 486.172C200.719 485.724 200.703 485.318 200.703 484.953C200.703 484.641 200.719 484.271 200.75 483.844C200.792 483.417 200.854 482.974 200.938 482.516C201.031 482.057 201.156 481.604 201.312 481.156C201.469 480.708 201.661 480.307 201.891 479.953C202.13 479.599 202.411 479.312 202.734 479.094C203.068 478.875 203.448 478.766 203.875 478.766C204.208 478.766 204.505 478.833 204.766 478.969C205.036 479.104 205.26 479.286 205.438 479.516C205.625 479.734 205.766 479.99 205.859 480.281C205.964 480.573 206.016 480.875 206.016 481.188C206.016 481.594 205.922 482.036 205.734 482.516C205.547 482.995 205.302 483.458 205 483.906C204.708 484.354 204.375 484.76 204 485.125C203.635 485.479 203.271 485.75 202.906 485.938C202.927 486.125 202.969 486.401 203.031 486.766C203.094 487.12 203.177 487.474 203.281 487.828C203.396 488.182 203.526 488.49 203.672 488.75C203.828 489.01 204.01 489.141 204.219 489.141C204.323 489.141 204.411 489.109 204.484 489.047C204.568 488.984 204.641 488.901 204.703 488.797C204.766 488.693 204.818 488.578 204.859 488.453C204.911 488.328 204.958 488.208 205 488.094L205.094 487.875C205.115 487.844 205.125 487.823 205.125 487.812C205.135 487.802 205.146 487.786 205.156 487.766C205.229 487.63 205.297 487.505 205.359 487.391C205.432 487.276 205.531 487.177 205.656 487.094H205.641C205.682 487.052 205.724 487.031 205.766 487.031C205.818 487.021 205.865 487.016 205.906 487.016C206.021 487.016 206.146 487.052 206.281 487.125C206.417 487.198 206.542 487.292 206.656 487.406C206.771 487.51 206.865 487.63 206.938 487.766C207.01 487.891 207.047 488.016 207.047 488.141ZM203.953 481.25C203.953 481.146 203.948 481.036 203.938 480.922C203.927 480.807 203.901 480.708 203.859 480.625C203.714 480.802 203.583 481.016 203.469 481.266C203.365 481.505 203.276 481.76 203.203 482.031C203.13 482.292 203.068 482.557 203.016 482.828C202.974 483.099 202.943 483.349 202.922 483.578C203.193 483.255 203.432 482.891 203.641 482.484C203.849 482.068 203.953 481.656 203.953 481.25ZM209.234 491.25C209.078 491.25 208.906 491.229 208.719 491.188C208.542 491.146 208.37 491.078 208.203 490.984C208.047 490.891 207.911 490.776 207.797 490.641C207.693 490.495 207.641 490.323 207.641 490.125C207.641 489.833 207.651 489.547 207.672 489.266C207.703 488.974 207.734 488.688 207.766 488.406V488.422L207.859 487.375C207.891 487 207.917 486.589 207.938 486.141C207.958 485.693 207.974 485.24 207.984 484.781C208.005 484.312 208.021 483.854 208.031 483.406C208.042 482.958 208.047 482.547 208.047 482.172C208.047 481.953 208.042 481.734 208.031 481.516C208.031 481.286 208.031 481.057 208.031 480.828C208.021 480.63 208.016 480.411 208.016 480.172C208.016 479.922 208.016 479.693 208.016 479.484C208.016 479.266 208.042 479.089 208.094 478.953C208.156 478.807 208.323 478.734 208.594 478.734C208.833 478.734 209.083 478.797 209.344 478.922C209.615 479.047 209.802 479.224 209.906 479.453H209.891C209.943 479.568 209.979 479.755 210 480.016C210.031 480.266 210.052 480.49 210.062 480.688C210.24 480.417 210.438 480.13 210.656 479.828C210.885 479.526 211.13 479.25 211.391 479C211.651 478.74 211.927 478.526 212.219 478.359C212.51 478.193 212.823 478.109 213.156 478.109C213.594 478.109 213.927 478.219 214.156 478.438C214.385 478.656 214.552 478.932 214.656 479.266C214.76 479.589 214.818 479.938 214.828 480.312C214.839 480.677 214.844 481.01 214.844 481.312V481.438C214.844 481.562 214.839 481.688 214.828 481.812C214.828 481.927 214.807 482.036 214.766 482.141C214.734 482.234 214.672 482.312 214.578 482.375C214.495 482.438 214.375 482.469 214.219 482.469C214.052 482.469 213.875 482.448 213.688 482.406C213.5 482.354 213.323 482.281 213.156 482.188C213 482.094 212.865 481.979 212.75 481.844C212.635 481.698 212.573 481.531 212.562 481.344C212.562 481.26 212.562 481.177 212.562 481.094C212.562 481.01 212.568 480.927 212.578 480.844C212.578 480.792 212.578 480.729 212.578 480.656C212.589 480.573 212.594 480.495 212.594 480.422C212.26 480.755 211.964 481.167 211.703 481.656C211.453 482.146 211.224 482.667 211.016 483.219C210.818 483.771 210.646 484.328 210.5 484.891C210.354 485.443 210.229 485.943 210.125 486.391V486.438C210.094 486.76 210.073 487.078 210.062 487.391C210.052 487.703 210.042 488.026 210.031 488.359C210.021 488.734 210.005 489.115 209.984 489.5C209.974 489.885 209.948 490.26 209.906 490.625C209.885 490.823 209.823 490.974 209.719 491.078C209.625 491.193 209.464 491.25 209.234 491.25ZM223.641 490.609C223.641 490.724 223.615 490.823 223.562 490.906C223.51 490.979 223.443 491.036 223.359 491.078C223.286 491.12 223.203 491.146 223.109 491.156C223.026 491.177 222.943 491.188 222.859 491.188C222.745 491.188 222.609 491.172 222.453 491.141C222.307 491.12 222.161 491.083 222.016 491.031C221.87 490.979 221.734 490.917 221.609 490.844C221.495 490.76 221.406 490.661 221.344 490.547C221.281 490.443 221.224 490.25 221.172 489.969C221.13 489.677 221.094 489.344 221.062 488.969C221.031 488.583 221.005 488.177 220.984 487.75C220.964 487.312 220.943 486.896 220.922 486.5C220.911 486.104 220.901 485.75 220.891 485.438C220.891 485.115 220.891 484.875 220.891 484.719C220.891 483.99 220.901 483.286 220.922 482.609C220.953 481.922 220.984 481.219 221.016 480.5C220.964 480.5 220.911 480.505 220.859 480.516C220.807 480.526 220.755 480.531 220.703 480.531C220.568 480.552 220.427 480.568 220.281 480.578C220.146 480.589 220.005 480.594 219.859 480.594C219.682 480.594 219.526 480.562 219.391 480.5C219.255 480.438 219.188 480.297 219.188 480.078C219.188 479.818 219.245 479.609 219.359 479.453C219.474 479.297 219.62 479.177 219.797 479.094C219.974 479 220.167 478.938 220.375 478.906C220.583 478.865 220.786 478.833 220.984 478.812C221.016 478.812 221.036 478.812 221.047 478.812C221.057 478.802 221.078 478.797 221.109 478.797C221.12 478.672 221.13 478.521 221.141 478.344C221.151 478.156 221.161 477.953 221.172 477.734C221.182 477.391 221.198 477.026 221.219 476.641C221.24 476.245 221.26 475.87 221.281 475.516C221.302 475.151 221.328 474.833 221.359 474.562C221.391 474.281 221.422 474.083 221.453 473.969C221.505 473.833 221.562 473.724 221.625 473.641C221.698 473.557 221.828 473.516 222.016 473.516C222.432 473.516 222.755 473.651 222.984 473.922C223.214 474.193 223.328 474.526 223.328 474.922C223.328 475.38 223.312 475.839 223.281 476.297C223.26 476.755 223.24 477.219 223.219 477.688L223.172 478.484C223.432 478.453 223.693 478.406 223.953 478.344C224.203 478.292 224.453 478.245 224.703 478.203C224.964 478.161 225.214 478.141 225.453 478.141C225.661 478.141 225.823 478.198 225.938 478.312C226.052 478.417 226.109 478.573 226.109 478.781C226.109 479.01 226.068 479.234 225.984 479.453C225.901 479.672 225.755 479.839 225.547 479.953H225.562C225.521 479.974 225.396 480.005 225.188 480.047C224.979 480.078 224.74 480.109 224.469 480.141C224.208 480.172 223.948 480.203 223.688 480.234C223.438 480.266 223.25 480.286 223.125 480.297H223.109C223.089 480.88 223.073 481.458 223.062 482.031C223.052 482.594 223.047 483.167 223.047 483.75C223.047 484.552 223.068 485.406 223.109 486.312C223.161 487.208 223.245 488.062 223.359 488.875L223.484 489.578C223.526 489.755 223.562 489.932 223.594 490.109C223.625 490.276 223.641 490.443 223.641 490.609ZM232.891 484.594C232.891 485.5 232.812 486.406 232.656 487.312C232.51 488.208 232.203 489.057 231.734 489.859C231.589 490.099 231.422 490.333 231.234 490.562C231.047 490.781 230.839 490.979 230.609 491.156C230.391 491.344 230.146 491.49 229.875 491.594C229.615 491.708 229.339 491.766 229.047 491.766C228.589 491.766 228.188 491.656 227.844 491.438C227.51 491.229 227.219 490.953 226.969 490.609C226.729 490.255 226.526 489.859 226.359 489.422C226.203 488.974 226.078 488.521 225.984 488.062C225.901 487.594 225.839 487.141 225.797 486.703C225.766 486.266 225.75 485.88 225.75 485.547C225.75 485.172 225.766 484.76 225.797 484.312C225.828 483.865 225.88 483.406 225.953 482.938C226.036 482.469 226.141 482.005 226.266 481.547C226.401 481.089 226.573 480.661 226.781 480.266C226.99 479.859 227.24 479.5 227.531 479.188C227.823 478.865 228.161 478.609 228.547 478.422V478.438C228.88 478.26 229.214 478.172 229.547 478.172C229.755 478.172 229.917 478.219 230.031 478.312C230.146 478.396 230.198 478.542 230.188 478.75C230.76 478.854 231.224 479.13 231.578 479.578C231.932 480.026 232.203 480.547 232.391 481.141C232.589 481.734 232.719 482.344 232.781 482.969C232.854 483.594 232.891 484.135 232.891 484.594ZM229.359 480.688C229.182 480.688 229.016 480.62 228.859 480.484C228.661 480.786 228.495 481.135 228.359 481.531C228.224 481.917 228.115 482.318 228.031 482.734C227.958 483.141 227.906 483.552 227.875 483.969C227.844 484.385 227.828 484.776 227.828 485.141C227.828 485.443 227.844 485.833 227.875 486.312C227.906 486.781 227.964 487.255 228.047 487.734C228.141 488.214 228.266 488.661 228.422 489.078C228.589 489.495 228.802 489.802 229.062 490C229.385 489.812 229.651 489.516 229.859 489.109C230.078 488.693 230.25 488.24 230.375 487.75C230.5 487.26 230.583 486.766 230.625 486.266C230.677 485.766 230.703 485.339 230.703 484.984C230.703 484.724 230.688 484.385 230.656 483.969C230.625 483.552 230.573 483.13 230.5 482.703C230.427 482.266 230.323 481.859 230.188 481.484C230.062 481.109 229.901 480.828 229.703 480.641C229.609 480.672 229.495 480.688 229.359 480.688ZM248.828 491.453C248.828 491.599 248.792 491.719 248.719 491.812C248.646 491.906 248.552 491.979 248.438 492.031C248.333 492.094 248.214 492.135 248.078 492.156C247.953 492.188 247.839 492.203 247.734 492.203C247.37 492.203 247.052 492.099 246.781 491.891C246.51 491.682 246.276 491.411 246.078 491.078C245.891 490.755 245.729 490.385 245.594 489.969C245.469 489.542 245.365 489.12 245.281 488.703C245.198 488.276 245.135 487.87 245.094 487.484C245.052 487.089 245.021 486.75 245 486.469C244.906 485.5 244.839 484.516 244.797 483.516C244.766 482.516 244.75 481.526 244.75 480.547C244.75 479.245 244.771 477.969 244.812 476.719C244.854 475.458 244.917 474.182 245 472.891C244.906 472.797 244.786 472.698 244.641 472.594C244.495 472.479 244.312 472.375 244.094 472.281C243.875 472.188 243.62 472.109 243.328 472.047C243.047 471.974 242.719 471.938 242.344 471.938C242 472.031 241.708 472.219 241.469 472.5C241.24 472.781 241.052 473.125 240.906 473.531C240.771 473.927 240.672 474.365 240.609 474.844C240.547 475.323 240.516 475.802 240.516 476.281L240.719 479.641C241.167 479.557 241.604 479.453 242.031 479.328C242.458 479.203 242.896 479.141 243.344 479.141C243.594 479.141 243.766 479.208 243.859 479.344C243.964 479.479 244.016 479.651 244.016 479.859C244.016 480.068 243.99 480.26 243.938 480.438C243.885 480.615 243.776 480.76 243.609 480.875C243.505 480.938 243.339 480.995 243.109 481.047C242.88 481.099 242.63 481.146 242.359 481.188C242.099 481.229 241.839 481.266 241.578 481.297C241.328 481.328 241.12 481.354 240.953 481.375H240.875C241.083 483.167 241.26 484.682 241.406 485.922C241.552 487.151 241.672 488.172 241.766 488.984C241.87 489.786 241.948 490.417 242 490.875C242.062 491.323 242.104 491.656 242.125 491.875C242.156 492.104 242.172 492.25 242.172 492.312C242.182 492.375 242.188 492.427 242.188 492.469C242.188 492.688 242.12 492.839 241.984 492.922C241.849 493.016 241.682 493.062 241.484 493.062C241.349 493.062 241.198 493.047 241.031 493.016C240.865 492.995 240.703 492.958 240.547 492.906C240.391 492.854 240.25 492.781 240.125 492.688C240.01 492.594 239.927 492.479 239.875 492.344C239.812 491.448 239.724 490.521 239.609 489.562C239.495 488.594 239.38 487.641 239.266 486.703C239.151 485.766 239.047 484.865 238.953 484C238.859 483.135 238.792 482.349 238.75 481.641C238.708 481.651 238.667 481.656 238.625 481.656C238.594 481.646 238.552 481.641 238.5 481.641C238.333 481.641 238.193 481.604 238.078 481.531C237.974 481.448 237.922 481.302 237.922 481.094C237.922 480.854 237.979 480.635 238.094 480.438C238.208 480.24 238.385 480.109 238.625 480.047C238.604 479.474 238.573 478.839 238.531 478.141C238.49 477.443 238.474 476.734 238.484 476.016C238.505 475.286 238.568 474.583 238.672 473.906C238.786 473.219 238.979 472.615 239.25 472.094C239.531 471.562 239.917 471.135 240.406 470.812C240.896 470.49 241.526 470.328 242.297 470.328C242.891 470.328 243.411 470.38 243.859 470.484C244.318 470.578 244.729 470.719 245.094 470.906C245.125 470.562 245.156 470.26 245.188 470C245.219 469.729 245.26 469.536 245.312 469.422V469.438C245.354 469.292 245.406 469.182 245.469 469.109C245.542 469.036 245.667 469 245.844 469C246.229 469 246.547 469.125 246.797 469.375C247.057 469.625 247.188 469.938 247.188 470.312C247.188 471.042 247.167 471.766 247.125 472.484C247.094 473.203 247.057 473.922 247.016 474.641C246.984 475.359 246.948 476.078 246.906 476.797C246.875 477.516 246.859 478.24 246.859 478.969C246.859 479.354 246.865 479.859 246.875 480.484C246.885 481.109 246.906 481.792 246.938 482.531C246.969 483.26 247.01 484.016 247.062 484.797C247.125 485.578 247.198 486.323 247.281 487.031C247.375 487.74 247.484 488.38 247.609 488.953C247.745 489.526 247.906 489.969 248.094 490.281C248.177 490.323 248.26 490.391 248.344 490.484C248.438 490.568 248.516 490.667 248.578 490.781C248.651 490.885 248.708 490.995 248.75 491.109C248.802 491.234 248.828 491.349 248.828 491.453ZM251.234 477.859C251.234 478.036 251.193 478.167 251.109 478.25C251.036 478.323 250.896 478.359 250.688 478.359C250.594 478.359 250.448 478.349 250.25 478.328C250.052 478.297 249.849 478.255 249.641 478.203C249.443 478.151 249.266 478.078 249.109 477.984C248.964 477.891 248.891 477.776 248.891 477.641C248.891 477.599 248.906 477.484 248.938 477.297C248.969 477.099 249.005 476.891 249.047 476.672C249.099 476.453 249.141 476.255 249.172 476.078C249.214 475.901 249.245 475.802 249.266 475.781V475.797C249.318 475.714 249.38 475.661 249.453 475.641C249.526 475.62 249.599 475.609 249.672 475.609C249.766 475.609 249.885 475.625 250.031 475.656C250.188 475.677 250.339 475.714 250.484 475.766C250.641 475.807 250.781 475.865 250.906 475.938C251.031 476.01 251.109 476.089 251.141 476.172C251.172 476.255 251.188 476.37 251.188 476.516C251.198 476.651 251.198 476.776 251.188 476.891C251.188 476.932 251.182 476.984 251.172 477.047C251.172 477.099 251.172 477.141 251.172 477.172C251.172 477.224 251.172 477.276 251.172 477.328C251.182 477.38 251.193 477.432 251.203 477.484C251.214 477.536 251.219 477.594 251.219 477.656C251.229 477.719 251.234 477.786 251.234 477.859ZM251.812 490.312C251.812 490.552 251.755 490.724 251.641 490.828C251.536 490.922 251.365 490.969 251.125 490.969C251 490.969 250.859 490.953 250.703 490.922C250.557 490.891 250.411 490.849 250.266 490.797C250.12 490.734 249.984 490.661 249.859 490.578C249.734 490.495 249.641 490.401 249.578 490.297C249.536 490.234 249.5 490.042 249.469 489.719C249.438 489.396 249.411 488.995 249.391 488.516C249.38 488.036 249.365 487.5 249.344 486.906C249.333 486.312 249.323 485.714 249.312 485.109C249.312 484.505 249.312 483.917 249.312 483.344C249.312 482.771 249.312 482.271 249.312 481.844V480.641C249.312 480.536 249.312 480.432 249.312 480.328C249.323 480.224 249.344 480.135 249.375 480.062C249.417 479.979 249.474 479.911 249.547 479.859C249.63 479.807 249.745 479.781 249.891 479.781C250.349 479.781 250.682 479.911 250.891 480.172C251.109 480.422 251.245 480.76 251.297 481.188C251.349 481.823 251.385 482.458 251.406 483.094C251.438 483.719 251.464 484.354 251.484 485C251.505 485.583 251.521 486.161 251.531 486.734C251.552 487.297 251.589 487.859 251.641 488.422C251.651 488.536 251.661 488.646 251.672 488.75C251.682 488.854 251.698 488.958 251.719 489.062C251.74 489.271 251.76 489.479 251.781 489.688C251.802 489.885 251.812 490.094 251.812 490.312ZM255.375 486.938C255.375 487.438 255.37 487.896 255.359 488.312C255.359 488.729 255.37 489.188 255.391 489.688L255.672 489.484L255.844 489.375C256.354 488.969 256.797 488.474 257.172 487.891C257.557 487.297 257.875 486.667 258.125 486C258.375 485.333 258.557 484.651 258.672 483.953C258.797 483.245 258.859 482.573 258.859 481.938C258.859 481.812 258.854 481.641 258.844 481.422C258.844 481.193 258.823 480.969 258.781 480.75C258.74 480.531 258.677 480.344 258.594 480.188C258.51 480.021 258.391 479.938 258.234 479.938C257.984 479.938 257.729 480.089 257.469 480.391C257.208 480.693 256.964 481.052 256.734 481.469C256.516 481.885 256.318 482.307 256.141 482.734C255.964 483.151 255.833 483.479 255.75 483.719C255.75 483.729 255.745 483.734 255.734 483.734C255.734 483.734 255.734 483.74 255.734 483.75V483.766C255.672 483.911 255.604 484.068 255.531 484.234C255.469 484.401 255.427 484.557 255.406 484.703C255.385 484.849 255.37 485.016 255.359 485.203C255.349 485.38 255.344 485.568 255.344 485.766C255.344 485.87 255.344 485.974 255.344 486.078C255.354 486.172 255.359 486.26 255.359 486.344C255.359 486.458 255.359 486.568 255.359 486.672C255.37 486.766 255.375 486.854 255.375 486.938ZM256.234 501.219C256.234 501.448 256.172 501.604 256.047 501.688C255.922 501.771 255.755 501.812 255.547 501.812C255.297 501.812 255.021 501.771 254.719 501.688C254.417 501.615 254.177 501.474 254 501.266C253.948 501.193 253.896 500.979 253.844 500.625C253.802 500.271 253.76 499.854 253.719 499.375C253.677 498.906 253.641 498.417 253.609 497.906C253.578 497.406 253.547 496.964 253.516 496.578L253.453 495.75C253.328 493.521 253.266 491.292 253.266 489.062C253.266 487.76 253.286 486.484 253.328 485.234C253.38 483.974 253.432 482.698 253.484 481.406L253.547 479.766C253.547 479.599 253.547 479.438 253.547 479.281C253.557 479.115 253.578 478.953 253.609 478.797C253.661 478.661 253.724 478.557 253.797 478.484C253.88 478.401 254.01 478.359 254.188 478.359C254.635 478.359 254.964 478.495 255.172 478.766C255.38 479.026 255.5 479.349 255.531 479.734C255.865 479.276 256.26 478.911 256.719 478.641C257.188 478.37 257.724 478.234 258.328 478.234C258.839 478.234 259.266 478.349 259.609 478.578C259.964 478.807 260.245 479.104 260.453 479.469C260.661 479.823 260.807 480.224 260.891 480.672C260.984 481.109 261.031 481.542 261.031 481.969C261.031 482.792 260.958 483.615 260.812 484.438C260.667 485.25 260.438 486.042 260.125 486.812C259.823 487.573 259.438 488.297 258.969 488.984C258.5 489.661 257.948 490.266 257.312 490.797C257.229 490.87 257.13 490.948 257.016 491.031C256.901 491.115 256.781 491.193 256.656 491.266C256.531 491.339 256.401 491.401 256.266 491.453C256.141 491.505 256.026 491.531 255.922 491.531C255.807 491.531 255.708 491.505 255.625 491.453C255.542 491.401 255.469 491.339 255.406 491.266C255.427 491.984 255.453 492.729 255.484 493.5C255.526 494.271 255.573 495.042 255.625 495.812C255.677 496.594 255.74 497.365 255.812 498.125C255.896 498.885 255.995 499.62 256.109 500.328C256.141 500.464 256.167 500.604 256.188 500.75C256.219 500.906 256.234 501.062 256.234 501.219ZM266.156 480.031C266.156 481 266.099 482.052 265.984 483.188C265.88 484.312 265.693 485.438 265.422 486.562C265.161 487.688 264.812 488.766 264.375 489.797C263.938 490.818 263.396 491.708 262.75 492.469C262.698 492.531 262.63 492.604 262.547 492.688C262.474 492.781 262.391 492.865 262.297 492.938C262.203 493.021 262.109 493.089 262.016 493.141C261.922 493.193 261.833 493.219 261.75 493.219C261.625 493.219 261.505 493.177 261.391 493.094C261.286 493.021 261.193 492.922 261.109 492.797C261.036 492.682 260.979 492.557 260.938 492.422C260.896 492.297 260.875 492.177 260.875 492.062C260.875 491.948 260.927 491.781 261.031 491.562C261.135 491.344 261.255 491.115 261.391 490.875C261.526 490.625 261.661 490.391 261.797 490.172C261.932 489.943 262.031 489.76 262.094 489.625C262.406 488.958 262.672 488.245 262.891 487.484C263.109 486.724 263.286 485.948 263.422 485.156C263.557 484.354 263.656 483.557 263.719 482.766C263.781 481.964 263.812 481.198 263.812 480.469C263.812 479.646 263.776 478.786 263.703 477.891C263.641 476.995 263.521 476.104 263.344 475.219C263.177 474.333 262.943 473.479 262.641 472.656C262.339 471.823 261.958 471.052 261.5 470.344C261.312 470.073 261.13 469.823 260.953 469.594C260.776 469.365 260.552 469.156 260.281 468.969C260.188 468.885 260.083 468.807 259.969 468.734C259.844 468.651 259.781 468.531 259.781 468.375C259.781 468.24 259.849 468.109 259.984 467.984C260.12 467.859 260.281 467.75 260.469 467.656C260.646 467.562 260.828 467.49 261.016 467.438C261.203 467.375 261.354 467.344 261.469 467.344C261.677 467.344 261.875 467.401 262.062 467.516C262.26 467.62 262.438 467.755 262.594 467.922C262.76 468.089 262.911 468.266 263.047 468.453C263.182 468.641 263.302 468.812 263.406 468.969C263.948 469.781 264.396 470.635 264.75 471.531C265.115 472.427 265.396 473.344 265.594 474.281C265.802 475.219 265.948 476.172 266.031 477.141C266.115 478.109 266.156 479.073 266.156 480.031Z" fill="#5E5E5E"/>
<mask id="mask5_49_4" style="mask-type:alpha" maskUnits="userSpaceOnUse" x="251" y="32" width="36" height="38">
<ellipse cx="269.036" cy="51" rx="17.0741" ry="19" transform="rotate(180 269.036 51)" fill="#808DBE"/>
</mask>
<g mask="url(#mask5_49_4)">
<rect x="286.11" y="50.7246" width="34.1481" height="19.8261" transform="rotate(180 286.11 50.7246)" fill="#808DBE"/>
</g>
</svg>
