<svg width="475" height="709" viewBox="0 0 475 709" fill="none" xmlns="http://www.w3.org/2000/svg">
<path d="M170.136 530.75L248.5 12.0415L326.864 530.75H170.136Z" fill="#BDD7B6" stroke="#75A348" stroke-width="3"/>
<path d="M473.5 193C473.5 202.073 467.342 211.021 455.47 219.411C443.638 227.774 426.42 235.366 405.008 241.767C362.204 254.564 302.98 262.5 237.5 262.5C172.02 262.5 112.796 254.564 69.9918 241.767C48.5799 235.366 31.3616 227.774 19.5297 219.411C7.65797 211.021 1.5 202.073 1.5 193C1.5 183.927 7.65797 174.979 19.5297 166.589C31.3616 158.226 48.5799 150.634 69.9918 144.233C112.796 131.436 172.02 123.5 237.5 123.5C302.98 123.5 362.204 131.436 405.008 144.233C426.42 150.634 443.638 158.226 455.47 166.589C467.342 174.979 473.5 183.927 473.5 193Z" fill="#D9D9D9" stroke="#777777" stroke-width="3"/>
<path d="M238 2.50001C151.6 10.9 103.667 109.333 90.5 157.5C240.1 217.9 349.5 182.667 385.5 157.5C372.333 102.333 324.4 -5.89999 238 2.50001Z" fill="#C8E9F3" stroke="#1F8EBD" stroke-width="3"/>
<path d="M281 22C294.5 30 323.3 51.7 330.5 74.5" stroke="#E8F7FE" stroke-width="5" stroke-linecap="round"/>
<circle cx="334" cy="84" r="3" fill="#E8F7FE"/>
<circle cx="175" cy="229" r="12" fill="#75A348" stroke="#59753D" stroke-width="2"/>
<circle cx="318" cy="228" r="12" fill="#75A348" stroke="#59753D" stroke-width="2"/>
<circle cx="247" cy="233" r="12" fill="#75A348" stroke="#59753D" stroke-width="2"/>
<path d="M326.5 533.5C326.5 534.111 326.207 534.865 325.31 535.769C324.409 536.677 323.001 537.626 321.056 538.574C317.171 540.469 311.453 542.216 304.266 543.698C289.915 546.658 270.021 548.5 248 548.5C225.979 548.5 206.085 546.658 191.734 543.698C184.547 542.216 178.829 540.469 174.944 538.574C172.999 537.626 171.591 536.677 170.69 535.769C169.793 534.865 169.5 534.111 169.5 533.5C169.5 532.889 169.793 532.135 170.69 531.231C171.591 530.323 172.999 529.374 174.944 528.426C178.829 526.531 184.547 524.784 191.734 523.302C206.085 520.342 225.979 518.5 248 518.5C270.021 518.5 289.915 520.342 304.266 523.302C311.453 524.784 317.171 526.531 321.056 528.426C323.001 529.374 324.409 530.323 325.31 531.231C326.207 532.135 326.5 532.889 326.5 533.5Z" fill="#CFE9D6" stroke="#7CA751" stroke-width="3"/>
</svg>
